<?xml version="1.0" encoding="UTF-8" standalone="no"?>
<svg
   xmlns:dc="http://purl.org/dc/elements/1.1/"
   xmlns:cc="http://creativecommons.org/ns#"
   xmlns:rdf="http://www.w3.org/1999/02/22-rdf-syntax-ns#"
   xmlns:svg="http://www.w3.org/2000/svg"
   xmlns="http://www.w3.org/2000/svg"
   xmlns:sodipodi="http://sodipodi.sourceforge.net/DTD/sodipodi-0.dtd"
   xmlns:inkscape="http://www.inkscape.org/namespaces/inkscape"
   id="svg2"
   viewBox="0 0 3400.1079 2373.7251"
   version="1.1"
   width="959.586mm"
   height="669.918mm"
   inkscape:version="0.91 r"
   sodipodi:docname="background.svg">
  <sodipodi:namedview
     pagecolor="#ffffff"
     bordercolor="#666666"
     borderopacity="1"
     objecttolerance="10"
     gridtolerance="10"
     guidetolerance="10"
     inkscape:pageopacity="0"
     inkscape:pageshadow="2"
     inkscape:window-width="1749"
     inkscape:window-height="895"
     id="namedview13"
     showgrid="false"
     inkscape:zoom="0.31763698"
     inkscape:cx="1461.2791"
     inkscape:cy="1486.637"
     inkscape:window-x="0"
     inkscape:window-y="26"
     inkscape:window-maximized="0"
     inkscape:current-layer="svg2" />
  <metadata
     id="metadata16">
    <rdf:RDF>
      <cc:Work
         rdf:about="">
        <dc:format>image/svg+xml</dc:format>
        <dc:type
           rdf:resource="http://purl.org/dc/dcmitype/StillImage" />
        <dc:title />
      </cc:Work>
    </rdf:RDF>
  </metadata>
  <defs
     id="defs14" />
  <g
     id="g4"
     transform="translate(605.7683 323.0718)">
    <g
       id="g6"
       transform="matrix(1.25 0 0 -1.25 -604.7666 2049.652)">
      <path
         id="path8"
         style="fill:#393838"
         d="m947.977 1897.941 2.23-2.41c1.664-1.809 369.219-526.312 386.848-552.031 3.101-4.528 4.234-8.91 2.3-8.91-0.886 0-19.535 3.171-51.812 8.804-8.461 1.477-20.91 3.641-27.68 4.805-22.843 3.941-43.871 7.578-56.238 9.734-6.77 1.184-24.969 4.328-40.434 6.989-15.468 2.664-33.668 5.828-40.433 7.035-6.77 1.207-22.586 3.953-35.156 6.101-20.469 3.5-104.262 17.989-122.153 21.118-3.867 0.679-12.765 2.23-19.773 3.449-7.012 1.219-22.043 3.832-33.403 5.812-11.355 1.985-29.742 5.157-40.859 7.051-39.562 6.738-45.352 7.887-48.762 9.629-1.902 0.969-4.312 1.754-5.355 1.754-1.047 0-12.703-7.547-25.895-16.77-27.082-18.937-27.293-19.156-24.32-26.074 0.984-2.297 4.356-12.277 7.477-22.187 4.695-14.907 27.527-86.5 50.457-158.192 2.707-8.461 7.187-22.504 9.949-31.203 2.758-8.699 8.879-27.871 13.594-42.613 4.714-14.746 10.449-32.742 12.738-39.992 2.293-7.25 12.762-40.079 23.285-72.95 10.523-32.867 21.406-66.886 24.168-75.586 10.613-33.414 16.777-52.781 25.07-78.652 4.723-14.746 10.278-32.141 12.328-38.664 2.051-6.527 7.946-25.051 13.106-41.168 8.156-25.469 9.226-29.531 8.223-30.988-0.633-0.922-83.809-59.524-184.832-130.238-643.333-450.34-777.25-544.25-780.196-547.086-1.812-1.747-3.277-3.985-3.25-4.977 0.031-0.988 7.446-12.273 16.481-25.082 13.265-18.809 16.855-23.336 18.629-23.543 1.3-0.152 4.175 0.938 7.035 2.672 2.656 1.609 87.871 61.086 189.379 132.16 101.507 71.078 300.05 210.082 441.195 308.91 1025.359 717.973 1013.09 709.41 1014.508 708.516 0.801-0.508 3.867-8.688 7.219-19.258 10.14-31.961 27.48-86.309 38.097-119.437 3.254-10.153 11.453-35.856 18.219-57.125 21.562-67.79 31.496-98.961 35.887-112.497 2.351-7.25 8.101-25.246 12.769-39.992 4.668-14.742 10.598-33.324 13.184-41.301 5.226-16.125 44.945-140.707 53.707-168.46 3.078-9.758 5.601-18.301 5.601-18.997 0-3.601-1.539-3.488-38.375 2.914-19.742 3.43-40.441 7.016-46.004 7.981-5.558 0.961-14.457 2.508-19.773 3.43-5.316 0.925-24.687 4.281-43.055 7.461-18.371 3.183-37.757 6.55-43.074 7.476-23.484 4.102-101.555 17.578-106.332 18.356-2.898 0.472-12 2.05-20.219 3.511-8.215 1.461-23.246 4.082-33.398 5.828-19.977 3.43-41.184 7.129-60.633 10.575-6.769 1.195-22.988 4.004-36.039 6.238s-25.504 4.375-27.68 4.762c-7.98 1.41-46.382 7.976-54.058 9.246-4.348 0.719-10.129 2.121-12.86 3.113-4.297 1.555-5.261 1.641-7.113 0.625-1.176-0.644-12.48-8.426-25.129-17.289-18.058-12.652-22.992-16.508-22.992-18.004 0-1.047 1.324-4.125 2.961-6.836 1.633-2.707 59.312-85.355 128.164-183.672 287.684-410.793 322.352-460.406 322.352-461.277 0-0.613 26.867-0.563 40.418-0.363l39.242 0.578-2.395 3.511c-1.777 2.614-100.156 143.079-218.644 312.34-151.418 216.305-215.442 308.418-215.442 310.012 0 1.246 0.422 2.273 0.934 2.273 0.859 0 14.512-2.332 51.371-8.746 15.523-2.699 39.57-6.851 56.242-9.718 5.317-0.914 16.777-2.907 25.481-4.422 8.699-1.52 28.289-4.922 43.515-7.555 15.227-2.633 33.02-5.719 39.547-6.867 6.527-1.145 22.344-3.883 35.152-6.086 31.622-5.438 82-14.176 97.547-16.906 7.008-1.231 17.094-2.977 22.41-3.891 12.129-2.082 39.95-6.894 60.637-10.496 26.832-4.672 40.996-7.109 48.778-8.395 22.468-3.703 32.933-5.867 36.027-7.445 1.898-0.969 4.297-1.754 5.324-1.754s12.684 7.563 25.906 16.813c27.082 18.953 27.27 19.164 24.336 26.031-0.98 2.297-5.996 17.422-11.152 33.613-17.887 56.164-22.578 70.821-27.25 85.246-2.582 7.977-8.137 25.371-12.344 38.664s-9.754 30.704-12.328 38.676c-4.168 12.914-42.465 132.942-54.394 170.492-2.536 7.977-7.883 24.786-11.903 37.352-4.019 12.566-9.762 30.566-12.754 39.992-9.867 31.082-27.863 87.43-48.504 151.906l-11.918 37.231 2.09 2.027c1.149 1.121 12.766 9.512 25.817 18.645 75.328 52.718 734.629 514.336 830.394 581.418 62.766 43.965 115.262 80.519 116.66 81.215 1.399 0.699 2.547 1.425 2.547 1.632s-25.894 0.383-57.535 0.383c-54.562 0-57.605-0.078-59.094-1.601-0.867-0.883-63.675-45.075-139.566-98.184-75.887-53.113-249.297-174.516-385.367-269.789-136.067-95.277-403.219-282.328-593.664-415.672-190.45-133.34-371.27-259.973-401.832-281.398-30.563-21.43-56.36-38.953-57.325-38.953-1.492 0-2.402 2.109-6.226 14.281-2.465 7.851-6.809 21.402-9.641 30.101-2.832 8.703-8.969 27.887-13.625 42.633-4.656 14.742-10.187 32.137-12.297 38.66-2.113 6.528-5.226 16.215-6.914 21.532-1.687 5.316-8.867 27.855-15.957 50.089-7.094 22.235-14.261 44.789-15.929 50.11-4.219 13.426-14.418 45.246-20.555 64.14-2.824 8.704-6.309 19.579-7.75 24.172-1.442 4.59-8.352 26.34-15.363 48.336-7.012 21.992-14 43.946-15.52 48.778-1.519 4.835-4.48 14.132-6.59 20.66-2.109 6.527-7.844 24.523-12.758 39.992-4.91 15.465-11.234 35.242-14.05 43.941-7.989 24.68-11.43 35.942-11.43 37.473 0 3.719 1.469 3.641 33.098-1.891 16.839-2.945 37.339-6.5 45.558-7.906 8.215-1.402 19.492-3.348 25.055-4.316 5.558-0.969 23.941-4.164 40.859-7.094 16.918-2.934 36.305-6.285 43.071-7.461 6.769-1.176 34.25-5.91 61.078-10.516 26.828-4.601 50.758-8.761 53.175-9.246 2.415-0.48 11.5-2.09 20.2-3.57 8.703-1.477 21.554-3.688 28.562-4.91 7.012-1.223 19.278-3.356 27.25-4.731 7.977-1.379 19.055-3.308 24.613-4.289 14.649-2.586 34.297-5.996 51.403-8.91 8.219-1.398 18.305-3.129 22.414-3.859 4.109-0.731 15.773-2.754 25.922-4.485 31.058-5.297 36.785-6.422 40.312-7.906 1.867-0.785 4.02-1.187 4.778-0.898 0.753 0.289 12.179 8.082 25.386 17.316 18.543 12.965 24 17.215 24 18.645 0 1.019-1.316 4.023-2.929 6.683-1.614 2.66-93.09 133.574-203.278 290.922-110.191 157.348-200.613 286.758-200.933 287.594-0.539 1.41-3.524 1.527-41.211 1.527h-40.617z" />
      <path
         id="path10"
         style="fill:#1b1b1b;fill-opacity:1"
         d="m948.734 1898.179 1.848-1.984c3.887-4.168 389.27-555.324 390.922-559.078 2.051-4.652 35.531-52.969 40.23-58.063 1.774-1.921 3.832-3.496 4.567-3.496 1.472 0 5.117 2.442 31.742 21.114 13.762 9.656 18.195 13.191 18.195 14.582 0 1.007-2.086 5.097-4.625 9.082-2.539 3.984-94.051 134.894-203.363 290.922-109.309 156.027-199.027 284.414-199.375 285.3-0.602 1.536-2.637 1.621-40.383 1.621h-39.758zm1657.176 0-2-2.078c-1.109-1.14-14.691-10.89-30.172-21.679-15.476-10.786-160.101-112.02-321.406-224.965-400.238-280.246-786.707-550.86-1026.094-718.485-109.941-76.984-200.652-139.957-201.578-139.957-2.273 0-2.445 0.422-9.098 21.543-5.539 17.575-11.429 36.063-24.671 77.391-6.207 19.367-41.536 130.195-46.813 146.855-1.683 5.321-4.785 15.016-6.898 21.543-2.118 6.532-8.055 25.125-13.192 41.329-5.14 16.203-11.48 35.992-14.078 43.972-4.73 14.524-38.851 121.594-64.062 201.008-3.696 11.648-6.731 22.531-6.731 24.184-0.004 1.656-2.629 11.324-5.847 21.484-3.223 10.156-6.106 20.504-6.415 22.992-0.308 2.488-1.121 5.254-1.8 6.153-3.477 4.574-5.774 6.476-7.864 6.472-1.496 0-9.66-5.211-24.246-15.449-12.09-8.492-23.066-16.469-24.394-17.742-2.715-2.594-2.992-4.489-1.176-8 0.684-1.321 4.5-12.676 8.488-25.239 3.989-12.558 9.512-29.949 12.274-38.656 8.629-27.203 49.113-154.051 54.031-169.285 5.215-16.148 12.785-39.906 25.512-80.031 4.679-14.754 10.629-33.348 13.222-41.328 2.594-7.981 5.7-17.676 6.903-21.543 1.199-3.871 6.988-22.078 12.855-40.461 5.867-18.379 13.238-41.535 16.395-51.449 3.156-9.914 7.859-24.555 10.445-32.536 2.586-7.98 8.32-25.988 12.746-40.015 4.43-14.028 10.168-32.02 12.75-40 14.84-45.883 16.348-51.012 15.434-52.719-0.496-0.93-13.282-10.344-28.399-20.918-15.113-10.574-199.222-139.476-409.136-286.461-209.911-146.984-414.118-289.957-453.778-317.715-39.66-27.761-73.39-51.715-74.961-53.222-1.574-1.508-2.871-3.496-2.871-4.414 0-1.485 5.672-9.899 26.578-39.528 6.614-9.367 7.285-9.742 12.918-6.871 1.852 0.945 61.492 42.422 132.535 92.172s269.262 188.547 440.481 308.434c303.508 212.507 512.641 358.949 887.176 621.214 101.007 70.731 184.609 129.036 185.789 129.575 1.316 0.597 2.472 0.664 2.965 0.168 0.441-0.446 4.402-12.094 8.808-25.879s11.117-34.762 14.914-46.61c3.801-11.851 10.735-33.617 15.406-48.367 4.672-14.754 10.442-32.746 12.809-40 2.367-7.258 13.039-40.707 23.727-74.324 10.687-33.613 22.351-70.219 25.91-81.344 16.746-52.383 26.34-82.492 28.73-90.14 1.438-4.594 4.742-14.875 7.344-22.856 20.004-61.312 47.039-148.004 47.039-150.824 0-1.859 2.785-11.969 6.168-22.477 3.387-10.504 6.152-20.675 6.152-22.593 0-2.829 0.676-4.25 3.59-7.559 2.614-2.969 4.235-4.086 5.938-4.059 2.769 0.032 46.871 30.633 49.726 34.504 1.617 2.192 1.684 2.727 0.625 5.282-1.004 2.433-31.211 96.07-45.312 140.46-2.535 7.981-7.903 24.797-11.922 37.375-4.02 12.575-9.375 29.395-11.895 37.375-2.519 7.981-8.379 26.391-13.023 40.899-4.645 14.512-16.59 51.906-26.551 83.101-9.957 31.2-20.328 63.645-23.039 72.11-2.707 8.465-7.176 22.515-9.937 31.223-2.762 8.703-8.891 27.89-13.618 42.64-4.73 14.754-10.468 32.762-12.75 40.016-2.281 7.254-10.98 34.57-19.328 60.687-8.351 26.121-15.191 48.403-15.191 49.528s0.355 2.367 0.777 2.75c0.426 0.382 73.387 51.519 162.141 113.648 88.754 62.133 307.305 215.148 485.672 340.039 178.367 124.887 325.285 227.442 326.48 227.895 1.195 0.457 2.168 1.047 2.168 1.3 0 0.254-25.512 0.457-56.687 0.457h-56.688zm-1280.449-1211.195c-0.457 0.106-0.867 0.078-1.285-0.031-0.477-0.129-0.961-0.371-1.496-0.656-1.149-0.614-12.168-8.192-24.504-16.856-16.235-11.406-22.504-16.281-22.688-17.664-0.14-1.051 1.063-4.09 2.672-6.75 1.613-2.66 98.266-140.965 214.781-307.348 251.079-358.527 232.676-332.507 234.282-335.168 0.058-0.402 0.793-2.582 1.527-3.097l0.52-0.215c0.515 0.402 17.855 0.297 39.953 0.062 38.257 0.02 39.949-0.39 38.445 0.961-1.031 0.836-18.078 24.668-37.879 52.965-19.805 28.293-117.723 168.192-217.609 310.875-99.883 142.684-182.059 260.75-182.614 262.371-0.554 1.621-7.437 12.102-15.281 23.297-20.531 29.305-25.637 36.512-28.824 37.254z" />
    </g>
  </g>
  <g
     transform="matrix(0.81915204,-0.57357644,0.57357644,0.81915204,0,0)"
     style="font-style:normal;font-weight:normal;font-size:49.05592728px;line-height:125%;font-family:sans-serif;letter-spacing:0px;word-spacing:0px;fill:#000000;fill-opacity:1;stroke:none;stroke-width:1px;stroke-linecap:butt;stroke-linejoin:miter;stroke-opacity:1"
     id="text3344">
    <path
       d="m 707.86599,1788.1616 q 0,10.0718 -3.44924,17.5222 -3.31128,7.4504 -8.6921,12.4173 -5.38082,4.8289 -12.27931,7.3124 -6.89849,2.3455 -13.93495,2.3455 -4.27707,0 -8.55413,-0.8278 -4.1391,-0.8279 -8.14022,-2.7594 -1.3797,-0.6899 -2.20752,-2.0696 -0.82782,-1.3797 -0.68985,-3.0353 0.13797,-2.3455 1.51767,-4.0012 1.3797,-1.6556 3.72519,-1.6556 1.37969,0 2.34548,0.5519 5.51879,2.4834 12.00338,2.4834 5.10488,0 9.93382,-1.6556 4.96691,-1.6556 8.6921,-5.1049 3.86315,-3.4492 6.07067,-8.83 2.34549,-5.3809 2.34549,-12.6933 l 0,-66.9153 q 0,-2.3455 1.65563,-3.5872 1.79361,-1.2418 4.00113,-1.2418 2.20752,0 3.86315,1.2418 1.79361,1.2417 1.79361,3.5872 l 0,66.9153 z"
       style="font-style:normal;font-variant:normal;font-weight:normal;font-stretch:normal;font-size:137.96980286px;font-family:'La chata';-inkscape-font-specification:'La chata';text-align:center;writing-mode:lr-tb;text-anchor:middle;fill:#1b1b1b;fill-opacity:1"
       id="path3342" />
    <path
       d="m 803.59116,1820.9985 q 0,2.6214 -1.7936,4.0011 -1.79361,1.3797 -4.1391,1.3797 -1.51767,0 -2.89736,-0.6899 -1.3797,-0.8278 -2.06955,-2.3455 -0.96579,-1.9315 -2.89737,-1.9315 -0.96579,0 -1.93157,0.6898 -4.96692,3.4493 -10.89962,5.1049 -5.79473,1.7936 -11.72743,1.7936 -7.03646,0 -13.93495,-2.4835 -6.89849,-2.3454 -12.27931,-7.3124 -5.38083,-4.9669 -8.83007,-12.4172 -3.31128,-7.4504 -3.31128,-17.5222 0,-10.0718 3.31128,-17.5222 3.44924,-7.4503 8.83007,-12.2793 5.38082,-4.9669 12.27931,-7.3124 6.89849,-2.4834 13.93495,-2.4834 5.9327,0 11.72743,1.7936 5.9327,1.6556 10.89962,5.1049 0.96578,0.6898 1.93157,0.6898 0.96579,0 1.65564,-0.5519 0.82782,-0.6898 1.24173,-1.5176 0.68985,-1.5177 2.06955,-2.2076 1.37969,-0.6898 2.89736,-0.6898 2.34549,0 4.1391,1.3797 1.7936,1.3797 1.7936,4.0011 l 0,63.3282 z m -38.3556,-60.0169 q -5.24285,0 -10.0718,1.6556 -4.82894,1.6557 -8.69209,5.1049 -3.72519,3.4493 -6.07068,8.8301 -2.20751,5.3808 -2.20751,12.6932 0,7.4504 2.20751,12.8312 2.34549,5.2428 6.07068,8.8301 3.86315,3.4492 8.69209,5.1048 4.96692,1.6557 10.0718,1.6557 5.10488,0 9.93382,-1.6557 4.96692,-1.6556 8.6921,-5.1048 3.86316,-3.5873 6.07067,-8.8301 2.34549,-5.3808 2.34549,-12.8312 0,-7.3124 -2.34549,-12.6932 -2.20751,-5.3808 -6.07067,-8.8301 -3.72518,-3.4492 -8.6921,-5.1049 -4.82894,-1.6556 -9.93382,-1.6556 z"
       style="font-style:normal;font-variant:normal;font-weight:normal;font-stretch:normal;font-size:137.96980286px;font-family:'La chata';-inkscape-font-specification:'La chata';text-align:center;writing-mode:lr-tb;text-anchor:middle;fill:#1b1b1b;fill-opacity:1"
       id="path3344" />
    <path
       d="m 887.34962,1757.3944 q 1.10376,0 1.79361,-0.6899 0.68984,-0.6898 0.68984,-1.7936 l 0,-35.3203 q 0,-2.3454 1.65564,-3.4492 1.79361,-1.1038 4.00113,-1.1038 2.20751,0 3.86315,1.1038 1.79361,1.1038 1.79361,3.4492 l 0,101.6838 q 0,2.3455 -1.65564,3.8631 -1.65564,1.3797 -4.00112,1.3797 -3.58722,0 -4.96692,-2.6214 -0.55188,-0.8278 -1.37969,-1.5177 -0.68985,-0.8278 -1.65564,-0.8278 -1.10376,0 -2.06955,0.6899 -4.96691,3.5872 -10.76164,5.2428 -5.79474,1.6557 -11.86541,1.6557 -7.03646,0 -13.93495,-2.4835 -6.89849,-2.3455 -12.41728,-7.1744 -5.38082,-4.9669 -8.6921,-12.4173 -3.31127,-7.4504 -3.31127,-17.5222 0,-10.0718 3.31127,-17.5221 3.44925,-7.4504 8.83007,-12.4173 5.38082,-4.9669 12.27931,-7.3124 6.89849,-2.4835 13.93495,-2.4835 6.07067,0 11.86541,1.7936 5.79473,1.6557 10.76164,5.1049 0.96579,0.6899 1.93158,0.6899 l 0,0 z m -24.55863,60.4307 q 5.10489,0 9.93383,-1.6556 4.96691,-1.6556 8.6921,-5.1049 3.86315,-3.4492 6.07067,-8.83 2.34548,-5.3809 2.34548,-12.6933 0,-7.4503 -2.34548,-12.6932 -2.20752,-5.3808 -6.07067,-8.8301 -3.72519,-3.5872 -8.6921,-5.2428 -4.82894,-1.6556 -9.93383,-1.6556 -5.10488,0 -10.07179,1.6556 -4.82895,1.6556 -8.6921,5.2428 -3.72518,3.4493 -6.07067,8.8301 -2.20752,5.2429 -2.20752,12.6932 0,7.3124 2.20752,12.6933 2.34549,5.3808 6.07067,8.83 3.86315,3.4493 8.6921,5.1049 4.82894,1.6556 10.07179,1.6556 z"
       style="font-style:normal;font-variant:normal;font-weight:normal;font-stretch:normal;font-size:137.96980286px;font-family:'La chata';-inkscape-font-specification:'La chata';text-align:center;writing-mode:lr-tb;text-anchor:middle;fill:#1b1b1b;fill-opacity:1"
       id="path3346" />
    <path
       d="m 999.24096,1789.6793 q 0,2.0696 -1.3797,3.7252 -1.24173,1.6556 -3.44924,2.0695 l -57.39544,9.106 q 3.58721,7.0365 10.07179,10.3478 6.48458,3.3113 13.79698,3.3113 6.34661,0 12.00338,-2.4835 0.27594,-0.138 0.96578,-0.4139 0.82782,-0.276 1.79361,0 1.10376,0.138 2.20752,0.9658 1.10376,0.6898 1.93158,2.6214 0.96579,1.9316 0.41391,4.0011 -0.41391,2.0696 -2.7594,3.1733 -7.72631,3.4493 -16.55638,3.4493 -7.03646,0 -13.93495,-2.4835 -6.89849,-2.3455 -12.27931,-7.3124 -5.38082,-4.9669 -8.83007,-12.4173 -3.31127,-7.4503 -3.31127,-17.5221 0,-10.0718 3.31127,-17.5222 3.31128,-7.4504 8.6921,-12.2793 5.51879,-4.9669 12.41728,-7.3124 6.89849,-2.4835 13.93495,-2.4835 7.03646,0 13.79698,2.4835 6.89849,2.3455 12.27932,7.3124 5.51879,4.8289 8.83006,12.2793 3.44925,7.3124 3.44925,17.3842 z m -63.46611,3.5872 50.22101,-8.0022 q 0.82782,-0.138 1.10376,-0.8278 0.41391,-0.6899 0.27594,-1.3797 -1.10376,-5.5188 -3.72519,-9.52 -2.48346,-4.1391 -6.07067,-6.7605 -3.58722,-2.7594 -8.00225,-4.0011 -4.27706,-1.2417 -8.6921,-1.2417 -5.24285,0 -10.07179,1.6556 -4.82895,1.6556 -8.6921,5.1049 -3.72518,3.4492 -6.07067,8.8301 -2.20752,5.3808 -2.20752,12.6932 l 0,1.9316 q 0.27594,1.7936 1.93158,1.5176 z"
       style="font-style:normal;font-variant:normal;font-weight:normal;font-stretch:normal;font-size:137.96980286px;font-family:'La chata';-inkscape-font-specification:'La chata';text-align:center;writing-mode:lr-tb;text-anchor:middle;fill:#1b1b1b;fill-opacity:1"
       id="path3348" />
    <path
       d="m 1096.1367,1732.5598 0,89.1285 q 0,2.3455 -1.7936,3.5872 -1.6556,1.2417 -3.8631,1.2417 -2.2075,0 -4.0012,-1.2417 -1.6556,-1.2417 -1.6556,-3.5872 l 0,-89.1285 q 0,-2.0695 -1.3797,-3.4492 -1.3797,-1.3797 -3.4492,-1.3797 l -15.0387,0 q -2.3455,0 -3.5873,-1.6557 -1.2417,-1.7936 -1.2417,-4.0011 0,-2.3455 1.2417,-4.0011 1.2418,-1.6557 3.5873,-1.6557 l 51.0488,0 q 2.3455,0 3.5872,1.6557 1.3797,1.6556 1.3797,4.0011 0,2.2075 -1.3797,4.0011 -1.2417,1.6557 -3.5872,1.6557 l -15.0387,0 q -1.9316,0 -3.4493,1.3797 -1.3797,1.3797 -1.3797,3.4492 z"
       style="font-style:normal;font-variant:normal;font-weight:normal;font-stretch:normal;font-size:137.96980286px;font-family:'La chata';-inkscape-font-specification:'La chata';text-align:center;writing-mode:lr-tb;text-anchor:middle;fill:#1b1b1b;fill-opacity:1"
       id="path3350" />
    <path
       d="m 1149.2357,1752.5654 q 0,1.3797 0.9658,2.3455 0.9658,0.9658 2.4834,0.9658 1.1038,0 1.7936,-0.5519 4.829,-3.1733 10.3478,-4.6909 5.6567,-1.5177 11.4515,-1.5177 7.0364,0 13.9349,2.4834 6.8985,2.3455 12.2793,7.3124 5.3809,4.829 8.6921,12.2794 3.4493,7.4503 3.4493,17.5221 l 0,32.9748 q 0,2.3455 -1.7936,3.5872 -1.6557,1.1038 -3.8632,1.1038 -2.2075,0 -4.0011,-1.1038 -1.6556,-1.2417 -1.6556,-3.5872 l 0,-32.9748 q 0,-7.3124 -2.3455,-12.6932 -2.2075,-5.3808 -6.0707,-8.8301 -3.7252,-3.4492 -8.6921,-5.1049 -4.8289,-1.6556 -9.9338,-1.6556 -5.2429,0 -10.0718,1.6556 -4.829,1.6557 -8.6921,5.1049 -3.7252,3.4493 -6.0707,8.8301 -2.2075,5.3808 -2.2075,12.6932 l 0,32.9748 q 0,2.3455 -1.7936,3.5872 -1.6557,1.1038 -3.8632,1.1038 -2.2075,0 -4.0011,-1.1038 -1.6556,-1.2417 -1.6556,-3.5872 l 0,-102.0977 q 0,-2.3454 1.7936,-3.4492 1.7936,-1.2417 3.8631,-1.2417 2.2075,0 3.8632,1.2417 1.7936,1.1038 1.7936,3.4492 l 0,32.9748 z"
       style="font-style:normal;font-variant:normal;font-weight:normal;font-stretch:normal;font-size:137.96980286px;font-family:'La chata';-inkscape-font-specification:'La chata';text-align:center;writing-mode:lr-tb;text-anchor:middle;fill:#1b1b1b;fill-opacity:1"
       id="path3352" />
    <path
       d="m 1271.8434,1829.1387 q -7.0364,0 -13.9349,-2.4835 -6.8985,-2.3455 -12.2793,-7.3124 -5.3809,-4.9669 -8.8301,-12.4173 -3.3113,-7.4503 -3.3113,-17.5221 0,-10.0718 3.3113,-17.5222 3.3113,-7.4504 8.6921,-12.2793 5.5188,-4.9669 12.4173,-7.3124 6.8985,-2.4835 13.9349,-2.4835 7.1745,0 14.0729,2.4835 6.8985,2.3455 12.2794,7.3124 5.3808,4.8289 8.6921,12.2793 3.3112,7.4504 3.3112,17.5222 0,10.0718 -3.3112,17.5221 -3.3113,7.4504 -8.8301,12.4173 -5.3808,4.9669 -12.2793,7.3124 -6.8985,2.4835 -13.935,2.4835 z m 0,-11.3136 q 5.1049,0 9.9338,-1.6556 4.967,-1.6556 8.6921,-5.1049 3.8632,-3.5872 6.0707,-8.968 2.3455,-5.3808 2.3455,-12.6932 0,-7.3124 -2.3455,-12.6933 -2.2075,-5.3808 -6.0707,-8.83 -3.7251,-3.4493 -8.6921,-5.1049 -4.8289,-1.6556 -9.9338,-1.6556 -5.1049,0 -10.0718,1.6556 -4.8289,1.6556 -8.6921,5.1049 -3.7252,3.4492 -6.0706,8.83 -2.2076,5.3809 -2.2076,12.6933 0,7.3124 2.3455,12.6932 2.3455,5.3808 6.0707,8.968 3.8632,3.4493 8.6921,5.1049 4.8289,1.6556 9.9338,1.6556 z"
       style="font-style:normal;font-variant:normal;font-weight:normal;font-stretch:normal;font-size:137.96980286px;font-family:'La chata';-inkscape-font-specification:'La chata';text-align:center;writing-mode:lr-tb;text-anchor:middle;fill:#1b1b1b;fill-opacity:1"
       id="path3354" />
    <path
       d="m 1340.3843,1789.4034 0,32.1469 q 0,2.4835 -1.7937,3.7252 -1.7936,1.1038 -3.8631,1.1038 -2.0696,0 -3.8632,-1.1038 -1.7936,-1.2417 -1.7936,-3.7252 l 0,-32.1469 q 0,-8.5542 2.7594,-15.7286 2.7594,-7.3124 7.7263,-12.5552 5.1049,-5.3809 12.1414,-8.4162 7.0364,-3.0353 15.7285,-3.0353 1.7936,0 4.0012,0.2759 2.3454,0.138 4.553,0.5519 2.3455,0.4139 4.415,1.1037 2.0695,0.6899 3.7252,1.6557 1.7936,0.9658 2.3455,2.7594 0.6898,1.6556 0.2759,3.3112 -0.4139,1.6557 -1.7936,2.8974 -1.2417,1.2417 -3.3113,1.2417 -2.3455,0 -5.9327,-1.2417 -3.4492,-1.2417 -8.2782,-1.2417 -6.3466,0 -11.3135,2.2075 -4.9669,2.0695 -8.5541,5.9327 -3.4493,3.7252 -5.3808,8.968 -1.7936,5.1049 -1.7936,11.3136 z"
       style="font-style:normal;font-variant:normal;font-weight:normal;font-stretch:normal;font-size:137.96980286px;font-family:'La chata';-inkscape-font-specification:'La chata';text-align:center;writing-mode:lr-tb;text-anchor:middle;fill:#1b1b1b;fill-opacity:1"
       id="path3356" />
    <path
       d="m 1413.9825,1755.3248 q 0.9658,1.9316 2.7594,1.9316 1.1038,0 2.0696,-0.6898 4.9669,-3.4493 10.7616,-5.1049 5.7947,-1.7936 11.8654,-1.7936 7.0365,0 13.935,2.4834 6.8985,2.3455 12.2793,7.3124 5.5188,4.829 8.83,12.2793 3.3113,7.4504 3.3113,17.5222 l 0,32.2849 q 0,2.3455 -1.7936,3.5872 -1.6556,1.2418 -3.8631,1.2418 -2.2076,0 -4.0012,-1.2418 -1.6556,-1.2417 -1.6556,-3.5872 l 0,-32.1469 q 0,-7.4504 -2.3455,-12.6933 -2.2075,-5.3808 -6.0707,-8.83 -3.7252,-3.5872 -8.6921,-5.2429 -4.8289,-1.6556 -9.9338,-1.6556 -5.1049,0 -9.9338,1.6556 -4.829,1.6557 -8.6921,5.1049 -3.7252,3.4493 -6.0707,8.8301 -2.3455,5.2428 -2.3455,12.5552 l 0,32.4229 q 0,2.3455 -1.7936,3.5872 -1.6556,1.2418 -3.8631,1.2418 -2.2075,0 -4.0012,-1.2418 -1.6556,-1.2417 -1.6556,-3.5872 l 0,-63.604 q 0,-2.4835 1.6556,-4.0012 1.7937,-1.6556 4.0012,-1.6556 3.8631,0 5.2428,3.0353 z"
       style="font-style:normal;font-variant:normal;font-weight:normal;font-stretch:normal;font-size:137.96980286px;font-family:'La chata';-inkscape-font-specification:'La chata';text-align:center;writing-mode:lr-tb;text-anchor:middle;fill:#1b1b1b;fill-opacity:1"
       id="path3358" />
    <path
       d="m 1517.2744,1789.4034 q 0,7.3124 2.2076,12.6932 2.3455,5.3808 6.0706,8.968 3.8632,3.4493 8.6921,5.1049 4.9669,1.6556 10.0718,1.6556 2.3455,0 3.5872,1.7937 1.3797,1.6556 1.3797,3.8631 0,2.2075 -1.3797,3.8632 -1.2417,1.7936 -3.5872,1.7936 -7.0364,0 -13.9349,-2.4835 -6.8985,-2.3455 -12.2793,-7.3124 -5.3809,-4.9669 -8.8301,-12.4173 -3.3113,-7.4503 -3.3113,-17.5221 l 0,-22.4891 q 0,-2.0696 -1.5176,-3.4493 -1.3797,-1.3797 -3.3113,-1.3797 l -4.691,0 q -1.9316,0 -3.0353,-1.3797 -0.9658,-1.5176 -0.9658,-3.4492 0,-1.9316 0.9658,-3.3113 1.1037,-1.5176 3.0353,-1.5176 l 4.691,0 q 1.9316,0 3.3113,-1.3797 1.5176,-1.5177 1.5176,-3.4493 l 0,-27.8699 q 0,-2.3455 1.6557,-3.5872 1.7936,-1.2417 4.0011,-1.2417 2.2075,0 3.8631,1.2417 1.7936,1.2417 1.7936,3.5872 l 0,27.8699 q 0,1.9316 1.3797,3.4493 1.5177,1.3797 3.4493,1.3797 l 16.9703,0 q 1.9316,0 3.0353,1.5176 1.1038,1.3797 1.1038,3.3113 0,1.9316 -1.1038,3.4492 -1.1037,1.3797 -3.0353,1.3797 l -16.9703,0 q -1.9316,0 -3.4493,1.3797 -1.3797,1.3797 -1.3797,3.4493 l 0,22.4891 z"
       style="font-style:normal;font-variant:normal;font-weight:normal;font-stretch:normal;font-size:137.96980286px;font-family:'La chata';-inkscape-font-specification:'La chata';text-align:center;writing-mode:lr-tb;text-anchor:middle;fill:#1b1b1b;fill-opacity:1"
       id="path3360" />
    <path
       d="m 1596.827,1829.1387 q -7.0365,0 -13.9349,-2.4835 -6.8985,-2.3455 -12.2794,-7.3124 -5.3808,-4.9669 -8.83,-12.4173 -3.3113,-7.4503 -3.3113,-17.5221 0,-10.0718 3.3113,-17.5222 3.3112,-7.4504 8.6921,-12.2793 5.5188,-4.9669 12.4173,-7.3124 6.8984,-2.4835 13.9349,-2.4835 7.1744,0 14.0729,2.4835 6.8985,2.3455 12.2793,7.3124 5.3809,4.8289 8.6921,12.2793 3.3113,7.4504 3.3113,17.5222 0,10.0718 -3.3113,17.5221 -3.3112,7.4504 -8.83,12.4173 -5.3809,4.9669 -12.2793,7.3124 -6.8985,2.4835 -13.935,2.4835 z m 0,-11.3136 q 5.1049,0 9.9338,-1.6556 4.9669,-1.6556 8.6921,-5.1049 3.8632,-3.5872 6.0707,-8.968 2.3455,-5.3808 2.3455,-12.6932 0,-7.3124 -2.3455,-12.6933 -2.2075,-5.3808 -6.0707,-8.83 -3.7252,-3.4493 -8.6921,-5.1049 -4.8289,-1.6556 -9.9338,-1.6556 -5.1049,0 -10.0718,1.6556 -4.8289,1.6556 -8.6921,5.1049 -3.7252,3.4492 -6.0707,8.83 -2.2075,5.3809 -2.2075,12.6933 0,7.3124 2.3455,12.6932 2.3455,5.3808 6.0707,8.968 3.8631,3.4493 8.6921,5.1049 4.8289,1.6556 9.9338,1.6556 z"
       style="font-style:normal;font-variant:normal;font-weight:normal;font-stretch:normal;font-size:137.96980286px;font-family:'La chata';-inkscape-font-specification:'La chata';text-align:center;writing-mode:lr-tb;text-anchor:middle;fill:#1b1b1b;fill-opacity:1"
       id="path3362" />
    <path
       d="m 1666.7475,1755.3248 q 0.9658,1.9316 2.7594,1.9316 1.1037,0 2.0695,-0.6898 4.9669,-3.4493 10.7617,-5.1049 5.7947,-1.7936 11.8654,-1.7936 7.0364,0 13.9349,2.4834 6.8985,2.3455 12.2793,7.3124 5.5188,4.829 8.8301,12.2793 3.3113,7.4504 3.3113,17.5222 l 0,32.2849 q 0,2.3455 -1.7936,3.5872 -1.6557,1.2418 -3.8632,1.2418 -2.2075,0 -4.0011,-1.2418 -1.6557,-1.2417 -1.6557,-3.5872 l 0,-32.1469 q 0,-7.4504 -2.3454,-12.6933 -2.2076,-5.3808 -6.0707,-8.83 -3.7252,-3.5872 -8.6921,-5.2429 -4.829,-1.6556 -9.9338,-1.6556 -5.1049,0 -9.9339,1.6556 -4.8289,1.6557 -8.6921,5.1049 -3.7251,3.4493 -6.0706,8.8301 -2.3455,5.2428 -2.3455,12.5552 l 0,32.4229 q 0,2.3455 -1.7936,3.5872 -1.6557,1.2418 -3.8632,1.2418 -2.2075,0 -4.0011,-1.2418 -1.6556,-1.2417 -1.6556,-3.5872 l 0,-63.604 q 0,-2.4835 1.6556,-4.0012 1.7936,-1.6556 4.0011,-1.6556 3.8632,0 5.2429,3.0353 z"
       style="font-style:normal;font-variant:normal;font-weight:normal;font-stretch:normal;font-size:137.96980286px;font-family:'La chata';-inkscape-font-specification:'La chata';text-align:center;writing-mode:lr-tb;text-anchor:middle;fill:#1b1b1b;fill-opacity:1"
       id="path3364" />
  </g>
  <g
     transform="matrix(0.81915204,-0.57357644,0.57357644,0.81915204,0,0)"
     style="font-style:normal;font-weight:normal;font-size:45.15558624px;line-height:125%;font-family:sans-serif;letter-spacing:0px;word-spacing:0px;fill:#000000;fill-opacity:1;stroke:none;stroke-width:0;stroke-linecap:butt;stroke-linejoin:miter;stroke-miterlimit:4;stroke-dasharray:none;stroke-opacity:1"
     id="text3348">
    <path
       d="m 1404.0221,2029.8313 q 0,2.6811 0.7761,4.5861 0.8466,1.905 2.1872,3.175 1.3405,1.1994 3.1044,1.8344 1.7639,0.5645 3.5984,0.5645 1.8344,0 3.5278,-0.5645 1.7638,-0.635 3.1044,-1.8344 1.3406,-1.27 2.1167,-3.175 0.8466,-1.905 0.8466,-4.5861 l 0,-38.5234 q 0,-1.1994 0.8467,-1.8344 0.9172,-0.635 2.0461,-0.635 1.1289,0 1.9756,0.635 0.9172,0.635 0.9172,1.8344 l 0,38.5234 q 0,4.0216 -1.3406,7.0555 -1.3405,2.9634 -3.5277,4.9389 -2.1873,1.9756 -4.9389,2.9634 -2.7517,0.9877 -5.5739,0.9877 -3.1045,0 -6.0678,-1.1288 -2.8928,-1.1289 -5.1506,-3.3867 -1.3405,-1.3406 -2.6811,0 -2.2578,2.2578 -5.2211,3.3867 -2.8928,1.1288 -5.9267,1.1288 -2.8927,0 -5.6444,-0.9877 -2.7517,-0.9878 -4.9389,-2.9634 -2.1167,-1.9755 -3.4572,-4.9389 -1.3406,-3.0339 -1.3406,-7.0555 l 0,-38.5234 q 0,-1.1994 0.8467,-1.8344 0.9172,-0.635 2.0461,-0.635 1.1289,0 1.9756,0.635 0.9172,0.635 0.9172,1.8344 l 0,38.5234 q 0,2.6811 0.7761,4.5861 0.8467,1.905 2.1872,3.175 1.3406,1.1994 3.0339,1.8344 1.7639,0.5645 3.5983,0.5645 1.8345,0 3.5278,-0.5645 1.7639,-0.635 3.1045,-1.8344 1.3405,-1.27 2.1166,-3.175 0.8467,-1.905 0.8467,-4.5861 l 0,-15.3811 q 0,-1.1995 0.8467,-1.8345 0.9172,-0.635 2.0461,-0.635 1.1994,0 2.0461,0.635 0.8467,0.635 0.8467,1.8345 l 0,15.3811 z"
       style="font-style:normal;font-variant:normal;font-weight:normal;font-stretch:normal;font-size:70.55560303px;font-family:'La chata';-inkscape-font-specification:'La chata';text-align:center;text-anchor:middle;fill:#1b1b1b;fill-opacity:1;stroke-width:0;stroke-miterlimit:4;stroke-dasharray:none"
       id="path3367" />
    <path
       d="m 1478.2686,2026.3035 q 0,1.0583 -0.7056,1.905 -0.635,0.8467 -1.7638,1.0583 l -29.3512,4.6567 q 1.8345,3.5983 5.1506,5.2917 3.3161,1.6933 7.0555,1.6933 3.2456,0 6.1384,-1.27 0.1411,-0.071 0.4939,-0.2117 0.4233,-0.1411 0.9172,0 0.5644,0.071 1.1289,0.4939 0.5644,0.3528 0.9878,1.3406 0.4938,0.9878 0.2116,2.0461 -0.2116,1.0583 -1.4111,1.6228 -3.9511,1.7639 -8.4667,1.7639 -3.5983,0 -7.1261,-1.27 -3.5278,-1.1995 -6.2794,-3.7395 -2.7517,-2.54 -4.5156,-6.35 -1.6933,-3.81 -1.6933,-8.9605 0,-5.1506 1.6933,-8.9606 1.6933,-3.81 4.445,-6.2795 2.8222,-2.54 6.35,-3.7394 3.5278,-1.27 7.1261,-1.27 3.5984,0 7.0556,1.27 3.5278,1.1994 6.2794,3.7394 2.8223,2.4695 4.5156,6.2795 1.7639,3.7394 1.7639,8.89 z m -32.4556,1.8344 25.6823,-4.0922 q 0.4233,-0.07 0.5644,-0.4233 0.2117,-0.3528 0.1411,-0.7056 -0.5644,-2.8222 -1.905,-4.8683 -1.27,-2.1167 -3.1044,-3.4572 -1.8345,-1.4111 -4.0923,-2.0461 -2.1872,-0.635 -4.445,-0.635 -2.6811,0 -5.1505,0.8466 -2.4695,0.8467 -4.445,2.6106 -1.905,1.7639 -3.1045,4.5155 -1.1289,2.7517 -1.1289,6.4912 l 0,0.9877 q 0.1412,0.9173 0.9878,0.7761 z"
       style="font-style:normal;font-variant:normal;font-weight:normal;font-stretch:normal;font-size:70.55560303px;font-family:'La chata';-inkscape-font-specification:'La chata';text-align:center;text-anchor:middle;fill:#1b1b1b;fill-opacity:1;stroke-width:0;stroke-miterlimit:4;stroke-dasharray:none"
       id="path3369" />
    <path
       d="m 1494.9914,2009.7935 q 0.4233,0 0.9172,-0.3528 2.54,-1.7639 5.5033,-2.6105 2.9634,-0.9173 6.0678,-0.9173 3.5984,0 7.1261,1.27 3.5278,1.1995 6.2795,3.7395 2.7517,2.54 4.445,6.35 1.7639,3.81 1.7639,8.9605 0,5.1506 -1.6934,8.9606 -1.6933,3.81 -4.5155,6.35 -2.7517,2.4695 -6.2795,3.6689 -3.5277,1.27 -7.1261,1.27 -3.1044,0 -6.0678,-0.8467 -2.9633,-0.8466 -5.5033,-2.6811 -0.4939,-0.3528 -1.0583,-0.3528 -0.4939,0 -0.9173,0.4234 -0.3527,0.3528 -0.635,0.7761 -0.7055,1.3405 -2.54,1.3405 -1.1994,0 -2.0461,-0.7055 -0.8466,-0.7761 -0.8466,-1.9756 l 0,-51.9994 q 0,-1.1995 0.8466,-1.7639 0.9173,-0.5645 2.0461,-0.5645 1.1289,0 1.9756,0.5645 0.9172,0.5644 0.9172,1.7639 l 0,18.0622 q 0,0.5644 0.3528,0.9172 0.3528,0.3528 0.9878,0.3528 l 0,0 z m 12.4883,30.9033 q 2.6106,0 5.08,-0.8466 2.54,-0.8467 4.445,-2.6106 1.9756,-1.7639 3.1045,-4.5155 1.1994,-2.7517 1.1994,-6.4912 0,-3.81 -1.1994,-6.4911 -1.1289,-2.7516 -3.1045,-4.5155 -1.905,-1.8345 -4.445,-2.6811 -2.4694,-0.8467 -5.08,-0.8467 -2.6105,0 -5.1505,0.8467 -2.4695,0.8466 -4.445,2.6811 -1.905,1.7639 -3.1045,4.5155 -1.1289,2.6811 -1.1289,6.4911 0,3.7395 1.1289,6.4912 1.1995,2.7516 3.1045,4.5155 1.9755,1.7639 4.445,2.6106 2.54,0.8466 5.1505,0.8466 z"
       style="font-style:normal;font-variant:normal;font-weight:normal;font-stretch:normal;font-size:70.55560303px;font-family:'La chata';-inkscape-font-specification:'La chata';text-align:center;text-anchor:middle;fill:#1b1b1b;fill-opacity:1;stroke-width:0;stroke-miterlimit:4;stroke-dasharray:none"
       id="path3371" />
    <path
       d="m 1563.5196,1991.3079 q 0,-1.1994 0.8467,-1.8344 0.9172,-0.635 2.0461,-0.635 l 11.43,0 q 3.6689,0 7.1967,1.27 3.5278,1.1994 6.2794,3.7394 2.7517,2.4695 4.445,6.2795 1.6934,3.81 1.6934,8.9605 l 0,15.4517 q 0,5.1506 -1.6934,8.9606 -1.6933,3.81 -4.445,6.35 -2.7516,2.4694 -6.2794,3.7394 -3.5278,1.1995 -7.1967,1.1995 l -11.43,0 q -1.1289,0 -2.0461,-0.635 -0.8467,-0.635 -0.8467,-1.8345 l 0,-51.0117 z m 5.7856,4.445 0,42.1217 q 0,1.1289 1.1289,1.1289 l 7.4083,0 q 2.6106,0 5.08,-0.8467 2.54,-0.8466 4.445,-2.6105 1.9756,-1.7639 3.1045,-4.5156 1.1994,-2.7516 1.1994,-6.4911 l 0,-15.4517 q 0,-3.7394 -1.1994,-6.4911 -1.1289,-2.7517 -3.1045,-4.5155 -1.905,-1.7639 -4.445,-2.6106 -2.4694,-0.8467 -5.08,-0.8467 l -7.4083,0 q -1.1289,0 -1.1289,1.1289 z"
       style="font-style:normal;font-variant:normal;font-weight:normal;font-stretch:normal;font-size:70.55560303px;font-family:'La chata';-inkscape-font-specification:'La chata';text-align:center;text-anchor:middle;fill:#1b1b1b;fill-opacity:1;stroke-width:0;stroke-miterlimit:4;stroke-dasharray:none"
       id="path3373" />
    <path
       d="m 1646.2516,2026.3035 q 0,1.0583 -0.7056,1.905 -0.635,0.8467 -1.7639,1.0583 l -29.3511,4.6567 q 1.8344,3.5983 5.1505,5.2917 3.3162,1.6933 7.0556,1.6933 3.2456,0 6.1383,-1.27 0.1412,-0.071 0.4939,-0.2117 0.4234,-0.1411 0.9173,0 0.5644,0.071 1.1288,0.4939 0.5645,0.3528 0.9878,1.3406 0.4939,0.9878 0.2117,2.0461 -0.2117,1.0583 -1.4111,1.6228 -3.9511,1.7639 -8.4667,1.7639 -3.5983,0 -7.1261,-1.27 -3.5278,-1.1995 -6.2795,-3.7395 -2.7516,-2.54 -4.5155,-6.35 -1.6934,-3.81 -1.6934,-8.9605 0,-5.1506 1.6934,-8.9606 1.6933,-3.81 4.445,-6.2795 2.8222,-2.54 6.35,-3.7394 3.5278,-1.27 7.1261,-1.27 3.5983,0 7.0556,1.27 3.5277,1.1994 6.2794,3.7394 2.8222,2.4695 4.5156,6.2795 1.7639,3.7394 1.7639,8.89 z m -32.4556,1.8344 25.6822,-4.0922 q 0.4234,-0.07 0.5645,-0.4233 0.2116,-0.3528 0.1411,-0.7056 -0.5645,-2.8222 -1.905,-4.8683 -1.27,-2.1167 -3.1045,-3.4572 -1.8344,-1.4111 -4.0922,-2.0461 -2.1872,-0.635 -4.445,-0.635 -2.6811,0 -5.1506,0.8466 -2.4694,0.8467 -4.445,2.6106 -1.905,1.7639 -3.1044,4.5155 -1.1289,2.7517 -1.1289,6.4912 l 0,0.9877 q 0.1411,0.9173 0.9878,0.7761 z"
       style="font-style:normal;font-variant:normal;font-weight:normal;font-stretch:normal;font-size:70.55560303px;font-family:'La chata';-inkscape-font-specification:'La chata';text-align:center;text-anchor:middle;fill:#1b1b1b;fill-opacity:1;stroke-width:0;stroke-miterlimit:4;stroke-dasharray:none"
       id="path3375" />
    <path
       d="m 1679.7666,2008.7352 q 0.4233,-1.1289 1.4817,-1.3406 1.1288,-0.2822 2.1166,0.1411 1.0584,0.4233 1.6228,1.4111 0.5644,0.9172 0.071,2.0461 l -14.0406,32.7378 q -0.3528,0.7761 -1.0583,1.0584 -0.7056,0.2822 -1.5523,0.2822 -0.9172,0 -1.6227,-0.2822 -0.7056,-0.2823 -1.0584,-1.0584 l -13.8994,-32.8789 q -0.4939,-1.1289 0.07,-2.0461 0.5645,-0.9172 1.6228,-1.3405 0.9878,-0.4234 2.0461,-0.2117 1.0584,0.2117 1.5522,1.3405 l 11.2889,26.5995 11.3595,-26.4583 z"
       style="font-style:normal;font-variant:normal;font-weight:normal;font-stretch:normal;font-size:70.55560303px;font-family:'La chata';-inkscape-font-specification:'La chata';text-align:center;text-anchor:middle;fill:#1b1b1b;fill-opacity:1;stroke-width:0;stroke-miterlimit:4;stroke-dasharray:none"
       id="path3377" />
    <path
       d="m 1731.1388,2026.3035 q 0,1.0583 -0.7056,1.905 -0.635,0.8467 -1.7639,1.0583 l -29.3511,4.6567 q 1.8344,3.5983 5.1505,5.2917 3.3162,1.6933 7.0556,1.6933 3.2456,0 6.1383,-1.27 0.1412,-0.071 0.4939,-0.2117 0.4234,-0.1411 0.9173,0 0.5644,0.071 1.1288,0.4939 0.5645,0.3528 0.9878,1.3406 0.4939,0.9878 0.2117,2.0461 -0.2117,1.0583 -1.4111,1.6228 -3.9511,1.7639 -8.4667,1.7639 -3.5983,0 -7.1261,-1.27 -3.5278,-1.1995 -6.2795,-3.7395 -2.7516,-2.54 -4.5155,-6.35 -1.6933,-3.81 -1.6933,-8.9605 0,-5.1506 1.6933,-8.9606 1.6933,-3.81 4.445,-6.2795 2.8222,-2.54 6.35,-3.7394 3.5278,-1.27 7.1261,-1.27 3.5983,0 7.0556,1.27 3.5277,1.1994 6.2794,3.7394 2.8222,2.4695 4.5156,6.2795 1.7639,3.7394 1.7639,8.89 z m -32.4556,1.8344 25.6822,-4.0922 q 0.4234,-0.07 0.5645,-0.4233 0.2116,-0.3528 0.1411,-0.7056 -0.5645,-2.8222 -1.905,-4.8683 -1.27,-2.1167 -3.1045,-3.4572 -1.8344,-1.4111 -4.0922,-2.0461 -2.1872,-0.635 -4.445,-0.635 -2.6811,0 -5.1505,0.8466 -2.4695,0.8467 -4.4451,2.6106 -1.905,1.7639 -3.1044,4.5155 -1.1289,2.7517 -1.1289,6.4912 l 0,0.9877 q 0.1411,0.9173 0.9878,0.7761 z"
       style="font-style:normal;font-variant:normal;font-weight:normal;font-stretch:normal;font-size:70.55560303px;font-family:'La chata';-inkscape-font-specification:'La chata';text-align:center;text-anchor:middle;fill:#1b1b1b;fill-opacity:1;stroke-width:0;stroke-miterlimit:4;stroke-dasharray:none"
       id="path3379" />
    <path
       d="m 1739.8888,2026.1624 0,-35.56 q 0,-1.1995 0.8466,-1.8345 0.8467,-0.635 2.0462,-0.635 1.1994,0 2.0461,0.635 0.8466,0.635 0.8466,1.8345 l 0,35.56 q 0,3.81 1.1289,6.5617 1.1995,2.6811 3.1045,4.5155 1.9755,1.7639 4.445,2.6106 2.54,0.8466 5.1505,0.8466 1.1995,0 1.8345,0.9173 0.7055,0.8466 0.7055,1.9755 0,1.1289 -0.7055,1.9756 -0.635,0.9172 -1.8345,0.9172 -3.5983,0 -7.1261,-1.27 -3.5278,-1.1994 -6.2794,-3.7394 -2.7517,-2.54 -4.5156,-6.3501 -1.6933,-3.81 -1.6933,-8.9605 z"
       style="font-style:normal;font-variant:normal;font-weight:normal;font-stretch:normal;font-size:70.55560303px;font-family:'La chata';-inkscape-font-specification:'La chata';text-align:center;text-anchor:middle;fill:#1b1b1b;fill-opacity:1;stroke-width:0;stroke-miterlimit:4;stroke-dasharray:none"
       id="path3381" />
    <path
       d="m 1787.0343,2046.4824 q -3.5984,0 -7.1262,-1.27 -3.5277,-1.1994 -6.2794,-3.7394 -2.7517,-2.54 -4.5156,-6.3501 -1.6933,-3.81 -1.6933,-8.9605 0,-5.1506 1.6933,-8.9606 1.6934,-3.81 4.445,-6.2794 2.8223,-2.54 6.35,-3.7395 3.5278,-1.27 7.1262,-1.27 3.6689,0 7.1966,1.27 3.5278,1.1995 6.2795,3.7395 2.7517,2.4694 4.445,6.2794 1.6933,3.81 1.6933,8.9606 0,5.1505 -1.6933,8.9605 -1.6933,3.8101 -4.5156,6.3501 -2.7516,2.54 -6.2794,3.7394 -3.5278,1.27 -7.1261,1.27 z m 0,-5.7856 q 2.6105,0 5.08,-0.8466 2.54,-0.8467 4.445,-2.6106 1.9755,-1.8344 3.1044,-4.5861 1.1995,-2.7517 1.1995,-6.4911 0,-3.7395 -1.1995,-6.4911 -1.1289,-2.7517 -3.1044,-4.5156 -1.905,-1.7639 -4.445,-2.6105 -2.4695,-0.8467 -5.08,-0.8467 -2.6106,0 -5.1506,0.8467 -2.4694,0.8466 -4.445,2.6105 -1.905,1.7639 -3.1044,4.5156 -1.1289,2.7516 -1.1289,6.4911 0,3.7394 1.1994,6.4911 1.1995,2.7517 3.1045,4.5861 1.9755,1.7639 4.445,2.6106 2.4694,0.8466 5.08,0.8466 z"
       style="font-style:normal;font-variant:normal;font-weight:normal;font-stretch:normal;font-size:70.55560303px;font-family:'La chata';-inkscape-font-specification:'La chata';text-align:center;text-anchor:middle;fill:#1b1b1b;fill-opacity:1;stroke-width:0;stroke-miterlimit:4;stroke-dasharray:none"
       id="path3383" />
    <path
       d="m 1824.2722,2042.6018 q -0.5645,0 -0.9172,0.3528 -0.3528,0.3528 -0.3528,0.9172 l 0,17.4273 q 0,1.1994 -0.9172,1.7639 -0.8467,0.5644 -1.9756,0.5644 -1.1289,0 -2.0461,-0.5644 -0.8467,-0.5645 -0.8467,-1.7639 l 0,-51.3645 q 0,-1.1994 0.8467,-1.905 0.8467,-0.7761 2.0461,-0.7761 1.8344,0 2.54,1.3405 0.2822,0.4234 0.635,0.8467 0.4233,0.3528 0.9172,0.3528 0.5645,0 1.0584,-0.3528 2.54,-1.8344 5.5033,-2.6811 2.9633,-0.8467 6.0678,-0.8467 3.5983,0 7.1261,1.27 3.5278,1.1995 6.2794,3.7395 2.8223,2.4694 4.5156,6.2794 1.6933,3.81 1.6933,8.9606 0,5.1505 -1.7639,8.9605 -1.6933,3.8101 -4.445,6.3501 -2.7516,2.54 -6.2794,3.7394 -3.5278,1.27 -7.1261,1.27 -3.1045,0 -6.0678,-0.9172 -2.9633,-0.8467 -5.5033,-2.6106 -0.4939,-0.3528 -0.9878,-0.3528 z m 12.5589,-30.9033 q -2.6106,0 -5.1506,0.8467 -2.4694,0.8466 -4.445,2.6105 -1.905,1.7639 -3.1044,4.5156 -1.1289,2.7516 -1.1289,6.4911 0,3.81 1.1289,6.5617 1.1994,2.6811 3.1044,4.5155 1.9756,1.7639 4.445,2.6106 2.54,0.8466 5.1506,0.8466 2.6105,0 5.08,-0.8466 2.54,-0.8467 4.445,-2.6106 1.9755,-1.8344 3.1044,-4.5155 1.1995,-2.7517 1.1995,-6.5617 0,-3.7395 -1.1995,-6.4911 -1.1289,-2.7517 -3.1044,-4.5156 -1.905,-1.7639 -4.3745,-2.6105 -2.4694,-0.8467 -5.1505,-0.8467 z"
       style="font-style:normal;font-variant:normal;font-weight:normal;font-stretch:normal;font-size:70.55560303px;font-family:'La chata';-inkscape-font-specification:'La chata';text-align:center;text-anchor:middle;fill:#1b1b1b;fill-opacity:1;stroke-width:0;stroke-miterlimit:4;stroke-dasharray:none"
       id="path3385" />
    <path
       d="m 1872.6016,2008.3824 q 0.2117,0.4233 0.635,0.9172 0.4234,0.4233 0.9878,0.4233 0.5645,0 1.0584,-0.3527 2.54,-1.8345 5.5033,-2.6812 2.9633,-0.8466 6.0678,-0.8466 4.8683,0 9.3839,2.1872 4.5861,2.1872 7.3378,6.7733 2.7516,-4.5861 7.2672,-6.7733 4.5861,-2.1872 9.4544,-2.1872 3.5984,0 7.1261,1.27 3.5278,1.1994 6.2795,3.7394 2.7517,2.4695 4.445,6.35 1.7639,3.81 1.7639,8.9606 l 0,16.4394 q 0,1.1995 -0.9172,1.8345 -0.8467,0.635 -1.9756,0.635 -1.1289,0 -2.0461,-0.635 -0.8467,-0.635 -0.8467,-1.8345 l 0,-16.51 q 0,-3.7394 -1.1994,-6.4911 -1.1289,-2.7517 -3.1045,-4.5155 -1.905,-1.7639 -4.445,-2.6106 -2.4694,-0.8467 -5.08,-0.8467 -2.6811,0 -5.1505,0.8467 -2.4695,0.8467 -4.445,2.6106 -1.905,1.7638 -3.1045,4.5155 -1.1289,2.7517 -1.1289,6.4911 l 0,16.51 q 0,1.1995 -0.9172,1.8345 -0.8467,0.635 -1.9755,0.635 -1.1289,0 -2.0462,-0.635 -0.8466,-0.635 -0.8466,-1.8345 l 0,-16.4394 q 0,-3.81 -1.1995,-6.4911 -1.1289,-2.7517 -3.1044,-4.5156 -1.905,-1.8344 -4.445,-2.6811 -2.4695,-0.8467 -5.08,-0.8467 -2.6106,0 -5.08,0.8467 -2.4695,0.8467 -4.445,2.6106 -1.905,1.7638 -3.1045,4.5155 -1.1994,2.6811 -1.1994,6.4206 l 0,16.5805 q 0,1.1995 -0.9172,1.8345 -0.8467,0.635 -1.9756,0.635 -1.1289,0 -2.0461,-0.635 -0.8467,-0.635 -0.8467,-1.8345 l 0,-32.9494 q 0,-0.8467 0.7761,-1.6228 0.7761,-0.8467 2.1167,-0.8467 0.7761,0 1.4111,0.2823 0.7056,0.2116 1.0583,0.9172 z"
       style="font-style:normal;font-variant:normal;font-weight:normal;font-stretch:normal;font-size:70.55560303px;font-family:'La chata';-inkscape-font-specification:'La chata';text-align:center;text-anchor:middle;fill:#1b1b1b;fill-opacity:1;stroke-width:0;stroke-miterlimit:4;stroke-dasharray:none"
       id="path3387" />
    <path
       d="m 1989.1077,2026.3035 q 0,1.0583 -0.7056,1.905 -0.635,0.8467 -1.7638,1.0583 l -29.3512,4.6567 q 1.8345,3.5983 5.1506,5.2917 3.3161,1.6933 7.0555,1.6933 3.2456,0 6.1384,-1.27 0.1411,-0.071 0.4939,-0.2117 0.4233,-0.1411 0.9172,0 0.5644,0.071 1.1289,0.4939 0.5644,0.3528 0.9878,1.3406 0.4938,0.9878 0.2116,2.0461 -0.2116,1.0583 -1.4111,1.6228 -3.9511,1.7639 -8.4667,1.7639 -3.5983,0 -7.1261,-1.27 -3.5278,-1.1995 -6.2794,-3.7395 -2.7517,-2.54 -4.5156,-6.35 -1.6933,-3.81 -1.6933,-8.9605 0,-5.1506 1.6933,-8.9606 1.6934,-3.81 4.445,-6.2795 2.8222,-2.54 6.35,-3.7394 3.5278,-1.27 7.1261,-1.27 3.5984,0 7.0556,1.27 3.5278,1.1994 6.2795,3.7394 2.8222,2.4695 4.5155,6.2795 1.7639,3.7394 1.7639,8.89 z m -32.4556,1.8344 25.6823,-4.0922 q 0.4233,-0.07 0.5644,-0.4233 0.2117,-0.3528 0.1411,-0.7056 -0.5644,-2.8222 -1.905,-4.8683 -1.27,-2.1167 -3.1044,-3.4572 -1.8345,-1.4111 -4.0923,-2.0461 -2.1872,-0.635 -4.445,-0.635 -2.6811,0 -5.1505,0.8466 -2.4695,0.8467 -4.445,2.6106 -1.905,1.7639 -3.1045,4.5155 -1.1289,2.7517 -1.1289,6.4912 l 0,0.9877 q 0.1412,0.9173 0.9878,0.7761 z"
       style="font-style:normal;font-variant:normal;font-weight:normal;font-stretch:normal;font-size:70.55560303px;font-family:'La chata';-inkscape-font-specification:'La chata';text-align:center;text-anchor:middle;fill:#1b1b1b;fill-opacity:1;stroke-width:0;stroke-miterlimit:4;stroke-dasharray:none"
       id="path3389" />
    <path
       d="m 2004.9673,2008.7352 q 0.4939,0.9877 1.4111,0.9877 0.5645,0 1.0583,-0.3527 2.54,-1.7639 5.5034,-2.6106 2.9633,-0.9172 6.0678,-0.9172 3.5983,0 7.1261,1.27 3.5278,1.1994 6.2794,3.7394 2.8223,2.4695 4.5156,6.2795 1.6933,3.81 1.6933,8.9605 l 0,16.51 q 0,1.1995 -0.9172,1.8345 -0.8467,0.635 -1.9756,0.635 -1.1288,0 -2.0461,-0.635 -0.8466,-0.635 -0.8466,-1.8345 l 0,-16.4394 q 0,-3.81 -1.1995,-6.4911 -1.1289,-2.7517 -3.1044,-4.5156 -1.905,-1.8344 -4.445,-2.6811 -2.4695,-0.8467 -5.08,-0.8467 -2.6106,0 -5.08,0.8467 -2.4695,0.8467 -4.445,2.6106 -1.905,1.7638 -3.1045,4.5155 -1.1994,2.6811 -1.1994,6.4206 l 0,16.5805 q 0,1.1995 -0.9173,1.8345 -0.8466,0.635 -1.9755,0.635 -1.1289,0 -2.0461,-0.635 -0.8467,-0.635 -0.8467,-1.8345 l 0,-32.5261 q 0,-1.27 0.8467,-2.0461 0.9172,-0.8467 2.0461,-0.8467 1.9755,0 2.6811,1.5523 z"
       style="font-style:normal;font-variant:normal;font-weight:normal;font-stretch:normal;font-size:70.55560303px;font-family:'La chata';-inkscape-font-specification:'La chata';text-align:center;text-anchor:middle;fill:#1b1b1b;fill-opacity:1;stroke-width:0;stroke-miterlimit:4;stroke-dasharray:none"
       id="path3391" />
    <path
       d="m 2057.7892,2026.1624 q 0,3.7394 1.1289,6.4911 1.1994,2.7517 3.1044,4.5861 1.9756,1.7639 4.445,2.6106 2.54,0.8466 5.1506,0.8466 1.1994,0 1.8344,0.9173 0.7056,0.8466 0.7056,1.9755 0,1.1289 -0.7056,1.9756 -0.635,0.9172 -1.8344,0.9172 -3.5984,0 -7.1261,-1.27 -3.5278,-1.1994 -6.2795,-3.7394 -2.7517,-2.54 -4.5156,-6.3501 -1.6933,-3.81 -1.6933,-8.9605 l 0,-11.5006 q 0,-1.0583 -0.7761,-1.7639 -0.7056,-0.7055 -1.6933,-0.7055 l -2.3989,0 q -0.9878,0 -1.5522,-0.7056 -0.4939,-0.7761 -0.4939,-1.7639 0,-0.9877 0.4939,-1.6933 0.5644,-0.7761 1.5522,-0.7761 l 2.3989,0 q 0.9877,0 1.6933,-0.7056 0.7761,-0.7761 0.7761,-1.7639 l 0,-14.2522 q 0,-1.1994 0.8467,-1.8344 0.9172,-0.635 2.0461,-0.635 1.1289,0 1.9755,0.635 0.9173,0.635 0.9173,1.8344 l 0,14.2522 q 0,0.9878 0.7055,1.7639 0.7761,0.7056 1.7639,0.7056 l 8.6784,0 q 0.9877,0 1.5522,0.7761 0.5644,0.7056 0.5644,1.6933 0,0.9878 -0.5644,1.7639 -0.5645,0.7056 -1.5522,0.7056 l -8.6784,0 q -0.9878,0 -1.7639,0.7055 -0.7055,0.7056 -0.7055,1.7639 l 0,11.5006 z"
       style="font-style:normal;font-variant:normal;font-weight:normal;font-stretch:normal;font-size:70.55560303px;font-family:'La chata';-inkscape-font-specification:'La chata';text-align:center;text-anchor:middle;fill:#1b1b1b;fill-opacity:1;stroke-width:0;stroke-miterlimit:4;stroke-dasharray:none"
       id="path3393" />
  </g>
</svg>
