<?xml version="1.0" encoding="UTF-8" standalone="no"?>
<svg
   xmlns:dc="http://purl.org/dc/elements/1.1/"
   xmlns:cc="http://creativecommons.org/ns#"
   xmlns:rdf="http://www.w3.org/1999/02/22-rdf-syntax-ns#"
   xmlns:svg="http://www.w3.org/2000/svg"
   xmlns="http://www.w3.org/2000/svg"
   xmlns:sodipodi="http://sodipodi.sourceforge.net/DTD/sodipodi-0.dtd"
   xmlns:inkscape="http://www.inkscape.org/namespaces/inkscape"
   sodipodi:docname="background.svg"
   inkscape:version="1.0rc1 (09960d6, 2020-04-09)"
   height="669.918mm"
   width="959.586mm"
   version="1.1"
   viewBox="0 0 3400.1079 2373.7251"
   id="svg2">
  <sodipodi:namedview
     inkscape:document-rotation="0"
     inkscape:current-layer="svg2"
     inkscape:window-maximized="1"
     inkscape:window-y="23"
     inkscape:window-x="0"
     inkscape:cy="1192.3699"
     inkscape:cx="1778.8137"
     inkscape:zoom="0.31763698"
     showgrid="false"
     id="namedview13"
     inkscape:window-height="1395"
     inkscape:window-width="2560"
     inkscape:pageshadow="2"
     inkscape:pageopacity="0"
     guidetolerance="10"
     gridtolerance="10"
     objecttolerance="10"
     borderopacity="1"
     bordercolor="#666666"
     pagecolor="#ffffff" />
  <metadata
     id="metadata16">
    <rdf:RDF>
      <cc:Work
         rdf:about="">
        <dc:format>image/svg+xml</dc:format>
        <dc:type
           rdf:resource="http://purl.org/dc/dcmitype/StillImage" />
        <dc:title></dc:title>
      </cc:Work>
    </rdf:RDF>
  </metadata>
  <defs
     id="defs14" />
  <g
     transform="matrix(0.82991486,0.07260814,-0.07260814,0.82991486,658.53783,520.24574)"
     id="g4">
    <g
       transform="matrix(1.25,0,0,-1.25,-604.7666,2049.652)"
       id="g6">
      <path
         inkscape:connector-curvature="0"
         d="m 947.977,1897.941 2.23,-2.41 c 1.664,-1.809 369.219,-526.312 386.848,-552.031 3.101,-4.528 4.234,-8.91 2.3,-8.91 -0.886,0 -19.535,3.171 -51.812,8.804 -8.461,1.477 -20.91,3.641 -27.68,4.805 -22.843,3.941 -43.871,7.578 -56.238,9.734 -6.77,1.184 -24.969,4.328 -40.434,6.989 -15.468,2.664 -33.668,5.828 -40.433,7.035 -6.77,1.207 -22.586,3.953 -35.156,6.101 -20.469,3.5 -104.262,17.989 -122.153,21.118 -3.867,0.679 -12.765,2.23 -19.773,3.449 -7.012,1.219 -22.043,3.832 -33.403,5.812 -11.355,1.985 -29.742,5.157 -40.859,7.051 -39.562,6.738 -45.352,7.887 -48.762,9.629 -1.902,0.969 -4.312,1.754 -5.355,1.754 -1.047,0 -12.703,-7.547 -25.895,-16.77 -27.082,-18.937 -27.293,-19.156 -24.32,-26.074 0.984,-2.297 4.356,-12.277 7.477,-22.187 4.695,-14.907 27.527,-86.5 50.457,-158.192 2.707,-8.461 7.187,-22.504 9.949,-31.203 2.758,-8.699 8.879,-27.871 13.594,-42.613 4.714,-14.746 10.449,-32.742 12.738,-39.992 2.293,-7.25 12.762,-40.079 23.285,-72.95 10.523,-32.867 21.406,-66.886 24.168,-75.586 10.613,-33.414 16.777,-52.781 25.07,-78.652 4.723,-14.746 10.278,-32.141 12.328,-38.664 2.051,-6.527 7.946,-25.051 13.106,-41.168 8.156,-25.469 9.226,-29.531 8.223,-30.988 C 966.844,750.91 883.668,692.308 782.645,621.594 139.312,171.254 5.395,77.344 2.449,74.508 0.637,72.761 -0.828,70.523 -0.801,69.531 -0.77,68.543 6.645,57.258 15.68,44.449 28.945,25.64 32.535,21.113 34.309,20.906 c 1.3,-0.152 4.175,0.938 7.035,2.672 2.656,1.609 87.871,61.086 189.379,132.16 101.507,71.078 300.05,210.082 441.195,308.91 1025.359,717.973 1013.09,709.41 1014.508,708.516 0.801,-0.508 3.867,-8.688 7.219,-19.258 10.14,-31.961 27.48,-86.309 38.097,-119.437 3.254,-10.153 11.453,-35.856 18.219,-57.125 21.562,-67.79 31.496,-98.961 35.887,-112.497 2.351,-7.25 8.101,-25.246 12.769,-39.992 4.668,-14.742 10.598,-33.324 13.184,-41.301 5.226,-16.125 44.945,-140.707 53.707,-168.46 3.078,-9.758 5.601,-18.301 5.601,-18.997 0,-3.601 -1.539,-3.488 -38.375,2.914 -19.742,3.43 -40.441,7.016 -46.004,7.981 -5.558,0.961 -14.457,2.508 -19.773,3.43 -5.316,0.925 -24.687,4.281 -43.055,7.461 -18.371,3.183 -37.757,6.55 -43.074,7.476 -23.484,4.102 -101.555,17.578 -106.332,18.356 -2.898,0.472 -12,2.05 -20.219,3.511 -8.215,1.461 -23.246,4.082 -33.398,5.828 -19.977,3.43 -41.184,7.129 -60.633,10.575 -6.769,1.195 -22.988,4.004 -36.039,6.238 -13.051,2.234 -25.504,4.375 -27.68,4.762 -7.98,1.41 -46.382,7.976 -54.058,9.246 -4.348,0.719 -10.129,2.121 -12.86,3.113 -4.297,1.555 -5.261,1.641 -7.113,0.625 -1.176,-0.644 -12.48,-8.426 -25.129,-17.289 -18.058,-12.652 -22.992,-16.508 -22.992,-18.004 0,-1.047 1.324,-4.125 2.961,-6.836 1.633,-2.707 59.312,-85.355 128.164,-183.672 C 1693.184,51.019 1727.852,1.406 1727.852,0.535 c 0,-0.613 26.867,-0.563 40.418,-0.363 l 39.242,0.578 -2.395,3.511 c -1.777,2.614 -100.156,143.079 -218.644,312.34 -151.418,216.305 -215.442,308.418 -215.442,310.012 0,1.246 0.422,2.273 0.934,2.273 0.859,0 14.512,-2.332 51.371,-8.746 15.523,-2.699 39.57,-6.851 56.242,-9.718 5.317,-0.914 16.777,-2.907 25.481,-4.422 8.699,-1.52 28.289,-4.922 43.515,-7.555 15.227,-2.633 33.02,-5.719 39.547,-6.867 6.527,-1.145 22.344,-3.883 35.152,-6.086 31.622,-5.438 82,-14.176 97.547,-16.906 7.008,-1.231 17.094,-2.977 22.41,-3.891 12.129,-2.082 39.95,-6.894 60.637,-10.496 26.832,-4.672 40.996,-7.109 48.778,-8.395 22.468,-3.703 32.933,-5.867 36.027,-7.445 1.898,-0.969 4.297,-1.754 5.324,-1.754 1.027,0 12.684,7.563 25.906,16.813 27.082,18.953 27.27,19.164 24.336,26.031 -0.98,2.297 -5.996,17.422 -11.152,33.613 -17.887,56.164 -22.578,70.821 -27.25,85.246 -2.582,7.977 -8.137,25.371 -12.344,38.664 -4.207,13.293 -9.754,30.704 -12.328,38.676 -4.168,12.914 -42.465,132.942 -54.394,170.492 -2.536,7.977 -7.883,24.786 -11.903,37.352 -4.019,12.566 -9.762,30.566 -12.754,39.992 -9.867,31.082 -27.863,87.43 -48.504,151.906 l -11.918,37.231 2.09,2.027 c 1.149,1.121 12.766,9.512 25.817,18.645 75.328,52.718 734.629,514.336 830.394,581.418 62.766,43.965 115.262,80.519 116.66,81.215 1.399,0.699 2.547,1.425 2.547,1.632 0,0.207 -25.894,0.383 -57.535,0.383 -54.562,0 -57.605,-0.078 -59.094,-1.601 -0.867,-0.883 -63.675,-45.075 -139.566,-98.184 -75.887,-53.113 -249.297,-174.516 -385.367,-269.789 -136.067,-95.277 -403.219,-282.328 -593.664,-415.672 -190.45,-133.34 -371.27,-259.973 -401.832,-281.398 -30.563,-21.43 -56.36,-38.953 -57.325,-38.953 -1.492,0 -2.402,2.109 -6.226,14.281 -2.465,7.851 -6.809,21.402 -9.641,30.101 -2.832,8.703 -8.969,27.887 -13.625,42.633 -4.656,14.742 -10.187,32.137 -12.297,38.66 -2.113,6.528 -5.226,16.215 -6.914,21.532 -1.687,5.316 -8.867,27.855 -15.957,50.089 -7.094,22.235 -14.261,44.789 -15.929,50.11 -4.219,13.426 -14.418,45.246 -20.555,64.14 -2.824,8.704 -6.309,19.579 -7.75,24.172 -1.442,4.59 -8.352,26.34 -15.363,48.336 -7.012,21.992 -14,43.946 -15.52,48.778 -1.519,4.835 -4.48,14.132 -6.59,20.66 -2.109,6.527 -7.844,24.523 -12.758,39.992 -4.91,15.465 -11.234,35.242 -14.05,43.941 -7.989,24.68 -11.43,35.942 -11.43,37.473 0,3.719 1.469,3.641 33.098,-1.891 16.839,-2.945 37.339,-6.5 45.558,-7.906 8.215,-1.402 19.492,-3.348 25.055,-4.316 5.558,-0.969 23.941,-4.164 40.859,-7.094 16.918,-2.934 36.305,-6.285 43.071,-7.461 6.769,-1.176 34.25,-5.91 61.078,-10.516 26.828,-4.601 50.758,-8.761 53.175,-9.246 2.415,-0.48 11.5,-2.09 20.2,-3.57 8.703,-1.477 21.554,-3.688 28.562,-4.91 7.012,-1.223 19.278,-3.356 27.25,-4.731 7.977,-1.379 19.055,-3.308 24.613,-4.289 14.649,-2.586 34.297,-5.996 51.403,-8.91 8.219,-1.398 18.305,-3.129 22.414,-3.859 4.109,-0.731 15.773,-2.754 25.922,-4.485 31.058,-5.297 36.785,-6.422 40.312,-7.906 1.867,-0.785 4.02,-1.187 4.778,-0.898 0.753,0.289 12.179,8.082 25.386,17.316 18.543,12.965 24,17.215 24,18.645 0,1.019 -1.316,4.023 -2.929,6.683 -1.614,2.66 -93.09,133.574 -203.278,290.922 -110.191,157.348 -200.613,286.758 -200.933,287.594 -0.539,1.41 -3.524,1.527 -41.211,1.527 z"
         style="fill:#2e3440;fill-opacity:1"
         id="path8" />
      <path
         sodipodi:nodetypes="ccccscscsccccccsssccccccccccccccccscccccccccccsccsccscsccscccscccscsccccccccccccccscccccccccccccccccccccccc"
         inkscape:connector-curvature="0"
         d="m 470.98755,2612.6201 -30.8345,1.9703 c 3.887,-4.168 899.69895,-1273.7194 901.35095,-1277.4734 2.051,-4.652 35.531,-52.969 40.23,-58.063 1.774,-1.921 3.832,-3.496 4.567,-3.496 1.472,0 5.117,2.442 31.742,21.114 13.762,9.656 18.195,13.191 18.195,14.582 0,1.007 -2.086,5.097 -4.625,9.082 -2.539,3.984 -94.051,134.894 -203.363,290.922 -109.309,156.027 -695.598,999.8465 -695.598,999.8465 l -31.966,3.466 z m 3171.59695,-5.8988 -16.2266,1.8701 -15.2646,0.7161 c 0,0 -1197.4563,-846.9055 -1358.7613,-959.8505 -400.238,-280.246 -786.707,-550.86 -1026.094,-718.485 -109.941,-76.984 -200.652,-139.957 -201.578,-139.957 -2.273,0 -2.445,0.422 -9.098,21.543 -5.539,17.575 -11.429,36.063 -24.671,77.391 -6.207,19.367 -41.536,130.195 -46.813,146.855 -1.683,5.321 -4.785,15.016 -6.898,21.543 -2.118,6.532 -8.055,25.125 -13.192,41.329 -5.14,16.203 -11.48,35.992 -14.078,43.972 -4.73,14.524 -38.851,121.594 -64.062,201.008 -3.696,11.648 -6.731,22.531 -6.731,24.184 -0.004,1.656 -2.629,11.324 -5.847,21.484 -3.223,10.156 -6.106,20.504 -6.415,22.992 -0.308,2.488 -1.121,5.254 -1.8,6.153 -3.477,4.574 -5.774,6.476 -7.864,6.472 -1.496,0 -9.66,-5.211 -24.246,-15.449 -12.09,-8.492 -23.066,-16.469 -24.394,-17.742 -2.715,-2.594 -2.992,-4.489 -1.176,-8 0.684,-1.321 4.5,-12.676 8.488,-25.239 3.989,-12.558 9.512,-29.949 12.274,-38.656 8.629,-27.203 49.113,-154.051 54.031,-169.285 5.215,-16.148 12.785,-39.906 25.512,-80.031 4.679,-14.754 10.629,-33.348 13.222,-41.328 2.594,-7.981 5.7,-17.676 6.903,-21.543 1.199,-3.871 6.988,-22.078 12.855,-40.461 5.867,-18.379 13.238,-41.535 16.395,-51.449 3.156,-9.914 7.859,-24.555 10.445,-32.536 2.586,-7.98 8.32,-25.988 12.746,-40.015 4.43,-14.028 10.168,-32.02 12.75,-40 14.84,-45.883 16.348,-51.012 15.434,-52.719 -0.496,-0.93 -13.282,-10.344 -28.399,-20.918 C 924.918,719.996 740.809,591.094 530.895,444.109 320.984,297.125 116.777,154.152 77.117,126.394 37.457,98.633 3.727,74.679 2.156,73.172 0.582,71.664 -311.11466,-141.1371 -311.11466,-142.0551 c 0,-1.485 3.17649,-28.9956 3.17649,-28.9956 6.614,-9.367 0.88333,-39.92129 6.51633,-37.05029 1.852,0.945 401.69484,272.88199 472.73784,322.63199 71.043,49.75 269.262,188.547 440.481,308.434 303.508,212.507 512.641,358.949 887.176,621.214 101.007,70.731 184.609,129.036 185.789,129.575 1.316,0.597 2.472,0.664 2.965,0.168 0.441,-0.446 4.402,-12.094 8.808,-25.879 4.406,-13.785 11.117,-34.762 14.914,-46.61 3.801,-11.851 10.735,-33.617 15.406,-48.367 4.672,-14.754 10.442,-32.746 12.809,-40 2.367,-7.258 13.039,-40.707 23.727,-74.324 10.687,-33.613 22.351,-70.219 25.91,-81.344 16.746,-52.383 26.34,-82.492 28.73,-90.14 1.438,-4.594 4.742,-14.875 7.344,-22.856 20.004,-61.312 47.039,-148.004 47.039,-150.824 0,-1.859 2.785,-11.969 6.168,-22.477 3.387,-10.504 6.152,-20.675 6.152,-22.593 0,-2.829 0.676,-4.25 3.59,-7.559 2.614,-2.969 4.235,-4.086 5.938,-4.059 2.769,0.032 46.871,30.633 49.726,34.504 1.617,2.192 1.684,2.727 0.625,5.282 -1.004,2.433 -31.211,96.07 -45.312,140.46 -2.535,7.981 -7.903,24.797 -11.922,37.375 -4.02,12.575 -9.375,29.395 -11.895,37.375 -2.519,7.981 -8.379,26.391 -13.023,40.899 -4.645,14.512 -16.59,51.906 -26.551,83.101 -9.957,31.2 -20.328,63.645 -23.039,72.11 -2.707,8.465 -7.176,22.515 -9.937,31.223 -2.762,8.703 -8.891,27.89 -13.618,42.64 -4.73,14.754 -10.468,32.762 -12.75,40.016 -2.281,7.254 -10.98,34.57 -19.328,60.687 -8.351,26.121 -15.191,48.403 -15.191,49.528 0,1.125 0.355,2.367 0.777,2.75 0.426,0.382 73.387,51.519 162.141,113.648 88.754,62.133 307.305,215.148 485.672,340.039 178.367,124.887 1332.4207,927.9284 1332.4207,927.9284 l -9.54,9.5365 -42.4604,0.423 z M 1325.461,686.984 c -0.457,0.106 -0.867,0.078 -1.285,-0.031 -0.477,-0.129 -0.961,-0.371 -1.496,-0.656 -1.149,-0.614 -12.168,-8.192 -24.504,-16.856 -16.235,-11.406 -22.504,-16.281 -22.688,-17.664 -0.14,-1.051 1.063,-4.09 2.672,-6.75 1.613,-2.66 98.266,-140.965 214.781,-307.348 251.079,-358.527 490.3487,-700.06298 490.3487,-700.06298 0,0 6.2801,-6.2401 7.0141,-6.7551 l 5.0926,-20.33452 c 0.515,0.402 22.5771,5.54914 22.5771,5.54914 0,0 42.6925,11.49881 41.1885,12.84981 -1.031,0.836 -269.572,395.96465 -289.373,424.26165 -19.805,28.293 -117.723,168.192 -217.609,310.875 -99.883,142.684 -182.059,260.75 -182.614,262.371 -0.554,1.621 -7.437,12.102 -15.281,23.297 -20.531,29.305 -25.637,36.512 -28.824,37.254 z"
         style="fill:#1b1b1b;fill-opacity:1"
         id="path10" />
    </g>
  </g>
  <g
     id="text3344"
     style="font-style:normal;font-weight:normal;font-size:49.0559px;line-height:125%;font-family:sans-serif;letter-spacing:0px;word-spacing:0px;fill:#000000;fill-opacity:1;stroke:none;stroke-width:1px;stroke-linecap:butt;stroke-linejoin:miter;stroke-opacity:1"
     transform="matrix(0.72147277,-0.41654249,0.41654249,0.72147277,125.28841,218.38867)">
    <g
       style="font-style:normal;font-weight:normal;font-size:135.04px;line-height:1.25;font-family:sans-serif;fill:#000000;fill-opacity:1;stroke:none;stroke-width:1.12534px"
       id="text188"
       transform="rotate(-0.00900943)"
       aria-label="Jade Michael Thornton">
      <path
         id="path463"
         style="font-style:normal;font-variant:normal;font-weight:500;font-stretch:normal;font-family:'Victor Mono';-inkscape-font-specification:'Victor Mono Medium';stroke-width:1.12534px"
         d="m 405.03405,1851.053 c 23.81614,0 31.67302,-11.6625 31.67302,-46.4046 v -53.525 h -26.51695 v 9.5756 h 16.08204 v 43.9494 c 0,28.4812 -5.15608,36.8291 -21.23811,36.8291 -10.92596,0 -14.73164,-3.4374 -18.41455,-15.9593 l -9.82109,2.7008 c 4.91055,17.1869 11.78531,22.834 28.23564,22.834 z" />
      <path
         id="path465"
         style="font-style:normal;font-variant:normal;font-weight:500;font-stretch:normal;font-family:'Victor Mono';-inkscape-font-specification:'Victor Mono Medium';stroke-width:1.12534px"
         d="m 479.84793,1851.053 c 10.55767,0 16.32756,-2.3325 20.86982,-9.2072 2.45527,5.8926 7.12029,7.7341 16.45032,7.3658 v -9.5756 c -7.73411,0.3683 -9.57556,-0.9821 -9.57556,-10.4349 v -30.4454 c 0,-19.0283 -6.99753,-27.008 -27.74458,-27.008 -15.71375,0 -22.22022,5.7699 -26.14866,20.6243 l 10.06662,2.5781 c 2.57804,-10.0667 5.76989,-12.7675 16.08204,-12.7675 13.504,0 17.30967,3.9285 17.30967,16.5731 v 5.1561 h -17.30967 c -20.62429,0 -27.62182,5.2788 -27.62182,24.0617 0,16.9414 6.99753,23.0795 27.62182,23.0795 z m 0,-9.5755 c -13.62676,0 -17.18691,-3.1919 -17.18691,-13.504 0,-12.1536 3.68291,-14.4861 17.18691,-14.4861 h 17.30967 v 8.4707 c 0,14.9771 -3.80567,19.5194 -17.30967,19.5194 z" />
      <path
         id="path467"
         style="font-style:normal;font-variant:normal;font-weight:500;font-stretch:normal;font-family:'Victor Mono';-inkscape-font-specification:'Victor Mono Medium';stroke-width:1.12534px"
         d="m 556.01221,1851.053 c 7.97963,0 14.24058,-1.4731 18.29178,-5.156 v 3.4374 h 10.43491 v -98.211 h -10.43491 v 27.2536 c -3.92844,-4.665 -10.18938,-6.6293 -18.29178,-6.6293 -21.48364,0 -28.48117,10.5577 -28.48117,39.7755 0,29.0949 6.99753,39.5298 28.48117,39.5298 z m 0,-9.5755 c -13.74953,0 -18.04626,-7.1203 -18.04626,-29.9543 0,-22.9568 4.29673,-30.1999 18.04626,-30.1999 11.90807,0 18.29178,5.6471 18.29178,18.9056 v 32.4096 c 0,6.1382 -6.87477,8.839 -18.29178,8.839 z" />
      <path
         id="path469"
         style="font-style:normal;font-variant:normal;font-weight:500;font-stretch:normal;font-family:'Victor Mono';-inkscape-font-specification:'Victor Mono Medium';stroke-width:1.12534px"
         d="m 630.58056,1771.7477 c -22.9568,0 -30.56815,10.5577 -30.56815,39.6527 0,29.095 7.61135,39.6526 30.56815,39.6526 13.62676,0 20.50152,-3.6829 28.11287,-14.7316 l -8.34793,-5.6471 c -6.38371,8.5934 -10.31214,10.8032 -19.76494,10.8032 -14.60887,0 -19.64218,-6.752 -20.13324,-27.9901 h 48.85993 c 0.24553,-30.6909 -6.752,-41.7397 -28.72669,-41.7397 z m -20.01047,32.1641 c 0.98211,-17.0641 6.13818,-22.5885 20.01047,-22.5885 12.39913,0 16.69585,5.5244 18.04625,22.5885 z" />
      <path
         id="path471"
         style="font-style:normal;font-variant:normal;font-weight:500;font-stretch:normal;font-family:'Victor Mono';-inkscape-font-specification:'Victor Mono Medium';stroke-width:1.12534px"
         d="m 745.8345,1849.3344 h 10.43491 l 1.22764,-71.4485 15.22269,41.2486 h 9.33003 l 15.22269,-41.2486 1.3504,71.4485 h 10.43491 l -1.71869,-98.211 h -10.06662 l -19.88771,51.1925 -19.8877,-51.1925 h -9.94386 z" />
      <path
         id="path473"
         style="font-style:normal;font-variant:normal;font-weight:500;font-stretch:normal;font-family:'Victor Mono';-inkscape-font-specification:'Victor Mono Medium';stroke-width:1.12534px"
         d="m 852.81245,1761.5584 c 7.48858,0 10.43491,-2.7008 10.43491,-9.6984 0,-6.9975 -2.94633,-9.6983 -10.43491,-9.6983 -7.48858,0 -10.31214,2.7008 -10.31214,9.6983 0,6.9976 2.82356,9.6984 10.31214,9.6984 z m 6.62924,78.2004 v -66.2924 h -25.90313 v 9.5756 h 15.46822 v 56.7168 h -21.48364 v 9.5756 h 53.40218 v -9.5756 z" />
      <path
         id="path475"
         style="font-style:normal;font-variant:normal;font-weight:500;font-stretch:normal;font-family:'Victor Mono';-inkscape-font-specification:'Victor Mono Medium';stroke-width:1.12534px"
         d="m 926.76698,1851.053 c 13.25848,0 20.01048,-3.8056 27.37629,-15.2226 l -8.71621,-5.2789 c -5.89266,8.4707 -9.69833,10.926 -18.66008,10.926 -15.8365,0 -20.50152,-7.1203 -20.50152,-30.0771 0,-22.9568 4.78778,-30.0771 20.99258,-30.0771 8.96174,0 12.52189,2.2097 18.04625,10.6804 l 8.83898,-5.156 c -7.24305,-11.4171 -13.74952,-15.1 -26.88523,-15.1 -23.69338,0 -31.42749,10.5577 -31.42749,39.6527 0,29.095 7.61134,39.6526 30.93643,39.6526 z" />
      <path
         id="path477"
         style="font-style:normal;font-variant:normal;font-weight:500;font-stretch:normal;font-family:'Victor Mono';-inkscape-font-specification:'Victor Mono Medium';stroke-width:1.12534px"
         d="m 971.99483,1849.3344 h 10.43491 v -48.86 c 0,-15.591 3.31461,-19.1511 16.94138,-19.1511 13.01298,0 17.18688,6.752 17.18688,30.1999 v 37.8112 h 10.4349 v -37.8112 c 0,-29.7088 -6.8747,-39.7755 -27.62178,-39.7755 -7.61135,0 -13.504,1.596 -16.94138,5.6472 v -26.2715 h -10.43491 z" />
      <path
         id="path479"
         style="font-style:normal;font-variant:normal;font-weight:500;font-stretch:normal;font-family:'Victor Mono';-inkscape-font-specification:'Victor Mono Medium';stroke-width:1.12534px"
         d="m 1068.5379,1851.053 c 10.5576,0 16.3275,-2.3325 20.8698,-9.2072 2.4553,5.8926 7.1203,7.7341 16.4503,7.3658 v -9.5756 c -7.7341,0.3683 -9.5756,-0.9821 -9.5756,-10.4349 v -30.4454 c 0,-19.0283 -6.9975,-27.008 -27.7445,-27.008 -15.7138,0 -22.2202,5.7699 -26.1487,20.6243 l 10.0666,2.5781 c 2.5781,-10.0667 5.7699,-12.7675 16.0821,-12.7675 13.504,0 17.3096,3.9285 17.3096,16.5731 v 5.1561 h -17.3096 c -20.6243,0 -27.6218,5.2788 -27.6218,24.0617 0,16.9414 6.9975,23.0795 27.6218,23.0795 z m 0,-9.5755 c -13.6268,0 -17.1869,-3.1919 -17.1869,-13.504 0,-12.1536 3.6829,-14.4861 17.1869,-14.4861 h 17.3096 v 8.4707 c 0,14.9771 -3.8056,19.5194 -17.3096,19.5194 z" />
      <path
         id="path481"
         style="font-style:normal;font-variant:normal;font-weight:500;font-stretch:normal;font-family:'Victor Mono';-inkscape-font-specification:'Victor Mono Medium';stroke-width:1.12534px"
         d="m 1145.6843,1771.7477 c -22.9568,0 -30.5682,10.5577 -30.5682,39.6527 0,29.095 7.6114,39.6526 30.5682,39.6526 13.6267,0 20.5015,-3.6829 28.1128,-14.7316 l -8.3479,-5.6471 c -6.3837,8.5934 -10.3121,10.8032 -19.7649,10.8032 -14.6089,0 -19.6422,-6.752 -20.1333,-27.9901 h 48.8599 c 0.2456,-30.6909 -6.752,-41.7397 -28.7266,-41.7397 z m -20.0105,32.1641 c 0.9821,-17.0641 6.1382,-22.5885 20.0105,-22.5885 12.3991,0 16.6958,5.5244 18.0462,22.5885 z" />
      <path
         id="path483"
         style="font-style:normal;font-variant:normal;font-weight:500;font-stretch:normal;font-family:'Victor Mono';-inkscape-font-specification:'Victor Mono Medium';stroke-width:1.12534px"
         d="m 1231.7924,1851.053 c 6.1382,0 10.1894,-1.5959 16.9414,-6.5064 l -5.8927,-8.839 c -5.1561,4.4195 -7.8569,5.7699 -11.0487,5.7699 -7.7341,0 -10.0666,-4.4195 -10.0666,-18.2918 v -72.0623 h -25.9032 v 9.5756 h 15.4683 v 62.4867 c 0,21.1153 4.9105,27.8673 20.5015,27.8673 z" />
      <path
         id="path485"
         style="font-style:normal;font-variant:normal;font-weight:500;font-stretch:normal;font-family:'Victor Mono';-inkscape-font-specification:'Victor Mono Medium';stroke-width:1.12534px"
         d="m 1401.1851,1751.1234 h -70.098 v 9.5756 h 29.8315 v 88.6354 h 10.4349 v -88.6354 h 29.8316 z" />
      <path
         id="path487"
         style="font-style:normal;font-variant:normal;font-weight:500;font-stretch:normal;font-family:'Victor Mono';-inkscape-font-specification:'Victor Mono Medium';stroke-width:1.12534px"
         d="m 1413.5123,1849.3344 h 10.4349 v -48.86 c 0,-15.591 3.3146,-19.1511 16.9414,-19.1511 13.0129,0 17.1869,6.752 17.1869,30.1999 v 37.8112 h 10.4349 v -37.8112 c 0,-29.7088 -6.8748,-39.7755 -27.6218,-39.7755 -7.6114,0 -13.504,1.596 -16.9414,5.6472 v -26.2715 h -10.4349 z" />
      <path
         id="path489"
         style="font-style:normal;font-variant:normal;font-weight:500;font-stretch:normal;font-family:'Victor Mono';-inkscape-font-specification:'Victor Mono Medium';stroke-width:1.12534px"
         d="m 1513.2472,1851.053 c 21.4837,0 28.604,-10.5576 28.604,-39.6526 0,-29.095 -7.1203,-39.6527 -28.604,-39.6527 -21.4836,0 -28.4811,10.5577 -28.4811,39.6527 0,29.095 6.9975,39.6526 28.4811,39.6526 z m 0,-9.5755 c -13.7495,0 -18.0462,-7.1203 -18.0462,-30.0771 0,-22.9568 4.2967,-30.0771 18.0462,-30.0771 13.7496,0 18.1691,7.1203 18.1691,30.0771 0,22.9568 -4.4195,30.0771 -18.1691,30.0771 z" />
      <path
         id="path491"
         style="font-style:normal;font-variant:normal;font-weight:500;font-stretch:normal;font-family:'Victor Mono';-inkscape-font-specification:'Victor Mono Medium';stroke-width:1.12534px"
         d="m 1563.2628,1849.3344 h 10.4349 v -41.3714 c 0,-12.6446 4.5423,-26.6397 19.5194,-26.6397 8.2252,0 11.0488,2.578 14.3634,11.9081 l 9.33,-4.174 c -5.1561,-12.8902 -10.926,-17.3097 -23.6934,-17.3097 -9.2072,0 -16.6958,6.261 -19.5194,11.9081 v -10.1894 h -10.4349 z" />
      <path
         id="path493"
         style="font-style:normal;font-variant:normal;font-weight:500;font-stretch:normal;font-family:'Victor Mono';-inkscape-font-specification:'Victor Mono Medium';stroke-width:1.12534px"
         d="m 1633.5344,1849.3344 h 10.4349 v -48.86 c 0,-15.591 3.8057,-19.1511 19.8877,-19.1511 11.0487,0 14.4861,4.9105 14.4861,20.5015 v 47.5096 h 10.4349 v -47.5096 c 0,-22.9568 -6.0154,-30.0771 -24.921,-30.0771 -9.8211,0 -15.4682,2.087 -19.8877,6.261 v -4.5423 h -10.4349 z" />
      <path
         id="path495"
         style="font-style:normal;font-variant:normal;font-weight:500;font-stretch:normal;font-family:'Victor Mono';-inkscape-font-specification:'Victor Mono Medium';stroke-width:1.12534px"
         d="m 1741.9855,1851.053 c 13.7496,0 19.2739,-3.5601 22.7113,-14.1178 l -9.8211,-3.3146 c -2.087,6.261 -4.1739,7.8569 -12.8902,7.8569 -9.4528,0 -12.5218,-4.9106 -12.5218,-19.1511 v -40.021 h 25.5348 v -9.5756 h -25.5348 v -21.6064 h -10.435 v 21.6064 h -15.2226 v 9.5756 h 15.2226 v 40.021 c 0,20.5015 6.1382,28.7266 22.9568,28.7266 z" />
      <path
         id="path497"
         style="font-style:normal;font-variant:normal;font-weight:500;font-stretch:normal;font-family:'Victor Mono';-inkscape-font-specification:'Victor Mono Medium';stroke-width:1.12534px"
         d="m 1807.5922,1851.053 c 21.4836,0 28.6039,-10.5576 28.6039,-39.6526 0,-29.095 -7.1203,-39.6527 -28.6039,-39.6527 -21.4836,0 -28.4812,10.5577 -28.4812,39.6527 0,29.095 6.9976,39.6526 28.4812,39.6526 z m 0,-9.5755 c -13.7495,0 -18.0462,-7.1203 -18.0462,-30.0771 0,-22.9568 4.2967,-30.0771 18.0462,-30.0771 13.7495,0 18.169,7.1203 18.169,30.0771 0,22.9568 -4.4195,30.0771 -18.169,30.0771 z" />
      <path
         id="path499"
         style="font-style:normal;font-variant:normal;font-weight:500;font-stretch:normal;font-family:'Victor Mono';-inkscape-font-specification:'Victor Mono Medium';stroke-width:1.12534px"
         d="m 1854.2932,1849.3344 h 10.4349 v -48.86 c 0,-15.591 3.8056,-19.1511 19.8877,-19.1511 11.0487,0 14.4861,4.9105 14.4861,20.5015 v 47.5096 h 10.4349 v -47.5096 c 0,-22.9568 -6.0154,-30.0771 -24.921,-30.0771 -9.8211,0 -15.4682,2.087 -19.8877,6.261 v -4.5423 h -10.4349 z" />
    </g>
    <g
       style="font-style:normal;font-weight:normal;font-size:84.025px;line-height:1.25;font-family:sans-serif;fill:#000000;fill-opacity:1;stroke:none;stroke-width:1.12534px"
       id="text192"
       transform="rotate(0.14657434)"
       aria-label="software engineer">
      <path
         id="path502"
         style="font-style:italic;font-variant:normal;font-weight:500;font-stretch:normal;font-family:'Victor Mono';-inkscape-font-specification:'Victor Mono Medium Italic';stroke-width:1.12534px"
         d="m 395.37369,2058.5577 c 10.38855,0 20.85348,-4.0485 25.36028,-10.083 l -3.74294,-4.0485 c -1.90966,2.1388 -5.0415,4.0485 -7.63863,5.3471 3.361,-4.3541 4.43041,-8.4025 4.43041,-14.1315 0.15277,-4.8887 -1.98605,-9.09 -4.58319,-12.6038 1.60412,-2.4443 2.2916,-5.347 2.21521,-7.2567 0,-3.9721 -2.52075,-6.5692 -6.79839,-6.5692 -4.20125,0 -6.95116,2.8263 -6.87477,6.8748 -0.15277,2.1388 1.52773,5.1942 3.97209,7.715 -3.59016,4.7359 -10.083,8.2497 -16.42307,8.4025 l 0.76387,6.0345 c 6.95116,-0.5347 14.51341,-4.2012 19.24936,-9.4719 1.22218,2.2152 2.2152,4.2013 2.36798,6.9512 0,9.7774 -4.88873,16.8814 -12.52737,16.8814 -4.35402,0 -8.86081,-2.75 -10.77047,-7.104 l -5.88175,2.9791 c 3.13184,6.1873 9.39552,10.083 16.88138,10.083 z m 9.5483,-38.2696 c -1.45134,-1.9096 -2.21521,-3.2846 -2.21521,-4.8123 0,-1.2986 0.76387,-2.0625 1.83328,-1.9861 1.37495,0 2.06243,0.9931 1.90966,2.5972 -0.0764,1.1458 -0.38194,2.3679 -1.52773,4.2012 z" />
      <path
         id="path504"
         style="font-style:italic;font-variant:normal;font-weight:500;font-stretch:normal;font-family:'Victor Mono';-inkscape-font-specification:'Victor Mono Medium Italic';stroke-width:1.12534px"
         d="m 442.61209,2058.5577 c 10.54132,0 19.24937,-10.3122 22.38121,-24.3673 4.04848,-18.2563 0.91663,-24.9783 -12.60375,-24.9783 -10.54132,0 -19.55491,10.3122 -22.38121,24.3672 -3.66654,18.2564 -0.91663,24.9784 12.60375,24.9784 z m 0.61109,-5.9581 c -8.47888,0 -10.38854,-4.3541 -7.2567,-18.4092 2.44436,-10.9996 8.9372,-19.0202 15.81198,-19.0202 8.47888,0 10.083,4.2777 7.2567,18.4091 -2.13882,10.9997 -8.9372,19.0203 -15.81198,19.0203 z" />
      <path
         id="path506"
         style="font-style:italic;font-variant:normal;font-weight:500;font-stretch:normal;font-family:'Victor Mono';-inkscape-font-specification:'Victor Mono Medium Italic';stroke-width:1.12534px"
         d="m 484.65622,2073.2239 c 9.5483,0 15.43005,-9.3192 15.43005,-22.534 0,-7.1803 -4.43041,-13.9023 -11.2288,-19.3258 0.45832,-1.0694 0.68748,-2.0624 0.91664,-2.9026 h 19.86045 l 1.22218,-5.9582 h -19.0202 c 5.19427,-15.3536 8.02057,-21.2354 13.29123,-21.2354 4.58318,0 6.11091,2.5972 6.722,8.7844 l 6.03452,-2.5971 c -0.99302,-7.8678 -4.81234,-12.1454 -12.83291,-12.1454 -8.70804,0 -13.74954,8.6316 -19.55491,27.1171 l -4.20125,0.076 c -4.27764,0 -7.2567,1.6805 -7.2567,4.2777 -0.0764,2.3679 3.20822,5.0415 7.63863,7.715 -3.361,12.2982 -5.27066,23.527 -5.19427,29.8671 -0.0764,5.347 3.20823,8.8608 8.17334,8.8608 z m -1.52773,-43.3111 c -2.36797,-0.9166 -5.19427,-2.1388 -4.50679,-2.9791 0.45832,-0.6874 3.66654,0.3056 5.27066,0.5347 z m 1.98605,37.3529 c -1.37495,0 -2.36798,-1.3749 -2.44436,-3.4374 0.0764,-6.1109 1.60411,-15.8119 4.12486,-25.4366 4.43041,4.0485 7.2567,8.0969 7.2567,12.8329 0,9.3955 -3.74293,16.0411 -8.9372,16.0411 z" />
      <path
         id="path508"
         style="font-style:italic;font-variant:normal;font-weight:500;font-stretch:normal;font-family:'Victor Mono';-inkscape-font-specification:'Victor Mono Medium Italic';stroke-width:1.12534px"
         d="m 539.31545,2058.5577 c 8.24972,0 12.06904,-1.9861 15.58281,-8.5553 l -5.5762,-2.5207 c -2.13882,3.8957 -3.74293,5.1179 -9.39552,5.1179 -5.72898,0 -7.02755,-2.9791 -5.11789,-11.7635 l 5.27066,-24.5965 h 15.88836 l 1.29857,-5.9581 h -15.88836 l 2.90268,-13.9023 h -6.41645 l -2.90269,13.9023 h -9.47191 l -1.29856,5.9581 h 9.47191 l -5.11789,24.2909 c -2.67352,12.7565 0.0764,18.0272 10.77048,18.0272 z" />
      <path
         id="path510"
         style="font-style:italic;font-variant:normal;font-weight:500;font-stretch:normal;font-family:'Victor Mono';-inkscape-font-specification:'Victor Mono Medium Italic';stroke-width:1.12534px"
         d="m 604.88656,2010.2815 c -2.67352,12.5274 -7.86779,23.1451 -12.83291,34.7558 l -2.06243,-19.9368 c 0.0764,-0.2292 0.0764,-0.5347 0.15277,-0.7639 h -6.56922 l 0.0764,0.993 c -1.45134,7.1803 -5.65259,13.6732 -9.93022,20.548 l 1.29856,-35.5961 h -6.41645 l -1.52773,47.2068 h 6.34007 c 3.43739,-6.9512 8.02057,-13.2912 11.61073,-19.7077 l 2.06243,19.7077 h 6.26368 c 6.41646,-16.9578 14.43703,-30.5546 17.87441,-47.2068 z" />
      <path
         id="path512"
         style="font-style:italic;font-variant:normal;font-weight:500;font-stretch:normal;font-family:'Victor Mono';-inkscape-font-specification:'Victor Mono Medium Italic';stroke-width:1.12534px"
         d="m 646.54876,2049.7733 c -1.06941,1.6805 -2.59713,2.8263 -3.81931,2.8263 -2.21521,0 -2.13882,-1.1458 -1.68051,-3.743 6.11091,-27.7282 6.64562,-30.7837 6.56923,-32.0059 0,-5.4998 -4.12486,-7.6386 -11.99266,-7.6386 -12.2982,0 -26.20052,18.4855 -26.12413,35.1377 -0.15278,8.4789 5.34704,14.2079 13.67316,14.2079 4.04847,0 8.24972,-2.368 11.30518,-6.2637 -0.15278,0.2292 -0.0764,0.8403 0,1.2986 0.0764,2.7499 2.59713,4.9651 6.34007,4.9651 3.28461,0 7.02754,-1.375 8.4025,-3.5902 z m -22.83952,2.8263 c -4.81234,0 -8.02057,-3.5138 -8.17334,-8.7845 0.15277,-12.7565 11.45795,-28.6449 19.55491,-28.6449 4.65957,0 6.26368,0.5347 6.34007,2.5208 -0.0764,1.6041 -1.75689,9.3955 -3.97209,20.0896 -2.8263,8.3261 -8.47889,14.819 -13.74955,14.819 z" />
      <path
         id="path514"
         style="font-style:italic;font-variant:normal;font-weight:500;font-stretch:normal;font-family:'Victor Mono';-inkscape-font-specification:'Victor Mono Medium Italic';stroke-width:1.12534px"
         d="m 719.86653,2052.3704 c -4.58318,0 -8.32611,-3.4374 -8.32611,-8.4025 v -1.7569 c 12.75652,-3.8193 29.56152,-7.8678 29.56152,-22.2284 0,-7.104 -3.97209,-10.7705 -10.99963,-10.7705 -13.444,0 -22.76314,11.458 -24.44364,29.256 -4.5068,1.5277 -8.47889,3.2846 -10.99964,5.8053 -5.80536,6.0346 -8.32611,8.3262 -10.77047,8.3262 -1.52773,0 -2.67353,-1.4514 -2.8263,-3.6666 -0.0764,-9.2427 5.72898,-21.8465 14.43702,-34.4502 l -4.20125,-2.9791 c -6.41645,4.2776 -13.74954,7.4095 -18.40911,7.715 0.0764,-0.6111 0.15277,-1.2986 0.15277,-1.9096 0.0764,-4.8124 -2.67352,-8.097 -6.79838,-8.097 -4.88873,0 -8.24973,3.1318 -8.09696,7.5622 -0.0764,3.5902 2.59714,6.3401 7.02755,7.6387 -1.60412,2.9791 -4.04848,6.1873 -6.95116,9.09 l 3.66654,5.0415 c 4.04848,-4.2777 7.18032,-9.0136 9.08998,-13.2913 h 0.45832 c 3.05545,0 7.71502,-1.0694 12.37459,-3.2082 -5.95814,10.3122 -8.93721,19.4785 -8.86082,27.4227 -0.0764,5.4234 3.28462,9.09 8.4025,9.09 5.34705,0 9.01359,-4.2013 15.58282,-10.7705 1.37495,-1.4513 3.66655,-2.5207 6.49284,-3.5901 0,8.4025 5.65259,14.3606 13.444,14.3606 6.64561,0 14.81896,-3.361 20.08962,-8.4789 l -3.05546,-5.347 c -4.04848,4.4304 -10.69409,7.6386 -16.04114,7.6386 z m -56.83145,-36.4363 c 0,-1.375 0.99302,-2.4444 2.44436,-2.4444 1.37496,0 2.13882,1.4514 2.13882,3.4374 0,0.6875 -0.0764,1.375 -0.22916,2.1388 -2.74991,-0.4583 -4.35402,-1.2985 -4.35402,-3.1318 z m 66.45614,-0.7639 c 3.05545,0 5.42343,1.9097 5.42343,5.3471 0,9.7774 -11.68712,12.9093 -22.91591,16.0411 1.83327,-13.1384 8.63166,-21.3882 17.49248,-21.3882 z" />
      <path
         id="path516"
         style="font-style:italic;font-variant:normal;font-weight:500;font-stretch:normal;font-family:'Victor Mono';-inkscape-font-specification:'Victor Mono Medium Italic';stroke-width:1.12534px"
         d="m 811.44066,2052.3704 c -4.58318,0 -8.32611,-3.4374 -8.32611,-8.4025 v -1.2986 c 11.68711,-3.361 29.56152,-7.715 29.56152,-22.6867 0,-7.104 -3.97209,-10.7705 -10.99964,-10.7705 -13.21484,0 -22.53397,11.1524 -24.36725,28.5685 -2.97906,0.9166 -5.19427,2.0624 -6.11091,3.6665 l 2.67353,5.1179 c 0.61109,-0.6874 1.75688,-1.2985 3.13184,-1.8332 0.22916,8.0969 5.80536,13.8259 13.444,13.8259 6.64561,0 14.81895,-3.361 20.08961,-8.4789 l -3.05545,-5.347 c -4.04848,4.4304 -10.69409,7.6386 -16.04114,7.6386 z m 9.62468,-37.2002 c 3.05546,0 5.42344,1.9097 5.42344,5.3471 0,10.083 -12.60376,12.9093 -22.76314,15.5064 1.90966,-12.8329 8.63166,-20.8535 17.3397,-20.8535 z" />
      <path
         id="path518"
         style="font-style:italic;font-variant:normal;font-weight:500;font-stretch:normal;font-family:'Victor Mono';-inkscape-font-specification:'Victor Mono Medium Italic';stroke-width:1.12534px"
         d="m 877.16455,2049.7733 c -1.06941,1.6805 -2.52075,2.8263 -3.81932,2.8263 -1.06941,0 -1.83327,-0.6111 -1.90966,-1.6042 -0.22916,-3.9721 2.29159,-12.9093 5.65259,-23.2978 3.9721,-12.069 0.38194,-18.4855 -9.54829,-18.4855 -4.58318,0 -9.93023,3.6665 -14.36064,9.7775 l 0.61109,-1.9861 c 1.52773,-4.354 -1.90966,-7.7914 -6.26368,-7.7914 -3.28461,0 -7.02754,1.375 -8.4025,3.5902 l 2.67352,4.8123 c 1.98605,-1.9097 2.97907,-2.4444 3.81932,-2.4444 1.06941,0 1.75689,0.6111 1.90966,1.5278 0.0764,0.4583 -0.15277,0.993 -0.15277,1.3749 l -8.47889,39.4154 h 6.41646 l 4.65956,-22.4576 c 1.83328,-8.7844 11.07603,-19.8605 16.95778,-19.8605 4.88873,0 6.87477,3.6666 4.12486,11.8399 -4.12486,11.9927 -6.03452,21.8465 -5.88175,26.1242 0.0764,3.2846 2.44437,5.4234 6.26368,5.4234 3.361,0 7.10394,-1.375 8.47889,-3.5902 z" />
      <path
         id="path520"
         style="font-style:italic;font-variant:normal;font-weight:500;font-stretch:normal;font-family:'Victor Mono';-inkscape-font-specification:'Victor Mono Medium Italic';stroke-width:1.12534px"
         d="m 891.40406,2073.2239 c 9.5483,0 18.63827,-4.1249 22.9923,-10.6941 2.59713,-0.076 5.65259,-0.3056 7.79141,-1.0694 l 1.98604,-6.2637 c -3.28461,1.0694 -4.65957,1.3749 -7.02754,1.5277 2.52075,-7.1039 8.78443,-36.4363 8.70804,-39.8737 0.0764,-5.4998 -4.12486,-7.6386 -11.99266,-7.6386 -12.83291,0 -27.49909,15.8884 -27.26993,31.624 0,7.9441 5.65259,13.1384 13.9787,13.1384 4.27764,0 9.62469,-1.1458 12.3746,-3.361 -0.6111,1.9097 -1.1458,4.4304 -1.83328,5.9581 -17.64525,0 -28.87404,3.8957 -28.79766,10.3122 -0.0764,3.8193 3.59016,6.3401 9.08998,6.3401 z m 9.70107,-25.2075 c -4.81234,0 -8.17334,-2.9791 -8.4025,-7.7151 -0.15277,-11.9162 11.83989,-25.1311 20.62432,-25.1311 5.19427,0 6.18729,0.076 6.34007,2.5208 -0.0764,1.5277 -1.6805,8.6316 -4.58319,22.9159 -1.37495,6.4928 -4.65956,7.4095 -13.9787,7.4095 z m -8.24973,19.2493 c -2.29159,0 -4.27763,-0.5347 -4.27763,-0.9166 0,-1.375 8.02056,-3.2082 17.79802,-3.7429 -3.51377,2.7499 -8.55527,4.6595 -13.52039,4.6595 z" />
      <path
         id="path522"
         style="font-style:italic;font-variant:normal;font-weight:500;font-stretch:normal;font-family:'Victor Mono';-inkscape-font-specification:'Victor Mono Medium Italic';stroke-width:1.12534px"
         d="m 953.61418,2002.872 c 4.35402,0 6.18729,-1.4513 7.02754,-5.4998 0.99303,-4.6596 -0.68747,-6.5692 -5.5762,-6.5692 -4.35402,0 -6.26368,1.3749 -7.10393,5.4998 -0.99303,4.6596 0.68747,6.5692 5.65259,6.5692 z m 0.0764,55.6857 c 5.95814,0 9.5483,-2.2152 14.36064,-8.8608 l -4.88873,-3.4374 c -3.59016,4.9651 -5.34704,6.3401 -8.9372,6.3401 -7.10393,0 -9.5483,-3.4374 -6.26368,-15.1245 l 4.81234,-17.2634 c 1.37495,-5.4998 -1.83328,-8.9372 -8.17334,-9.9302 l -1.52773,5.9581 c 3.20823,0.6111 3.97209,2.2152 3.20823,4.9652 l -4.5068,16.2703 c -4.43041,15.7355 -0.45832,21.0826 11.91627,21.0826 z" />
      <path
         id="path524"
         style="font-style:italic;font-variant:normal;font-weight:500;font-stretch:normal;font-family:'Victor Mono';-inkscape-font-specification:'Victor Mono Medium Italic';stroke-width:1.12534px"
         d="m 1014.5257,2049.7733 c -1.0694,1.6805 -2.5207,2.8263 -3.8193,2.8263 -1.0694,0 -1.8333,-0.6111 -1.9097,-1.6042 -0.2291,-3.9721 2.2916,-12.9093 5.6526,-23.2978 3.9721,-12.069 0.382,-18.4855 -9.5483,-18.4855 -4.5831,0 -9.93018,3.6665 -14.36059,9.7775 l 0.61109,-1.9861 c 1.52773,-4.354 -1.90966,-7.7914 -6.26368,-7.7914 -3.28462,0 -7.02755,1.375 -8.4025,3.5902 l 2.67352,4.8123 c 1.98604,-1.9097 2.97907,-2.4444 3.81932,-2.4444 1.06941,0 1.75688,0.6111 1.90966,1.5278 0.0764,0.4583 -0.15278,0.993 -0.15278,1.3749 l -8.47888,39.4154 h 6.41645 l 4.65957,-22.4576 c 1.83327,-8.7844 11.07602,-19.8605 16.95782,-19.8605 4.8887,0 6.8747,3.6666 4.1248,11.8399 -4.1248,11.9927 -6.0345,21.8465 -5.8817,26.1242 0.076,3.2846 2.4443,5.4234 6.2636,5.4234 3.361,0 7.104,-1.375 8.4789,-3.5902 z" />
      <path
         id="path526"
         style="font-style:italic;font-variant:normal;font-weight:500;font-stretch:normal;font-family:'Victor Mono';-inkscape-font-specification:'Victor Mono Medium Italic';stroke-width:1.12534px"
         d="m 1086.163,2052.3704 c -4.5831,0 -8.3261,-3.4374 -8.3261,-8.4025 v -1.0694 c 13.2149,-3.8957 29.5616,-8.5553 29.5616,-22.9159 0,-7.104 -3.9721,-10.7705 -10.9997,-10.7705 -13.5204,0 -22.8395,11.6107 -24.4436,29.5615 -4.2777,1.2222 -8.1734,2.5208 -10.7705,4.2777 -8.8608,6.1109 -15.5064,9.3191 -20.8535,9.3191 -4.5832,0 -8.3261,-3.4374 -8.3261,-8.4025 v -1.2986 c 11.6871,-3.361 29.5615,-7.715 29.5615,-22.6867 0,-7.104 -3.9721,-10.7705 -10.9996,-10.7705 -13.2148,0 -22.534,11.1524 -24.3673,28.5685 -2.979,0.9166 -5.1942,2.0624 -6.1109,3.6665 l 2.6736,5.1179 c 0.6111,-0.6874 1.7568,-1.2985 3.1318,-1.8332 0.2292,8.0969 5.8054,13.8259 13.444,13.8259 6.6456,0 14.819,-3.361 24.6728,-10.3122 1.9097,-1.2985 4.5832,-2.4443 7.715,-3.4374 0.3056,8.097 5.8054,13.7496 13.444,13.7496 6.6456,0 14.819,-3.361 20.0896,-8.4789 l -3.0554,-5.347 c -4.0485,4.4304 -10.6941,7.6386 -16.0412,7.6386 z m -36.2071,-37.2002 c 2.9791,0 5.4234,1.9097 5.4234,5.3471 0,10.083 -12.6037,12.9093 -22.7631,15.5064 1.9097,-12.8329 8.6317,-20.8535 17.3397,-20.8535 z m 45.8318,0 c 3.0555,0 5.4235,1.9097 5.4235,5.3471 0,9.9302 -11.6872,13.5204 -22.916,16.4994 1.6805,-13.444 8.5553,-21.8465 17.4925,-21.8465 z" />
      <path
         id="path528"
         style="font-style:italic;font-variant:normal;font-weight:500;font-stretch:normal;font-family:'Victor Mono';-inkscape-font-specification:'Victor Mono Medium Italic';stroke-width:1.12534px"
         d="m 1147.6857,2047.1761 c -0.9167,3.1319 -3.361,5.4235 -5.8818,5.4235 -1.5277,0 -2.6735,-1.4514 -2.8263,-3.6666 0,-9.2427 5.729,-21.8465 14.4371,-34.4502 l -4.2013,-2.9791 c -6.4164,4.2776 -13.7495,7.4095 -18.4091,7.715 0.076,-0.6111 0.1528,-1.2986 0.1528,-1.9096 0.076,-4.8124 -2.6736,-8.097 -6.7984,-8.097 -4.8124,0 -8.2497,3.1318 -8.097,7.5622 -0.076,3.5902 2.5972,6.3401 7.0276,7.6387 -1.6041,2.9791 -4.0485,6.1873 -6.9512,9.09 l 3.6666,5.0415 c 4.0484,-4.2777 7.1803,-9.0136 9.0899,-13.2913 h 0.4584 c 3.1318,0 7.715,-1.0694 12.3745,-3.2082 -5.9581,10.3122 -8.9372,19.4785 -8.8608,27.4227 -0.076,5.4234 3.2846,9.09 8.4025,9.09 5.3471,0 10.465,-3.8193 12.2218,-9.4719 z m -26.7352,-31.242 c 0,-1.375 0.993,-2.4444 2.4443,-2.4444 1.375,0 2.1388,1.4514 2.1388,3.4374 0,0.6875 -0.076,1.375 -0.2291,2.1388 -2.7499,-0.4583 -4.354,-1.2985 -4.354,-3.1318 z" />
    </g>
  </g>
</svg>
