<?xml version="1.0" encoding="UTF-8" standalone="no"?>
<svg
   xmlns:dc="http://purl.org/dc/elements/1.1/"
   xmlns:cc="http://creativecommons.org/ns#"
   xmlns:rdf="http://www.w3.org/1999/02/22-rdf-syntax-ns#"
   xmlns:svg="http://www.w3.org/2000/svg"
   xmlns="http://www.w3.org/2000/svg"
   xmlns:sodipodi="http://sodipodi.sourceforge.net/DTD/sodipodi-0.dtd"
   xmlns:inkscape="http://www.inkscape.org/namespaces/inkscape"
   id="svg2"
   viewBox="0 0 3400.1079 2373.7251"
   version="1.1"
   width="959.586mm"
   height="669.918mm"
   inkscape:version="0.91 r13725"
   sodipodi:docname="background.svg">
  <sodipodi:namedview
     pagecolor="#ffffff"
     bordercolor="#666666"
     borderopacity="1"
     objecttolerance="10"
     gridtolerance="10"
     guidetolerance="10"
     inkscape:pageopacity="0"
     inkscape:pageshadow="2"
     inkscape:window-width="1920"
     inkscape:window-height="1023"
     id="namedview13"
     showgrid="false"
     inkscape:zoom="0.31763698"
     inkscape:cx="1658.5487"
     inkscape:cy="1201.1276"
     inkscape:window-x="0"
     inkscape:window-y="31"
     inkscape:window-maximized="1"
     inkscape:current-layer="svg2" />
  <metadata
     id="metadata16">
    <rdf:RDF>
      <cc:Work
         rdf:about="">
        <dc:format>image/svg+xml</dc:format>
        <dc:type
           rdf:resource="http://purl.org/dc/dcmitype/StillImage" />
        <dc:title />
      </cc:Work>
    </rdf:RDF>
  </metadata>
  <defs
     id="defs14" />
  <g
     id="g4"
     transform="translate(168.2545,526.57333)">
    <g
       id="g6"
       transform="matrix(1.25,0,0,-1.25,-604.7666,2049.652)">
      <path
         id="path8"
         style="fill:#393838"
         d="m 947.977,1897.941 2.23,-2.41 c 1.664,-1.809 369.219,-526.312 386.848,-552.031 3.101,-4.528 4.234,-8.91 2.3,-8.91 -0.886,0 -19.535,3.171 -51.812,8.804 -8.461,1.477 -20.91,3.641 -27.68,4.805 -22.843,3.941 -43.871,7.578 -56.238,9.734 -6.77,1.184 -24.969,4.328 -40.434,6.989 -15.468,2.664 -33.668,5.828 -40.433,7.035 -6.77,1.207 -22.586,3.953 -35.156,6.101 -20.469,3.5 -104.262,17.989 -122.153,21.118 -3.867,0.679 -12.765,2.23 -19.773,3.449 -7.012,1.219 -22.043,3.832 -33.403,5.812 -11.355,1.985 -29.742,5.157 -40.859,7.051 -39.562,6.738 -45.352,7.887 -48.762,9.629 -1.902,0.969 -4.312,1.754 -5.355,1.754 -1.047,0 -12.703,-7.547 -25.895,-16.77 -27.082,-18.937 -27.293,-19.156 -24.32,-26.074 0.984,-2.297 4.356,-12.277 7.477,-22.187 4.695,-14.907 27.527,-86.5 50.457,-158.192 2.707,-8.461 7.187,-22.504 9.949,-31.203 2.758,-8.699 8.879,-27.871 13.594,-42.613 4.714,-14.746 10.449,-32.742 12.738,-39.992 2.293,-7.25 12.762,-40.079 23.285,-72.95 10.523,-32.867 21.406,-66.886 24.168,-75.586 10.613,-33.414 16.777,-52.781 25.07,-78.652 4.723,-14.746 10.278,-32.141 12.328,-38.664 2.051,-6.527 7.946,-25.051 13.106,-41.168 8.156,-25.469 9.226,-29.531 8.223,-30.988 C 966.844,750.91 883.668,692.308 782.645,621.594 139.312,171.254 5.395,77.344 2.449,74.508 0.637,72.761 -0.828,70.523 -0.801,69.531 -0.77,68.543 6.645,57.258 15.68,44.449 28.945,25.64 32.535,21.113 34.309,20.906 c 1.3,-0.152 4.175,0.938 7.035,2.672 2.656,1.609 87.871,61.086 189.379,132.16 101.507,71.078 300.05,210.082 441.195,308.91 1025.359,717.973 1013.09,709.41 1014.508,708.516 0.801,-0.508 3.867,-8.688 7.219,-19.258 10.14,-31.961 27.48,-86.309 38.097,-119.437 3.254,-10.153 11.453,-35.856 18.219,-57.125 21.562,-67.79 31.496,-98.961 35.887,-112.497 2.351,-7.25 8.101,-25.246 12.769,-39.992 4.668,-14.742 10.598,-33.324 13.184,-41.301 5.226,-16.125 44.945,-140.707 53.707,-168.46 3.078,-9.758 5.601,-18.301 5.601,-18.997 0,-3.601 -1.539,-3.488 -38.375,2.914 -19.742,3.43 -40.441,7.016 -46.004,7.981 -5.558,0.961 -14.457,2.508 -19.773,3.43 -5.316,0.925 -24.687,4.281 -43.055,7.461 -18.371,3.183 -37.757,6.55 -43.074,7.476 -23.484,4.102 -101.555,17.578 -106.332,18.356 -2.898,0.472 -12,2.05 -20.219,3.511 -8.215,1.461 -23.246,4.082 -33.398,5.828 -19.977,3.43 -41.184,7.129 -60.633,10.575 -6.769,1.195 -22.988,4.004 -36.039,6.238 -13.051,2.234 -25.504,4.375 -27.68,4.762 -7.98,1.41 -46.382,7.976 -54.058,9.246 -4.348,0.719 -10.129,2.121 -12.86,3.113 -4.297,1.555 -5.261,1.641 -7.113,0.625 -1.176,-0.644 -12.48,-8.426 -25.129,-17.289 -18.058,-12.652 -22.992,-16.508 -22.992,-18.004 0,-1.047 1.324,-4.125 2.961,-6.836 1.633,-2.707 59.312,-85.355 128.164,-183.672 C 1693.184,51.019 1727.852,1.406 1727.852,0.535 c 0,-0.613 26.867,-0.563 40.418,-0.363 l 39.242,0.578 -2.395,3.511 c -1.777,2.614 -100.156,143.079 -218.644,312.34 -151.418,216.305 -215.442,308.418 -215.442,310.012 0,1.246 0.422,2.273 0.934,2.273 0.859,0 14.512,-2.332 51.371,-8.746 15.523,-2.699 39.57,-6.851 56.242,-9.718 5.317,-0.914 16.777,-2.907 25.481,-4.422 8.699,-1.52 28.289,-4.922 43.515,-7.555 15.227,-2.633 33.02,-5.719 39.547,-6.867 6.527,-1.145 22.344,-3.883 35.152,-6.086 31.622,-5.438 82,-14.176 97.547,-16.906 7.008,-1.231 17.094,-2.977 22.41,-3.891 12.129,-2.082 39.95,-6.894 60.637,-10.496 26.832,-4.672 40.996,-7.109 48.778,-8.395 22.468,-3.703 32.933,-5.867 36.027,-7.445 1.898,-0.969 4.297,-1.754 5.324,-1.754 1.027,0 12.684,7.563 25.906,16.813 27.082,18.953 27.27,19.164 24.336,26.031 -0.98,2.297 -5.996,17.422 -11.152,33.613 -17.887,56.164 -22.578,70.821 -27.25,85.246 -2.582,7.977 -8.137,25.371 -12.344,38.664 -4.207,13.293 -9.754,30.704 -12.328,38.676 -4.168,12.914 -42.465,132.942 -54.394,170.492 -2.536,7.977 -7.883,24.786 -11.903,37.352 -4.019,12.566 -9.762,30.566 -12.754,39.992 -9.867,31.082 -27.863,87.43 -48.504,151.906 l -11.918,37.231 2.09,2.027 c 1.149,1.121 12.766,9.512 25.817,18.645 75.328,52.718 734.629,514.336 830.394,581.418 62.766,43.965 115.262,80.519 116.66,81.215 1.399,0.699 2.547,1.425 2.547,1.632 0,0.207 -25.894,0.383 -57.535,0.383 -54.562,0 -57.605,-0.078 -59.094,-1.601 -0.867,-0.883 -63.675,-45.075 -139.566,-98.184 -75.887,-53.113 -249.297,-174.516 -385.367,-269.789 -136.067,-95.277 -403.219,-282.328 -593.664,-415.672 -190.45,-133.34 -371.27,-259.973 -401.832,-281.398 -30.563,-21.43 -56.36,-38.953 -57.325,-38.953 -1.492,0 -2.402,2.109 -6.226,14.281 -2.465,7.851 -6.809,21.402 -9.641,30.101 -2.832,8.703 -8.969,27.887 -13.625,42.633 -4.656,14.742 -10.187,32.137 -12.297,38.66 -2.113,6.528 -5.226,16.215 -6.914,21.532 -1.687,5.316 -8.867,27.855 -15.957,50.089 -7.094,22.235 -14.261,44.789 -15.929,50.11 -4.219,13.426 -14.418,45.246 -20.555,64.14 -2.824,8.704 -6.309,19.579 -7.75,24.172 -1.442,4.59 -8.352,26.34 -15.363,48.336 -7.012,21.992 -14,43.946 -15.52,48.778 -1.519,4.835 -4.48,14.132 -6.59,20.66 -2.109,6.527 -7.844,24.523 -12.758,39.992 -4.91,15.465 -11.234,35.242 -14.05,43.941 -7.989,24.68 -11.43,35.942 -11.43,37.473 0,3.719 1.469,3.641 33.098,-1.891 16.839,-2.945 37.339,-6.5 45.558,-7.906 8.215,-1.402 19.492,-3.348 25.055,-4.316 5.558,-0.969 23.941,-4.164 40.859,-7.094 16.918,-2.934 36.305,-6.285 43.071,-7.461 6.769,-1.176 34.25,-5.91 61.078,-10.516 26.828,-4.601 50.758,-8.761 53.175,-9.246 2.415,-0.48 11.5,-2.09 20.2,-3.57 8.703,-1.477 21.554,-3.688 28.562,-4.91 7.012,-1.223 19.278,-3.356 27.25,-4.731 7.977,-1.379 19.055,-3.308 24.613,-4.289 14.649,-2.586 34.297,-5.996 51.403,-8.91 8.219,-1.398 18.305,-3.129 22.414,-3.859 4.109,-0.731 15.773,-2.754 25.922,-4.485 31.058,-5.297 36.785,-6.422 40.312,-7.906 1.867,-0.785 4.02,-1.187 4.778,-0.898 0.753,0.289 12.179,8.082 25.386,17.316 18.543,12.965 24,17.215 24,18.645 0,1.019 -1.316,4.023 -2.929,6.683 -1.614,2.66 -93.09,133.574 -203.278,290.922 -110.191,157.348 -200.613,286.758 -200.933,287.594 -0.539,1.41 -3.524,1.527 -41.211,1.527 l -40.617,0 z"
         inkscape:connector-curvature="0" />
      <path
         id="path10"
         style="fill:#1b1b1b;fill-opacity:1"
         d="m 599.67407,2424.4403 -15.96118,-6.4363 c 3.887,-4.168 756.13911,-1077.133 757.79111,-1080.887 2.051,-4.652 35.531,-52.969 40.23,-58.063 1.774,-1.921 3.832,-3.496 4.567,-3.496 1.472,0 5.117,2.442 31.742,21.114 13.762,9.656 18.195,13.191 18.195,14.582 0,1.007 -2.086,5.097 -4.625,9.082 -2.539,3.984 -94.051,134.894 -203.363,290.922 -109.309,156.027 -580.14346,827.594 -580.49146,828.48 -0.602,1.536 -33.25933,-8.174 -33.25933,-8.174 z m 2506.17773,-207.6586 -2,19.3301 -7.5046,11.0628 c 0,0 -682.7102,-484.7726 -844.0152,-597.7176 -400.238,-280.246 -786.707,-550.86 -1026.094,-718.485 -109.941,-76.984 -200.652,-139.957 -201.578,-139.957 -2.273,0 -2.445,0.422 -9.098,21.543 -5.539,17.575 -11.429,36.063 -24.671,77.391 -6.207,19.367 -41.536,130.195 -46.813,146.855 -1.683,5.321 -4.785,15.016 -6.898,21.543 -2.118,6.532 -8.055,25.125 -13.192,41.329 -5.14,16.203 -11.48,35.992 -14.078,43.972 -4.73,14.524 -38.851,121.594 -64.062,201.008 -3.696,11.648 -6.731,22.531 -6.731,24.184 -0.004,1.656 -2.629,11.324 -5.847,21.484 -3.223,10.156 -6.106,20.504 -6.415,22.992 -0.308,2.488 -1.121,5.254 -1.8,6.153 -3.477,4.574 -5.774,6.476 -7.864,6.472 -1.496,0 -9.66,-5.211 -24.246,-15.449 -12.09,-8.492 -23.066,-16.469 -24.394,-17.742 -2.715,-2.594 -2.992,-4.489 -1.176,-8 0.684,-1.321 4.5,-12.676 8.488,-25.239 3.989,-12.558 9.512,-29.949 12.274,-38.656 8.629,-27.203 49.113,-154.051 54.031,-169.285 5.215,-16.148 12.785,-39.906 25.512,-80.031 4.679,-14.754 10.629,-33.348 13.222,-41.328 2.594,-7.981 5.7,-17.676 6.903,-21.543 1.199,-3.871 6.988,-22.078 12.855,-40.461 5.867,-18.379 13.238,-41.535 16.395,-51.449 3.156,-9.914 7.859,-24.555 10.445,-32.536 2.586,-7.98 8.32,-25.988 12.746,-40.015 4.43,-14.028 10.168,-32.02 12.75,-40 14.84,-45.883 16.348,-51.012 15.434,-52.719 -0.496,-0.93 -13.282,-10.344 -28.399,-20.918 C 924.918,719.996 740.809,591.094 530.895,444.109 320.984,297.125 116.777,154.152 77.117,126.394 37.457,98.633 3.727,74.679 2.156,73.172 0.582,71.664 -0.715,69.676 -0.715,68.758 c 0,-1.485 5.672,-9.899 26.578,-39.528 6.614,-9.367 7.285,-9.742 12.918,-6.871 1.852,0.945 61.492,42.422 132.535,92.172 71.043,49.75 269.262,188.547 440.481,308.434 303.508,212.507 512.641,358.949 887.176,621.214 101.007,70.731 184.609,129.036 185.789,129.575 1.316,0.597 2.472,0.664 2.965,0.168 0.441,-0.446 4.402,-12.094 8.808,-25.879 4.406,-13.785 11.117,-34.762 14.914,-46.61 3.801,-11.851 10.735,-33.617 15.406,-48.367 4.672,-14.754 10.442,-32.746 12.809,-40 2.367,-7.258 13.039,-40.707 23.727,-74.324 10.687,-33.613 22.351,-70.219 25.91,-81.344 16.746,-52.383 26.34,-82.492 28.73,-90.14 1.438,-4.594 4.742,-14.875 7.344,-22.856 20.004,-61.312 47.039,-148.004 47.039,-150.824 0,-1.859 2.785,-11.969 6.168,-22.477 3.387,-10.504 6.152,-20.675 6.152,-22.593 0,-2.829 0.676,-4.25 3.59,-7.559 2.614,-2.969 4.235,-4.086 5.938,-4.059 2.769,0.032 46.871,30.633 49.726,34.504 1.617,2.192 1.684,2.727 0.625,5.282 -1.004,2.433 -31.211,96.07 -45.312,140.46 -2.535,7.981 -7.903,24.797 -11.922,37.375 -4.02,12.575 -9.375,29.395 -11.895,37.375 -2.519,7.981 -8.379,26.391 -13.023,40.899 -4.645,14.512 -16.59,51.906 -26.551,83.101 -9.957,31.2 -20.328,63.645 -23.039,72.11 -2.707,8.465 -7.176,22.515 -9.937,31.223 -2.762,8.703 -8.891,27.89 -13.618,42.64 -4.73,14.754 -10.468,32.762 -12.75,40.016 -2.281,7.254 -10.98,34.57 -19.328,60.687 -8.351,26.121 -15.191,48.403 -15.191,49.528 0,1.125 0.355,2.367 0.777,2.75 0.426,0.382 73.387,51.519 162.141,113.648 88.754,62.133 307.305,215.148 485.672,340.039 178.367,124.887 719.3814,502.4222 719.3814,502.4222 0,0 4.6866,7.3435 4.6866,7.5965 0,0.254 -8.8337,25.643 -8.8337,25.643 z M 1325.461,686.984 c -0.457,0.106 -0.867,0.078 -1.285,-0.031 -0.477,-0.129 -0.961,-0.371 -1.496,-0.656 -1.149,-0.614 -12.168,-8.192 -24.504,-16.856 -16.235,-11.406 -22.504,-16.281 -22.688,-17.664 -0.14,-1.051 1.063,-4.09 2.672,-6.75 1.613,-2.66 98.266,-140.965 214.781,-307.348 C 1744.02,-20.848 1725.617,5.172 1727.223,2.511 c 0.058,-0.402 0.793,-2.582 1.527,-3.097 l 0.52,-0.215 c 0.515,0.402 17.855,0.297 39.953,0.062 38.257,0.02 39.949,-0.39 38.445,0.961 -1.031,0.836 -18.078,24.668 -37.879,52.965 -19.805,28.293 -117.723,168.192 -217.609,310.875 -99.883,142.684 -182.059,260.75 -182.614,262.371 -0.554,1.621 -7.437,12.102 -15.281,23.297 -20.531,29.305 -25.637,36.512 -28.824,37.254 z"
         inkscape:connector-curvature="0"
         sodipodi:nodetypes="ccccscscsccccccsssccccccccccccccccscccccccccccsccsccscsccscccscccscsccccccccccccccsccccsccccccccccccccccccc" />
    </g>
  </g>
  <g
     transform="matrix(0.81915204,-0.57357644,0.57357644,0.81915204,-459.64422,195.19138)"
     style="font-style:normal;font-weight:normal;font-size:49.05592728px;line-height:125%;font-family:sans-serif;letter-spacing:0px;word-spacing:0px;fill:#000000;fill-opacity:1;stroke:none;stroke-width:1px;stroke-linecap:butt;stroke-linejoin:miter;stroke-opacity:1"
     id="text3344">
    <path
       d="m 707.86599,1788.1616 q 0,10.0718 -3.44924,17.5222 -3.31128,7.4504 -8.6921,12.4173 -5.38082,4.8289 -12.27931,7.3124 -6.89849,2.3455 -13.93495,2.3455 -4.27707,0 -8.55413,-0.8278 -4.1391,-0.8279 -8.14022,-2.7594 -1.3797,-0.6899 -2.20752,-2.0696 -0.82782,-1.3797 -0.68985,-3.0353 0.13797,-2.3455 1.51767,-4.0012 1.3797,-1.6556 3.72519,-1.6556 1.37969,0 2.34548,0.5519 5.51879,2.4834 12.00338,2.4834 5.10488,0 9.93382,-1.6556 4.96691,-1.6556 8.6921,-5.1049 3.86315,-3.4492 6.07067,-8.83 2.34549,-5.3809 2.34549,-12.6933 l 0,-66.9153 q 0,-2.3455 1.65563,-3.5872 1.79361,-1.2418 4.00113,-1.2418 2.20752,0 3.86315,1.2418 1.79361,1.2417 1.79361,3.5872 l 0,66.9153 z"
       style="font-style:normal;font-variant:normal;font-weight:normal;font-stretch:normal;font-size:137.96980286px;font-family:'La chata';-inkscape-font-specification:'La chata';text-align:center;writing-mode:lr-tb;text-anchor:middle;fill:#1b1b1b;fill-opacity:1"
       id="path3342"
       inkscape:connector-curvature="0" />
    <path
       d="m 803.59116,1820.9985 q 0,2.6214 -1.7936,4.0011 -1.79361,1.3797 -4.1391,1.3797 -1.51767,0 -2.89736,-0.6899 -1.3797,-0.8278 -2.06955,-2.3455 -0.96579,-1.9315 -2.89737,-1.9315 -0.96579,0 -1.93157,0.6898 -4.96692,3.4493 -10.89962,5.1049 -5.79473,1.7936 -11.72743,1.7936 -7.03646,0 -13.93495,-2.4835 -6.89849,-2.3454 -12.27931,-7.3124 -5.38083,-4.9669 -8.83007,-12.4172 -3.31128,-7.4504 -3.31128,-17.5222 0,-10.0718 3.31128,-17.5222 3.44924,-7.4503 8.83007,-12.2793 5.38082,-4.9669 12.27931,-7.3124 6.89849,-2.4834 13.93495,-2.4834 5.9327,0 11.72743,1.7936 5.9327,1.6556 10.89962,5.1049 0.96578,0.6898 1.93157,0.6898 0.96579,0 1.65564,-0.5519 0.82782,-0.6898 1.24173,-1.5176 0.68985,-1.5177 2.06955,-2.2076 1.37969,-0.6898 2.89736,-0.6898 2.34549,0 4.1391,1.3797 1.7936,1.3797 1.7936,4.0011 l 0,63.3282 z m -38.3556,-60.0169 q -5.24285,0 -10.0718,1.6556 -4.82894,1.6557 -8.69209,5.1049 -3.72519,3.4493 -6.07068,8.8301 -2.20751,5.3808 -2.20751,12.6932 0,7.4504 2.20751,12.8312 2.34549,5.2428 6.07068,8.8301 3.86315,3.4492 8.69209,5.1048 4.96692,1.6557 10.0718,1.6557 5.10488,0 9.93382,-1.6557 4.96692,-1.6556 8.6921,-5.1048 3.86316,-3.5873 6.07067,-8.8301 2.34549,-5.3808 2.34549,-12.8312 0,-7.3124 -2.34549,-12.6932 -2.20751,-5.3808 -6.07067,-8.8301 -3.72518,-3.4492 -8.6921,-5.1049 -4.82894,-1.6556 -9.93382,-1.6556 z"
       style="font-style:normal;font-variant:normal;font-weight:normal;font-stretch:normal;font-size:137.96980286px;font-family:'La chata';-inkscape-font-specification:'La chata';text-align:center;writing-mode:lr-tb;text-anchor:middle;fill:#1b1b1b;fill-opacity:1"
       id="path3344"
       inkscape:connector-curvature="0" />
    <path
       d="m 887.34962,1757.3944 q 1.10376,0 1.79361,-0.6899 0.68984,-0.6898 0.68984,-1.7936 l 0,-35.3203 q 0,-2.3454 1.65564,-3.4492 1.79361,-1.1038 4.00113,-1.1038 2.20751,0 3.86315,1.1038 1.79361,1.1038 1.79361,3.4492 l 0,101.6838 q 0,2.3455 -1.65564,3.8631 -1.65564,1.3797 -4.00112,1.3797 -3.58722,0 -4.96692,-2.6214 -0.55188,-0.8278 -1.37969,-1.5177 -0.68985,-0.8278 -1.65564,-0.8278 -1.10376,0 -2.06955,0.6899 -4.96691,3.5872 -10.76164,5.2428 -5.79474,1.6557 -11.86541,1.6557 -7.03646,0 -13.93495,-2.4835 -6.89849,-2.3455 -12.41728,-7.1744 -5.38082,-4.9669 -8.6921,-12.4173 -3.31127,-7.4504 -3.31127,-17.5222 0,-10.0718 3.31127,-17.5221 3.44925,-7.4504 8.83007,-12.4173 5.38082,-4.9669 12.27931,-7.3124 6.89849,-2.4835 13.93495,-2.4835 6.07067,0 11.86541,1.7936 5.79473,1.6557 10.76164,5.1049 0.96579,0.6899 1.93158,0.6899 l 0,0 z m -24.55863,60.4307 q 5.10489,0 9.93383,-1.6556 4.96691,-1.6556 8.6921,-5.1049 3.86315,-3.4492 6.07067,-8.83 2.34548,-5.3809 2.34548,-12.6933 0,-7.4503 -2.34548,-12.6932 -2.20752,-5.3808 -6.07067,-8.8301 -3.72519,-3.5872 -8.6921,-5.2428 -4.82894,-1.6556 -9.93383,-1.6556 -5.10488,0 -10.07179,1.6556 -4.82895,1.6556 -8.6921,5.2428 -3.72518,3.4493 -6.07067,8.8301 -2.20752,5.2429 -2.20752,12.6932 0,7.3124 2.20752,12.6933 2.34549,5.3808 6.07067,8.83 3.86315,3.4493 8.6921,5.1049 4.82894,1.6556 10.07179,1.6556 z"
       style="font-style:normal;font-variant:normal;font-weight:normal;font-stretch:normal;font-size:137.96980286px;font-family:'La chata';-inkscape-font-specification:'La chata';text-align:center;writing-mode:lr-tb;text-anchor:middle;fill:#1b1b1b;fill-opacity:1"
       id="path3346"
       inkscape:connector-curvature="0" />
    <path
       d="m 999.24096,1789.6793 q 0,2.0696 -1.3797,3.7252 -1.24173,1.6556 -3.44924,2.0695 l -57.39544,9.106 q 3.58721,7.0365 10.07179,10.3478 6.48458,3.3113 13.79698,3.3113 6.34661,0 12.00338,-2.4835 0.27594,-0.138 0.96578,-0.4139 0.82782,-0.276 1.79361,0 1.10376,0.138 2.20752,0.9658 1.10376,0.6898 1.93158,2.6214 0.96579,1.9316 0.41391,4.0011 -0.41391,2.0696 -2.7594,3.1733 -7.72631,3.4493 -16.55638,3.4493 -7.03646,0 -13.93495,-2.4835 -6.89849,-2.3455 -12.27931,-7.3124 -5.38082,-4.9669 -8.83007,-12.4173 -3.31127,-7.4503 -3.31127,-17.5221 0,-10.0718 3.31127,-17.5222 3.31128,-7.4504 8.6921,-12.2793 5.51879,-4.9669 12.41728,-7.3124 6.89849,-2.4835 13.93495,-2.4835 7.03646,0 13.79698,2.4835 6.89849,2.3455 12.27932,7.3124 5.51879,4.8289 8.83006,12.2793 3.44925,7.3124 3.44925,17.3842 z m -63.46611,3.5872 50.22101,-8.0022 q 0.82782,-0.138 1.10376,-0.8278 0.41391,-0.6899 0.27594,-1.3797 -1.10376,-5.5188 -3.72519,-9.52 -2.48346,-4.1391 -6.07067,-6.7605 -3.58722,-2.7594 -8.00225,-4.0011 -4.27706,-1.2417 -8.6921,-1.2417 -5.24285,0 -10.07179,1.6556 -4.82895,1.6556 -8.6921,5.1049 -3.72518,3.4492 -6.07067,8.8301 -2.20752,5.3808 -2.20752,12.6932 l 0,1.9316 q 0.27594,1.7936 1.93158,1.5176 z"
       style="font-style:normal;font-variant:normal;font-weight:normal;font-stretch:normal;font-size:137.96980286px;font-family:'La chata';-inkscape-font-specification:'La chata';text-align:center;writing-mode:lr-tb;text-anchor:middle;fill:#1b1b1b;fill-opacity:1"
       id="path3348"
       inkscape:connector-curvature="0" />
    <path
       d="m 1096.1367,1732.5598 0,89.1285 q 0,2.3455 -1.7936,3.5872 -1.6556,1.2417 -3.8631,1.2417 -2.2075,0 -4.0012,-1.2417 -1.6556,-1.2417 -1.6556,-3.5872 l 0,-89.1285 q 0,-2.0695 -1.3797,-3.4492 -1.3797,-1.3797 -3.4492,-1.3797 l -15.0387,0 q -2.3455,0 -3.5873,-1.6557 -1.2417,-1.7936 -1.2417,-4.0011 0,-2.3455 1.2417,-4.0011 1.2418,-1.6557 3.5873,-1.6557 l 51.0488,0 q 2.3455,0 3.5872,1.6557 1.3797,1.6556 1.3797,4.0011 0,2.2075 -1.3797,4.0011 -1.2417,1.6557 -3.5872,1.6557 l -15.0387,0 q -1.9316,0 -3.4493,1.3797 -1.3797,1.3797 -1.3797,3.4492 z"
       style="font-style:normal;font-variant:normal;font-weight:normal;font-stretch:normal;font-size:137.96980286px;font-family:'La chata';-inkscape-font-specification:'La chata';text-align:center;writing-mode:lr-tb;text-anchor:middle;fill:#1b1b1b;fill-opacity:1"
       id="path3350"
       inkscape:connector-curvature="0" />
    <path
       d="m 1149.2357,1752.5654 q 0,1.3797 0.9658,2.3455 0.9658,0.9658 2.4834,0.9658 1.1038,0 1.7936,-0.5519 4.829,-3.1733 10.3478,-4.6909 5.6567,-1.5177 11.4515,-1.5177 7.0364,0 13.9349,2.4834 6.8985,2.3455 12.2793,7.3124 5.3809,4.829 8.6921,12.2794 3.4493,7.4503 3.4493,17.5221 l 0,32.9748 q 0,2.3455 -1.7936,3.5872 -1.6557,1.1038 -3.8632,1.1038 -2.2075,0 -4.0011,-1.1038 -1.6556,-1.2417 -1.6556,-3.5872 l 0,-32.9748 q 0,-7.3124 -2.3455,-12.6932 -2.2075,-5.3808 -6.0707,-8.8301 -3.7252,-3.4492 -8.6921,-5.1049 -4.8289,-1.6556 -9.9338,-1.6556 -5.2429,0 -10.0718,1.6556 -4.829,1.6557 -8.6921,5.1049 -3.7252,3.4493 -6.0707,8.8301 -2.2075,5.3808 -2.2075,12.6932 l 0,32.9748 q 0,2.3455 -1.7936,3.5872 -1.6557,1.1038 -3.8632,1.1038 -2.2075,0 -4.0011,-1.1038 -1.6556,-1.2417 -1.6556,-3.5872 l 0,-102.0977 q 0,-2.3454 1.7936,-3.4492 1.7936,-1.2417 3.8631,-1.2417 2.2075,0 3.8632,1.2417 1.7936,1.1038 1.7936,3.4492 l 0,32.9748 z"
       style="font-style:normal;font-variant:normal;font-weight:normal;font-stretch:normal;font-size:137.96980286px;font-family:'La chata';-inkscape-font-specification:'La chata';text-align:center;writing-mode:lr-tb;text-anchor:middle;fill:#1b1b1b;fill-opacity:1"
       id="path3352"
       inkscape:connector-curvature="0" />
    <path
       d="m 1271.8434,1829.1387 q -7.0364,0 -13.9349,-2.4835 -6.8985,-2.3455 -12.2793,-7.3124 -5.3809,-4.9669 -8.8301,-12.4173 -3.3113,-7.4503 -3.3113,-17.5221 0,-10.0718 3.3113,-17.5222 3.3113,-7.4504 8.6921,-12.2793 5.5188,-4.9669 12.4173,-7.3124 6.8985,-2.4835 13.9349,-2.4835 7.1745,0 14.0729,2.4835 6.8985,2.3455 12.2794,7.3124 5.3808,4.8289 8.6921,12.2793 3.3112,7.4504 3.3112,17.5222 0,10.0718 -3.3112,17.5221 -3.3113,7.4504 -8.8301,12.4173 -5.3808,4.9669 -12.2793,7.3124 -6.8985,2.4835 -13.935,2.4835 z m 0,-11.3136 q 5.1049,0 9.9338,-1.6556 4.967,-1.6556 8.6921,-5.1049 3.8632,-3.5872 6.0707,-8.968 2.3455,-5.3808 2.3455,-12.6932 0,-7.3124 -2.3455,-12.6933 -2.2075,-5.3808 -6.0707,-8.83 -3.7251,-3.4493 -8.6921,-5.1049 -4.8289,-1.6556 -9.9338,-1.6556 -5.1049,0 -10.0718,1.6556 -4.8289,1.6556 -8.6921,5.1049 -3.7252,3.4492 -6.0706,8.83 -2.2076,5.3809 -2.2076,12.6933 0,7.3124 2.3455,12.6932 2.3455,5.3808 6.0707,8.968 3.8632,3.4493 8.6921,5.1049 4.8289,1.6556 9.9338,1.6556 z"
       style="font-style:normal;font-variant:normal;font-weight:normal;font-stretch:normal;font-size:137.96980286px;font-family:'La chata';-inkscape-font-specification:'La chata';text-align:center;writing-mode:lr-tb;text-anchor:middle;fill:#1b1b1b;fill-opacity:1"
       id="path3354"
       inkscape:connector-curvature="0" />
    <path
       d="m 1340.3843,1789.4034 0,32.1469 q 0,2.4835 -1.7937,3.7252 -1.7936,1.1038 -3.8631,1.1038 -2.0696,0 -3.8632,-1.1038 -1.7936,-1.2417 -1.7936,-3.7252 l 0,-32.1469 q 0,-8.5542 2.7594,-15.7286 2.7594,-7.3124 7.7263,-12.5552 5.1049,-5.3809 12.1414,-8.4162 7.0364,-3.0353 15.7285,-3.0353 1.7936,0 4.0012,0.2759 2.3454,0.138 4.553,0.5519 2.3455,0.4139 4.415,1.1037 2.0695,0.6899 3.7252,1.6557 1.7936,0.9658 2.3455,2.7594 0.6898,1.6556 0.2759,3.3112 -0.4139,1.6557 -1.7936,2.8974 -1.2417,1.2417 -3.3113,1.2417 -2.3455,0 -5.9327,-1.2417 -3.4492,-1.2417 -8.2782,-1.2417 -6.3466,0 -11.3135,2.2075 -4.9669,2.0695 -8.5541,5.9327 -3.4493,3.7252 -5.3808,8.968 -1.7936,5.1049 -1.7936,11.3136 z"
       style="font-style:normal;font-variant:normal;font-weight:normal;font-stretch:normal;font-size:137.96980286px;font-family:'La chata';-inkscape-font-specification:'La chata';text-align:center;writing-mode:lr-tb;text-anchor:middle;fill:#1b1b1b;fill-opacity:1"
       id="path3356"
       inkscape:connector-curvature="0" />
    <path
       d="m 1413.9825,1755.3248 q 0.9658,1.9316 2.7594,1.9316 1.1038,0 2.0696,-0.6898 4.9669,-3.4493 10.7616,-5.1049 5.7947,-1.7936 11.8654,-1.7936 7.0365,0 13.935,2.4834 6.8985,2.3455 12.2793,7.3124 5.5188,4.829 8.83,12.2793 3.3113,7.4504 3.3113,17.5222 l 0,32.2849 q 0,2.3455 -1.7936,3.5872 -1.6556,1.2418 -3.8631,1.2418 -2.2076,0 -4.0012,-1.2418 -1.6556,-1.2417 -1.6556,-3.5872 l 0,-32.1469 q 0,-7.4504 -2.3455,-12.6933 -2.2075,-5.3808 -6.0707,-8.83 -3.7252,-3.5872 -8.6921,-5.2429 -4.8289,-1.6556 -9.9338,-1.6556 -5.1049,0 -9.9338,1.6556 -4.829,1.6557 -8.6921,5.1049 -3.7252,3.4493 -6.0707,8.8301 -2.3455,5.2428 -2.3455,12.5552 l 0,32.4229 q 0,2.3455 -1.7936,3.5872 -1.6556,1.2418 -3.8631,1.2418 -2.2075,0 -4.0012,-1.2418 -1.6556,-1.2417 -1.6556,-3.5872 l 0,-63.604 q 0,-2.4835 1.6556,-4.0012 1.7937,-1.6556 4.0012,-1.6556 3.8631,0 5.2428,3.0353 z"
       style="font-style:normal;font-variant:normal;font-weight:normal;font-stretch:normal;font-size:137.96980286px;font-family:'La chata';-inkscape-font-specification:'La chata';text-align:center;writing-mode:lr-tb;text-anchor:middle;fill:#1b1b1b;fill-opacity:1"
       id="path3358"
       inkscape:connector-curvature="0" />
    <path
       d="m 1517.2744,1789.4034 q 0,7.3124 2.2076,12.6932 2.3455,5.3808 6.0706,8.968 3.8632,3.4493 8.6921,5.1049 4.9669,1.6556 10.0718,1.6556 2.3455,0 3.5872,1.7937 1.3797,1.6556 1.3797,3.8631 0,2.2075 -1.3797,3.8632 -1.2417,1.7936 -3.5872,1.7936 -7.0364,0 -13.9349,-2.4835 -6.8985,-2.3455 -12.2793,-7.3124 -5.3809,-4.9669 -8.8301,-12.4173 -3.3113,-7.4503 -3.3113,-17.5221 l 0,-22.4891 q 0,-2.0696 -1.5176,-3.4493 -1.3797,-1.3797 -3.3113,-1.3797 l -4.691,0 q -1.9316,0 -3.0353,-1.3797 -0.9658,-1.5176 -0.9658,-3.4492 0,-1.9316 0.9658,-3.3113 1.1037,-1.5176 3.0353,-1.5176 l 4.691,0 q 1.9316,0 3.3113,-1.3797 1.5176,-1.5177 1.5176,-3.4493 l 0,-27.8699 q 0,-2.3455 1.6557,-3.5872 1.7936,-1.2417 4.0011,-1.2417 2.2075,0 3.8631,1.2417 1.7936,1.2417 1.7936,3.5872 l 0,27.8699 q 0,1.9316 1.3797,3.4493 1.5177,1.3797 3.4493,1.3797 l 16.9703,0 q 1.9316,0 3.0353,1.5176 1.1038,1.3797 1.1038,3.3113 0,1.9316 -1.1038,3.4492 -1.1037,1.3797 -3.0353,1.3797 l -16.9703,0 q -1.9316,0 -3.4493,1.3797 -1.3797,1.3797 -1.3797,3.4493 l 0,22.4891 z"
       style="font-style:normal;font-variant:normal;font-weight:normal;font-stretch:normal;font-size:137.96980286px;font-family:'La chata';-inkscape-font-specification:'La chata';text-align:center;writing-mode:lr-tb;text-anchor:middle;fill:#1b1b1b;fill-opacity:1"
       id="path3360"
       inkscape:connector-curvature="0" />
    <path
       d="m 1596.827,1829.1387 q -7.0365,0 -13.9349,-2.4835 -6.8985,-2.3455 -12.2794,-7.3124 -5.3808,-4.9669 -8.83,-12.4173 -3.3113,-7.4503 -3.3113,-17.5221 0,-10.0718 3.3113,-17.5222 3.3112,-7.4504 8.6921,-12.2793 5.5188,-4.9669 12.4173,-7.3124 6.8984,-2.4835 13.9349,-2.4835 7.1744,0 14.0729,2.4835 6.8985,2.3455 12.2793,7.3124 5.3809,4.8289 8.6921,12.2793 3.3113,7.4504 3.3113,17.5222 0,10.0718 -3.3113,17.5221 -3.3112,7.4504 -8.83,12.4173 -5.3809,4.9669 -12.2793,7.3124 -6.8985,2.4835 -13.935,2.4835 z m 0,-11.3136 q 5.1049,0 9.9338,-1.6556 4.9669,-1.6556 8.6921,-5.1049 3.8632,-3.5872 6.0707,-8.968 2.3455,-5.3808 2.3455,-12.6932 0,-7.3124 -2.3455,-12.6933 -2.2075,-5.3808 -6.0707,-8.83 -3.7252,-3.4493 -8.6921,-5.1049 -4.8289,-1.6556 -9.9338,-1.6556 -5.1049,0 -10.0718,1.6556 -4.8289,1.6556 -8.6921,5.1049 -3.7252,3.4492 -6.0707,8.83 -2.2075,5.3809 -2.2075,12.6933 0,7.3124 2.3455,12.6932 2.3455,5.3808 6.0707,8.968 3.8631,3.4493 8.6921,5.1049 4.8289,1.6556 9.9338,1.6556 z"
       style="font-style:normal;font-variant:normal;font-weight:normal;font-stretch:normal;font-size:137.96980286px;font-family:'La chata';-inkscape-font-specification:'La chata';text-align:center;writing-mode:lr-tb;text-anchor:middle;fill:#1b1b1b;fill-opacity:1"
       id="path3362"
       inkscape:connector-curvature="0" />
    <path
       d="m 1666.7475,1755.3248 q 0.9658,1.9316 2.7594,1.9316 1.1037,0 2.0695,-0.6898 4.9669,-3.4493 10.7617,-5.1049 5.7947,-1.7936 11.8654,-1.7936 7.0364,0 13.9349,2.4834 6.8985,2.3455 12.2793,7.3124 5.5188,4.829 8.8301,12.2793 3.3113,7.4504 3.3113,17.5222 l 0,32.2849 q 0,2.3455 -1.7936,3.5872 -1.6557,1.2418 -3.8632,1.2418 -2.2075,0 -4.0011,-1.2418 -1.6557,-1.2417 -1.6557,-3.5872 l 0,-32.1469 q 0,-7.4504 -2.3454,-12.6933 -2.2076,-5.3808 -6.0707,-8.83 -3.7252,-3.5872 -8.6921,-5.2429 -4.829,-1.6556 -9.9338,-1.6556 -5.1049,0 -9.9339,1.6556 -4.8289,1.6557 -8.6921,5.1049 -3.7251,3.4493 -6.0706,8.8301 -2.3455,5.2428 -2.3455,12.5552 l 0,32.4229 q 0,2.3455 -1.7936,3.5872 -1.6557,1.2418 -3.8632,1.2418 -2.2075,0 -4.0011,-1.2418 -1.6556,-1.2417 -1.6556,-3.5872 l 0,-63.604 q 0,-2.4835 1.6556,-4.0012 1.7936,-1.6556 4.0011,-1.6556 3.8632,0 5.2429,3.0353 z"
       style="font-style:normal;font-variant:normal;font-weight:normal;font-stretch:normal;font-size:137.96980286px;font-family:'La chata';-inkscape-font-specification:'La chata';text-align:center;writing-mode:lr-tb;text-anchor:middle;fill:#1b1b1b;fill-opacity:1"
       id="path3364"
       inkscape:connector-curvature="0" />
  </g>
  <g
     style="font-style:normal;font-weight:normal;font-size:40px;line-height:125%;font-family:sans-serif;letter-spacing:0px;word-spacing:0px;fill:#000000;fill-opacity:1;stroke:none;stroke-width:1px;stroke-linecap:butt;stroke-linejoin:miter;stroke-opacity:1"
     id="text4310"
     transform="matrix(0.81915204,-0.57357644,0.57357644,0.81915204,-496.86061,1620.9777)">
    <path
       d="m 2264.9649,928.67932 q -2.52,-6.48 -5.4,-14.76 -2.79,-8.37 -5.13,-17.37 -2.34,9 -5.13,17.37 -2.79,8.28 -5.31,14.76 l -7.29,0 q -4.14,-9.27 -8.1,-21.15 -3.96,-11.88 -7.47,-25.65 l 9,0 q 0.9,4.23 2.16,9.18 1.26,4.95 2.61,9.9 1.44,4.95 2.97,9.54 1.53,4.59 2.88,8.01 1.53,-4.23 2.97,-8.91 1.53,-4.77 2.88,-9.54 1.35,-4.86 2.52,-9.45 1.26,-4.68 2.16,-8.73 l 6.93,0 q 0.81,4.05 1.98,8.73 1.17,4.59 2.52,9.45 1.35,4.77 2.79,9.54 1.53,4.68 3.06,8.91 1.35,-3.42 2.79,-8.01 1.53,-4.59 2.97,-9.54 1.44,-4.95 2.7,-9.9 1.26,-4.95 2.16,-9.18 l 8.64,0 q -3.51,13.77 -7.47,25.65 -3.96,11.88 -8.1,21.15 l -7.29,0 z"
       style="font-style:normal;font-variant:normal;font-weight:normal;font-stretch:normal;font-size:90px;font-family:Ubuntu;-inkscape-font-specification:Ubuntu"
       id="path4319"
       inkscape:connector-curvature="0" />
    <path
       d="m 2294.0658,905.36932 q 0,-6.21 1.8,-10.8 1.8,-4.68 4.77,-7.74 2.97,-3.06 6.84,-4.59 3.87,-1.53 7.92,-1.53 9.45,0 14.49,5.94 5.04,5.85 5.04,17.91 0,0.54 0,1.44 0,0.81 -0.09,1.53 l -32.04,0 q 0.54,7.29 4.23,11.07 3.69,3.78 11.52,3.78 4.41,0 7.38,-0.72 3.06,-0.81 4.59,-1.53 l 1.17,7.02 q -1.53,0.81 -5.4,1.71 -3.78,0.9 -8.64,0.9 -6.12,0 -10.62,-1.8 -4.41,-1.89 -7.29,-5.13 -2.88,-3.24 -4.32,-7.65 -1.35,-4.5 -1.35,-9.81 z m 32.13,-4.59 q 0.09,-5.67 -2.88,-9.27 -2.88,-3.69 -8.01,-3.69 -2.88,0 -5.13,1.17 -2.16,1.08 -3.69,2.88 -1.53,1.8 -2.43,4.14 -0.81,2.34 -1.08,4.77 l 23.22,0 z"
       style="font-style:normal;font-variant:normal;font-weight:normal;font-stretch:normal;font-size:90px;font-family:Ubuntu;-inkscape-font-specification:Ubuntu"
       id="path4321"
       inkscape:connector-curvature="0" />
    <path
       d="m 2355.3193,883.94932 q 1.53,-0.99 4.59,-2.07 3.15,-1.08 7.2,-1.08 5.04,0 8.91,1.8 3.96,1.8 6.66,5.04 2.7,3.24 4.05,7.74 1.44,4.5 1.44,9.9 0,5.67 -1.71,10.26 -1.62,4.5 -4.68,7.65 -3.06,3.15 -7.38,4.86 -4.32,1.71 -9.72,1.71 -5.85,0 -10.35,-0.81 -4.5,-0.81 -7.38,-1.62 l 0,-67.05 8.37,-1.44 0,25.11 z m 0,37.44 q 1.26,0.36 3.51,0.72 2.34,0.27 5.76,0.27 6.75,0 10.8,-4.41 4.05,-4.5 4.05,-12.69 0,-3.6 -0.72,-6.75 -0.72,-3.15 -2.34,-5.4 -1.62,-2.34 -4.23,-3.6 -2.52,-1.35 -6.12,-1.35 -3.42,0 -6.3,1.17 -2.88,1.17 -4.41,2.43 l 0,29.61 z"
       style="font-style:normal;font-variant:normal;font-weight:normal;font-stretch:normal;font-size:90px;font-family:Ubuntu;-inkscape-font-specification:Ubuntu"
       id="path4323"
       inkscape:connector-curvature="0" />
    <path
       d="m 2451.0174,891.77932 q -1.53,-1.26 -4.41,-2.43 -2.88,-1.17 -6.3,-1.17 -3.6,0 -6.21,1.35 -2.52,1.26 -4.14,3.6 -1.62,2.25 -2.34,5.4 -0.72,3.15 -0.72,6.75 0,8.19 4.05,12.69 4.05,4.41 10.8,4.41 3.42,0 5.67,-0.27 2.34,-0.36 3.6,-0.72 l 0,-29.61 z m 0,-31.5 8.37,-1.44 0,68.49 q -2.88,0.81 -7.38,1.62 -4.5,0.81 -10.35,0.81 -5.4,0 -9.72,-1.71 -4.32,-1.71 -7.38,-4.86 -3.06,-3.15 -4.77,-7.65 -1.62,-4.59 -1.62,-10.26 0,-5.4 1.35,-9.9 1.44,-4.5 4.14,-7.74 2.7,-3.24 6.57,-5.04 3.96,-1.8 9,-1.8 4.05,0 7.11,1.08 3.15,1.08 4.68,2.07 l 0,-23.67 z"
       style="font-style:normal;font-variant:normal;font-weight:normal;font-stretch:normal;font-size:90px;font-family:Ubuntu;-inkscape-font-specification:Ubuntu"
       id="path4325"
       inkscape:connector-curvature="0" />
    <path
       d="m 2471.2533,905.36932 q 0,-6.21 1.8,-10.8 1.8,-4.68 4.77,-7.74 2.97,-3.06 6.84,-4.59 3.87,-1.53 7.92,-1.53 9.45,0 14.49,5.94 5.04,5.85 5.04,17.91 0,0.54 0,1.44 0,0.81 -0.09,1.53 l -32.04,0 q 0.54,7.29 4.23,11.07 3.69,3.78 11.52,3.78 4.41,0 7.38,-0.72 3.06,-0.81 4.59,-1.53 l 1.17,7.02 q -1.53,0.81 -5.4,1.71 -3.78,0.9 -8.64,0.9 -6.12,0 -10.62,-1.8 -4.41,-1.89 -7.29,-5.13 -2.88,-3.24 -4.32,-7.65 -1.35,-4.5 -1.35,-9.81 z m 32.13,-4.59 q 0.09,-5.67 -2.88,-9.27 -2.88,-3.69 -8.01,-3.69 -2.88,0 -5.13,1.17 -2.16,1.08 -3.69,2.88 -1.53,1.8 -2.43,4.14 -0.81,2.34 -1.08,4.77 l 23.22,0 z"
       style="font-style:normal;font-variant:normal;font-weight:normal;font-stretch:normal;font-size:90px;font-family:Ubuntu;-inkscape-font-specification:Ubuntu"
       id="path4327"
       inkscape:connector-curvature="0" />
    <path
       d="m 2560.6768,881.87932 q -3.51,13.14 -8.28,25.2 -4.68,12.06 -9.09,21.6 l -7.56,0 q -4.41,-9.54 -9.18,-21.6 -4.68,-12.06 -8.19,-25.2 l 9,0 q 1.08,4.41 2.52,9.45 1.53,4.95 3.15,9.9 1.71,4.86 3.42,9.45 1.71,4.59 3.24,8.19 1.53,-3.6 3.24,-8.19 1.71,-4.59 3.33,-9.45 1.71,-4.95 3.15,-9.9 1.53,-5.04 2.61,-9.45 l 8.64,0 z"
       style="font-style:normal;font-variant:normal;font-weight:normal;font-stretch:normal;font-size:90px;font-family:Ubuntu;-inkscape-font-specification:Ubuntu"
       id="path4329"
       inkscape:connector-curvature="0" />
    <path
       d="m 2565.4721,905.36932 q 0,-6.21 1.8,-10.8 1.8,-4.68 4.77,-7.74 2.97,-3.06 6.84,-4.59 3.87,-1.53 7.92,-1.53 9.45,0 14.49,5.94 5.04,5.85 5.04,17.91 0,0.54 0,1.44 0,0.81 -0.09,1.53 l -32.04,0 q 0.54,7.29 4.23,11.07 3.69,3.78 11.52,3.78 4.41,0 7.38,-0.72 3.06,-0.81 4.59,-1.53 l 1.17,7.02 q -1.53,0.81 -5.4,1.71 -3.78,0.9 -8.64,0.9 -6.12,0 -10.62,-1.8 -4.41,-1.89 -7.29,-5.13 -2.88,-3.24 -4.32,-7.65 -1.35,-4.5 -1.35,-9.81 z m 32.13,-4.59 q 0.09,-5.67 -2.88,-9.27 -2.88,-3.69 -8.01,-3.69 -2.88,0 -5.13,1.17 -2.16,1.08 -3.69,2.88 -1.53,1.8 -2.43,4.14 -0.81,2.34 -1.08,4.77 l 23.22,0 z"
       style="font-style:normal;font-variant:normal;font-weight:normal;font-stretch:normal;font-size:90px;font-family:Ubuntu;-inkscape-font-specification:Ubuntu"
       id="path4331"
       inkscape:connector-curvature="0" />
    <path
       d="m 2632.3955,929.57932 q -7.74,-0.18 -10.98,-3.33 -3.24,-3.15 -3.24,-9.81 l 0,-56.16 8.37,-1.44 0,56.25 q 0,2.07 0.36,3.42 0.36,1.35 1.17,2.16 0.81,0.81 2.16,1.26 1.35,0.36 3.33,0.63 l -1.17,7.02 z"
       style="font-style:normal;font-variant:normal;font-weight:normal;font-stretch:normal;font-size:90px;font-family:Ubuntu;-inkscape-font-specification:Ubuntu"
       id="path4333"
       inkscape:connector-curvature="0" />
    <path
       d="m 2684.2749,905.27932 q 0,5.58 -1.62,10.08 -1.62,4.5 -4.59,7.74 -2.88,3.24 -6.93,5.04 -4.05,1.71 -8.82,1.71 -4.77,0 -8.82,-1.71 -4.05,-1.8 -7.02,-5.04 -2.88,-3.24 -4.5,-7.74 -1.62,-4.5 -1.62,-10.08 0,-5.49 1.62,-9.99 1.62,-4.59 4.5,-7.83 2.97,-3.24 7.02,-4.95 4.05,-1.8 8.82,-1.8 4.77,0 8.82,1.8 4.05,1.71 6.93,4.95 2.97,3.24 4.59,7.83 1.62,4.5 1.62,9.99 z m -8.73,0 q 0,-7.92 -3.6,-12.51 -3.51,-4.68 -9.63,-4.68 -6.12,0 -9.72,4.68 -3.51,4.59 -3.51,12.51 0,7.92 3.51,12.6 3.6,4.59 9.72,4.59 6.12,0 9.63,-4.59 3.6,-4.68 3.6,-12.6 z"
       style="font-style:normal;font-variant:normal;font-weight:normal;font-stretch:normal;font-size:90px;font-family:Ubuntu;-inkscape-font-specification:Ubuntu"
       id="path4335"
       inkscape:connector-curvature="0" />
    <path
       d="m 2728.5408,905.36932 q 0,-8.19 -4.05,-12.6 -4.05,-4.41 -10.8,-4.41 -3.78,0 -5.94,0.27 -2.07,0.27 -3.33,0.63 l 0,29.52 q 1.53,1.26 4.41,2.43 2.88,1.17 6.3,1.17 3.6,0 6.12,-1.26 2.61,-1.35 4.23,-3.6 1.62,-2.34 2.34,-5.4 0.72,-3.15 0.72,-6.75 z m 8.73,0 q 0,5.31 -1.44,9.81 -1.35,4.5 -4.05,7.74 -2.7,3.24 -6.66,5.04 -3.87,1.8 -8.91,1.8 -4.05,0 -7.2,-1.08 -3.06,-1.08 -4.59,-2.07 l 0,18.72 -8.37,0 0,-62.01 q 2.97,-0.72 7.38,-1.53 4.5,-0.9 10.35,-0.9 5.4,0 9.72,1.71 4.32,1.71 7.38,4.86 3.06,3.15 4.68,7.74 1.71,4.5 1.71,10.17 z"
       style="font-style:normal;font-variant:normal;font-weight:normal;font-stretch:normal;font-size:90px;font-family:Ubuntu;-inkscape-font-specification:Ubuntu"
       id="path4337"
       inkscape:connector-curvature="0" />
    <path
       d="m 2746.5268,905.36932 q 0,-6.21 1.8,-10.8 1.8,-4.68 4.77,-7.74 2.97,-3.06 6.84,-4.59 3.87,-1.53 7.92,-1.53 9.45,0 14.49,5.94 5.04,5.85 5.04,17.91 0,0.54 0,1.44 0,0.81 -0.09,1.53 l -32.04,0 q 0.54,7.29 4.23,11.07 3.69,3.78 11.52,3.78 4.41,0 7.38,-0.72 3.06,-0.81 4.59,-1.53 l 1.17,7.02 q -1.53,0.81 -5.4,1.71 -3.78,0.9 -8.64,0.9 -6.12,0 -10.62,-1.8 -4.41,-1.89 -7.29,-5.13 -2.88,-3.24 -4.32,-7.65 -1.35,-4.5 -1.35,-9.81 z m 32.13,-4.59 q 0.09,-5.67 -2.88,-9.27 -2.88,-3.69 -8.01,-3.69 -2.88,0 -5.13,1.17 -2.16,1.08 -3.69,2.88 -1.53,1.8 -2.43,4.14 -0.81,2.34 -1.08,4.77 l 23.22,0 z"
       style="font-style:normal;font-variant:normal;font-weight:normal;font-stretch:normal;font-size:90px;font-family:Ubuntu;-inkscape-font-specification:Ubuntu"
       id="path4339"
       inkscape:connector-curvature="0" />
    <path
       d="m 2816.6902,880.88932 q 1.08,0 2.43,0.18 1.44,0.09 2.79,0.36 1.35,0.18 2.43,0.45 1.17,0.18 1.71,0.36 l -1.44,7.29 q -0.99,-0.36 -3.33,-0.81 -2.25,-0.54 -5.85,-0.54 -2.34,0 -4.68,0.54 -2.25,0.45 -2.97,0.63 l 0,39.33 -8.37,0 0,-44.82 q 2.97,-1.08 7.38,-1.98 4.41,-0.99 9.9,-0.99 z"
       style="font-style:normal;font-variant:normal;font-weight:normal;font-stretch:normal;font-size:90px;font-family:Ubuntu;-inkscape-font-specification:Ubuntu"
       id="path4341"
       inkscape:connector-curvature="0" />
  </g>
  <g
     style="font-style:normal;font-weight:normal;font-size:40px;line-height:125%;font-family:sans-serif;letter-spacing:0px;word-spacing:0px;fill:#000000;fill-opacity:1;stroke:none;stroke-width:1px;stroke-linecap:butt;stroke-linejoin:miter;stroke-opacity:1"
     id="text4314"
     transform="matrix(0.81915204,-0.57357644,0.57357644,0.81915204,-1455.9574,2066.7742)">
    <path
       d="m 2253.3461,1095.803 q 5.13,0 7.56,-1.35 2.52,-1.35 2.52,-4.32 0,-3.06 -2.43,-4.86 -2.43,-1.8 -8.01,-4.05 -2.7,-1.08 -5.22,-2.16 -2.43,-1.17 -4.23,-2.7 -1.8,-1.53 -2.88,-3.69 -1.08,-2.16 -1.08,-5.31 0,-6.21 4.59,-9.81 4.59,-3.69 12.51,-3.69 1.98,0 3.96,0.27 1.98,0.18 3.69,0.54 1.71,0.27 2.97,0.63 1.35,0.36 2.07,0.63 l -1.53,7.2 q -1.35,-0.72 -4.23,-1.44 -2.88,-0.81 -6.93,-0.81 -3.51,0 -6.12,1.44 -2.61,1.35 -2.61,4.32 0,1.53 0.54,2.7 0.63,1.17 1.8,2.16 1.26,0.9 3.06,1.71 1.8,0.81 4.32,1.71 3.33,1.26 5.94,2.52 2.61,1.17 4.41,2.79 1.89,1.62 2.88,3.96 0.99,2.25 0.99,5.58 0,6.48 -4.86,9.81 -4.77,3.33 -13.68,3.33 -6.21,0 -9.72,-1.08 -3.51,-0.99 -4.77,-1.53 l 1.53,-7.2 q 1.44,0.54 4.59,1.62 3.15,1.08 8.37,1.08 z"
       style="font-style:normal;font-variant:normal;font-weight:normal;font-stretch:normal;font-size:90px;font-family:Ubuntu;-inkscape-font-specification:Ubuntu"
       id="path4344"
       inkscape:connector-curvature="0" />
    <path
       d="m 2323.8442,1078.433 q 0,5.58 -1.62,10.08 -1.62,4.5 -4.59,7.74 -2.88,3.24 -6.93,5.04 -4.05,1.71 -8.82,1.71 -4.77,0 -8.82,-1.71 -4.05,-1.8 -7.02,-5.04 -2.88,-3.24 -4.5,-7.74 -1.62,-4.5 -1.62,-10.08 0,-5.49 1.62,-9.99 1.62,-4.59 4.5,-7.83 2.97,-3.24 7.02,-4.95 4.05,-1.8 8.82,-1.8 4.77,0 8.82,1.8 4.05,1.71 6.93,4.95 2.97,3.24 4.59,7.83 1.62,4.5 1.62,9.99 z m -8.73,0 q 0,-7.92 -3.6,-12.51 -3.51,-4.68 -9.63,-4.68 -6.12,0 -9.72,4.68 -3.51,4.59 -3.51,12.51 0,7.92 3.51,12.6 3.6,4.59 9.72,4.59 6.12,0 9.63,-4.59 3.6,-4.68 3.6,-12.6 z"
       style="font-style:normal;font-variant:normal;font-weight:normal;font-stretch:normal;font-size:90px;font-family:Ubuntu;-inkscape-font-specification:Ubuntu"
       id="path4346"
       inkscape:connector-curvature="0" />
    <path
       d="m 2353.8902,1031.993 q 3.69,0 6.3,0.54 2.7,0.54 3.78,0.99 l -1.53,7.2 q -1.08,-0.54 -3.06,-0.99 -1.98,-0.54 -4.86,-0.54 -5.85,0 -8.19,3.24 -2.34,3.15 -2.34,8.55 l 0,4.05 18,0 0,7.02 -18,0 0,39.78 -8.37,0 0,-51.03 q 0,-9 4.41,-13.86 4.41,-4.95 13.86,-4.95 z"
       style="font-style:normal;font-variant:normal;font-weight:normal;font-stretch:normal;font-size:90px;font-family:Ubuntu;-inkscape-font-specification:Ubuntu"
       id="path4348"
       inkscape:connector-curvature="0" />
    <path
       d="m 2378.2549,1055.033 17.73,0 0,7.02 -17.73,0 0,21.6 q 0,3.51 0.54,5.85 0.54,2.25 1.62,3.6 1.08,1.26 2.7,1.8 1.62,0.54 3.78,0.54 3.78,0 6.03,-0.81 2.34,-0.9 3.24,-1.26 l 1.62,6.93 q -1.26,0.63 -4.41,1.53 -3.15,0.99 -7.2,0.99 -4.77,0 -7.92,-1.17 -3.06,-1.26 -4.95,-3.69 -1.89,-2.43 -2.7,-5.94 -0.72,-3.6 -0.72,-8.28 l 0,-41.76 8.37,-1.44 0,14.49 z"
       style="font-style:normal;font-variant:normal;font-weight:normal;font-stretch:normal;font-size:90px;font-family:Ubuntu;-inkscape-font-specification:Ubuntu"
       id="path4350"
       inkscape:connector-curvature="0" />
    <path
       d="m 2444.8858,1101.833 q -2.52,-6.48 -5.4,-14.76 -2.79,-8.37 -5.13,-17.37 -2.34,9 -5.13,17.37 -2.79,8.28 -5.31,14.76 l -7.29,0 q -4.14,-9.27 -8.1,-21.15 -3.96,-11.88 -7.47,-25.65 l 9,0 q 0.9,4.23 2.16,9.18 1.26,4.95 2.61,9.9 1.44,4.95 2.97,9.54 1.53,4.59 2.88,8.01 1.53,-4.23 2.97,-8.91 1.53,-4.77 2.88,-9.54 1.35,-4.86 2.52,-9.45 1.26,-4.68 2.16,-8.73 l 6.93,0 q 0.81,4.05 1.98,8.73 1.17,4.59 2.52,9.45 1.35,4.77 2.79,9.54 1.53,4.68 3.06,8.91 1.35,-3.42 2.79,-8.01 1.53,-4.59 2.97,-9.54 1.44,-4.95 2.7,-9.9 1.26,-4.95 2.16,-9.18 l 8.64,0 q -3.51,13.77 -7.47,25.65 -3.96,11.88 -8.1,21.15 l -7.29,0 z"
       style="font-style:normal;font-variant:normal;font-weight:normal;font-stretch:normal;font-size:90px;font-family:Ubuntu;-inkscape-font-specification:Ubuntu"
       id="path4352"
       inkscape:connector-curvature="0" />
    <path
       d="m 2492.4367,1095.803 q 2.97,0 5.22,-0.09 2.34,-0.18 3.87,-0.54 l 0,-13.95 q -0.9,-0.45 -2.97,-0.72 -1.98,-0.36 -4.86,-0.36 -1.89,0 -4.05,0.27 -2.07,0.27 -3.87,1.17 -1.71,0.81 -2.88,2.34 -1.17,1.44 -1.17,3.87 0,4.5 2.88,6.3 2.88,1.71 7.83,1.71 z m -0.72,-41.94 q 5.04,0 8.46,1.35 3.51,1.26 5.58,3.69 2.16,2.34 3.06,5.67 0.9,3.24 0.9,7.2 l 0,29.25 q -1.08,0.18 -3.06,0.54 -1.89,0.27 -4.32,0.54 -2.43,0.27 -5.31,0.45 -2.79,0.27 -5.58,0.27 -3.96,0 -7.29,-0.81 -3.33,-0.81 -5.76,-2.52 -2.43,-1.8 -3.78,-4.68 -1.35,-2.88 -1.35,-6.93 0,-3.87 1.53,-6.66 1.62,-2.79 4.32,-4.5 2.7,-1.71 6.3,-2.52 3.6,-0.81 7.56,-0.81 1.26,0 2.61,0.18 1.35,0.09 2.52,0.36 1.26,0.18 2.16,0.36 0.9,0.18 1.26,0.27 l 0,-2.34 q 0,-2.07 -0.45,-4.05 -0.45,-2.07 -1.62,-3.6 -1.17,-1.62 -3.24,-2.52 -1.98,-0.99 -5.22,-0.99 -4.14,0 -7.29,0.63 -3.06,0.54 -4.59,1.17 l -0.99,-6.93 q 1.62,-0.72 5.4,-1.35 3.78,-0.72 8.19,-0.72 z"
       style="font-style:normal;font-variant:normal;font-weight:normal;font-stretch:normal;font-size:90px;font-family:Ubuntu;-inkscape-font-specification:Ubuntu"
       id="path4354"
       inkscape:connector-curvature="0" />
    <path
       d="m 2540.8103,1054.043 q 1.08,0 2.43,0.18 1.44,0.09 2.79,0.36 1.35,0.18 2.43,0.45 1.17,0.18 1.71,0.36 l -1.44,7.29 q -0.99,-0.36 -3.33,-0.81 -2.25,-0.54 -5.85,-0.54 -2.34,0 -4.68,0.54 -2.25,0.45 -2.97,0.63 l 0,39.33 -8.37,0 0,-44.82 q 2.97,-1.08 7.38,-1.98 4.41,-0.99 9.9,-0.99 z"
       style="font-style:normal;font-variant:normal;font-weight:normal;font-stretch:normal;font-size:90px;font-family:Ubuntu;-inkscape-font-specification:Ubuntu"
       id="path4356"
       inkscape:connector-curvature="0" />
    <path
       d="m 2555.725,1078.523 q 0,-6.21 1.8,-10.8 1.8,-4.68 4.77,-7.74 2.97,-3.06 6.84,-4.59 3.87,-1.53 7.92,-1.53 9.45,0 14.49,5.94 5.04,5.85 5.04,17.91 0,0.54 0,1.44 0,0.81 -0.09,1.53 l -32.04,0 q 0.54,7.29 4.23,11.07 3.69,3.78 11.52,3.78 4.41,0 7.38,-0.72 3.06,-0.81 4.59,-1.53 l 1.17,7.02 q -1.53,0.81 -5.4,1.71 -3.78,0.9 -8.64,0.9 -6.12,0 -10.62,-1.8 -4.41,-1.89 -7.29,-5.13 -2.88,-3.24 -4.32,-7.65 -1.35,-4.5 -1.35,-9.81 z m 32.13,-4.59 q 0.09,-5.67 -2.88,-9.27 -2.88,-3.69 -8.01,-3.69 -2.88,0 -5.13,1.17 -2.16,1.08 -3.69,2.88 -1.53,1.8 -2.43,4.14 -0.81,2.34 -1.08,4.77 l 23.22,0 z"
       style="font-style:normal;font-variant:normal;font-weight:normal;font-stretch:normal;font-size:90px;font-family:Ubuntu;-inkscape-font-specification:Ubuntu"
       id="path4358"
       inkscape:connector-curvature="0" />
    <path
       d="m 2626.7406,1078.523 q 0,-6.21 1.8,-10.8 1.8,-4.68 4.77,-7.74 2.97,-3.06 6.84,-4.59 3.87,-1.53 7.92,-1.53 9.45,0 14.49,5.94 5.04,5.85 5.04,17.91 0,0.54 0,1.44 0,0.81 -0.09,1.53 l -32.04,0 q 0.54,7.29 4.23,11.07 3.69,3.78 11.52,3.78 4.41,0 7.38,-0.72 3.06,-0.81 4.59,-1.53 l 1.17,7.02 q -1.53,0.81 -5.4,1.71 -3.78,0.9 -8.64,0.9 -6.12,0 -10.62,-1.8 -4.41,-1.89 -7.29,-5.13 -2.88,-3.24 -4.32,-7.65 -1.35,-4.5 -1.35,-9.81 z m 32.13,-4.59 q 0.09,-5.67 -2.88,-9.27 -2.88,-3.69 -8.01,-3.69 -2.88,0 -5.13,1.17 -2.16,1.08 -3.69,2.88 -1.53,1.8 -2.43,4.14 -0.81,2.34 -1.08,4.77 l 23.22,0 z"
       style="font-style:normal;font-variant:normal;font-weight:normal;font-stretch:normal;font-size:90px;font-family:Ubuntu;-inkscape-font-specification:Ubuntu"
       id="path4360"
       inkscape:connector-curvature="0" />
    <path
       d="m 2679.6241,1056.383 q 2.88,-0.72 7.65,-1.53 4.77,-0.81 10.98,-0.81 5.58,0 9.27,1.62 3.69,1.53 5.85,4.41 2.25,2.79 3.15,6.75 0.9,3.96 0.9,8.73 l 0,26.28 -8.37,0 0,-24.48 q 0,-4.32 -0.63,-7.38 -0.54,-3.06 -1.89,-4.95 -1.35,-1.89 -3.6,-2.7 -2.25,-0.9 -5.58,-0.9 -1.35,0 -2.79,0.09 -1.44,0.09 -2.79,0.27 -1.26,0.09 -2.34,0.27 -0.99,0.18 -1.44,0.27 l 0,39.51 -8.37,0 0,-45.45 z"
       style="font-style:normal;font-variant:normal;font-weight:normal;font-stretch:normal;font-size:90px;font-family:Ubuntu;-inkscape-font-specification:Ubuntu"
       id="path4362"
       inkscape:connector-curvature="0" />
    <path
       d="m 2760.6438,1097.153 q -1.08,0.72 -4.23,1.89 -3.06,1.08 -7.2,1.08 -4.23,0 -8.01,-1.35 -3.69,-1.35 -6.48,-4.14 -2.79,-2.88 -4.41,-7.11 -1.62,-4.23 -1.62,-10.08 0,-5.13 1.53,-9.36 1.53,-4.32 4.41,-7.38 2.97,-3.15 7.2,-4.86 4.23,-1.8 9.54,-1.8 5.85,0 10.17,0.9 4.41,0.81 7.38,1.53 l 0,41.76 q 0,10.8 -5.58,15.66 -5.58,4.86 -16.92,4.86 -4.41,0 -8.37,-0.72 -3.87,-0.72 -6.75,-1.71 l 1.53,-7.29 q 2.52,0.99 6.12,1.71 3.69,0.81 7.65,0.81 7.47,0 10.71,-2.97 3.33,-2.97 3.33,-9.45 l 0,-1.98 z m -0.09,-34.74 q -1.26,-0.36 -3.42,-0.63 -2.07,-0.36 -5.67,-0.36 -6.75,0 -10.44,4.41 -3.6,4.41 -3.6,11.7 0,4.05 0.99,6.93 1.08,2.88 2.79,4.77 1.8,1.89 4.05,2.79 2.34,0.9 4.77,0.9 3.33,0 6.12,-0.9 2.79,-0.99 4.41,-2.25 l 0,-27.36 z"
       style="font-style:normal;font-variant:normal;font-weight:normal;font-stretch:normal;font-size:90px;font-family:Ubuntu;-inkscape-font-specification:Ubuntu"
       id="path4364"
       inkscape:connector-curvature="0" />
    <path
       d="m 2791.705,1101.833 -8.37,0 0,-46.8 8.37,0 0,46.8 z m -4.23,-55.26 q -2.25,0 -3.87,-1.44 -1.53,-1.53 -1.53,-4.05 0,-2.52 1.53,-3.96 1.62,-1.53 3.87,-1.53 2.25,0 3.78,1.53 1.62,1.44 1.62,3.96 0,2.52 -1.62,4.05 -1.53,1.44 -3.78,1.44 z"
       style="font-style:normal;font-variant:normal;font-weight:normal;font-stretch:normal;font-size:90px;font-family:Ubuntu;-inkscape-font-specification:Ubuntu"
       id="path4366"
       inkscape:connector-curvature="0" />
    <path
       d="m 2806.1866,1056.383 q 2.88,-0.72 7.65,-1.53 4.77,-0.81 10.98,-0.81 5.58,0 9.27,1.62 3.69,1.53 5.85,4.41 2.25,2.79 3.15,6.75 0.9,3.96 0.9,8.73 l 0,26.28 -8.37,0 0,-24.48 q 0,-4.32 -0.63,-7.38 -0.54,-3.06 -1.89,-4.95 -1.35,-1.89 -3.6,-2.7 -2.25,-0.9 -5.58,-0.9 -1.35,0 -2.79,0.09 -1.44,0.09 -2.79,0.27 -1.26,0.09 -2.34,0.27 -0.99,0.18 -1.44,0.27 l 0,39.51 -8.37,0 0,-45.45 z"
       style="font-style:normal;font-variant:normal;font-weight:normal;font-stretch:normal;font-size:90px;font-family:Ubuntu;-inkscape-font-specification:Ubuntu"
       id="path4368"
       inkscape:connector-curvature="0" />
    <path
       d="m 2855.2563,1078.523 q 0,-6.21 1.8,-10.8 1.8,-4.68 4.77,-7.74 2.97,-3.06 6.84,-4.59 3.87,-1.53 7.92,-1.53 9.45,0 14.49,5.94 5.04,5.85 5.04,17.91 0,0.54 0,1.44 0,0.81 -0.09,1.53 l -32.04,0 q 0.54,7.29 4.23,11.07 3.69,3.78 11.52,3.78 4.41,0 7.38,-0.72 3.06,-0.81 4.59,-1.53 l 1.17,7.02 q -1.53,0.81 -5.4,1.71 -3.78,0.9 -8.64,0.9 -6.12,0 -10.62,-1.8 -4.41,-1.89 -7.29,-5.13 -2.88,-3.24 -4.32,-7.65 -1.35,-4.5 -1.35,-9.81 z m 32.13,-4.59 q 0.09,-5.67 -2.88,-9.27 -2.88,-3.69 -8.01,-3.69 -2.88,0 -5.13,1.17 -2.16,1.08 -3.69,2.88 -1.53,1.8 -2.43,4.14 -0.81,2.34 -1.08,4.77 l 23.22,0 z"
       style="font-style:normal;font-variant:normal;font-weight:normal;font-stretch:normal;font-size:90px;font-family:Ubuntu;-inkscape-font-specification:Ubuntu"
       id="path4370"
       inkscape:connector-curvature="0" />
    <path
       d="m 2905.5297,1078.523 q 0,-6.21 1.8,-10.8 1.8,-4.68 4.77,-7.74 2.97,-3.06 6.84,-4.59 3.87,-1.53 7.92,-1.53 9.45,0 14.49,5.94 5.04,5.85 5.04,17.91 0,0.54 0,1.44 0,0.81 -0.09,1.53 l -32.04,0 q 0.54,7.29 4.23,11.07 3.69,3.78 11.52,3.78 4.41,0 7.38,-0.72 3.06,-0.81 4.59,-1.53 l 1.17,7.02 q -1.53,0.81 -5.4,1.71 -3.78,0.9 -8.64,0.9 -6.12,0 -10.62,-1.8 -4.41,-1.89 -7.29,-5.13 -2.88,-3.24 -4.32,-7.65 -1.35,-4.5 -1.35,-9.81 z m 32.13,-4.59 q 0.09,-5.67 -2.88,-9.27 -2.88,-3.69 -8.01,-3.69 -2.88,0 -5.13,1.17 -2.16,1.08 -3.69,2.88 -1.53,1.8 -2.43,4.14 -0.81,2.34 -1.08,4.77 l 23.22,0 z"
       style="font-style:normal;font-variant:normal;font-weight:normal;font-stretch:normal;font-size:90px;font-family:Ubuntu;-inkscape-font-specification:Ubuntu"
       id="path4372"
       inkscape:connector-curvature="0" />
    <path
       d="m 2975.6931,1054.043 q 1.08,0 2.43,0.18 1.44,0.09 2.79,0.36 1.35,0.18 2.43,0.45 1.17,0.18 1.71,0.36 l -1.44,7.29 q -0.99,-0.36 -3.33,-0.81 -2.25,-0.54 -5.85,-0.54 -2.34,0 -4.68,0.54 -2.25,0.45 -2.97,0.63 l 0,39.33 -8.37,0 0,-44.82 q 2.97,-1.08 7.38,-1.98 4.41,-0.99 9.9,-0.99 z"
       style="font-style:normal;font-variant:normal;font-weight:normal;font-stretch:normal;font-size:90px;font-family:Ubuntu;-inkscape-font-specification:Ubuntu"
       id="path4374"
       inkscape:connector-curvature="0" />
  </g>
</svg>
