<?xml version="1.0" encoding="UTF-8" standalone="no"?>
<svg
   xmlns:dc="http://purl.org/dc/elements/1.1/"
   xmlns:cc="http://creativecommons.org/ns#"
   xmlns:rdf="http://www.w3.org/1999/02/22-rdf-syntax-ns#"
   xmlns:svg="http://www.w3.org/2000/svg"
   xmlns="http://www.w3.org/2000/svg"
   xmlns:sodipodi="http://sodipodi.sourceforge.net/DTD/sodipodi-0.dtd"
   xmlns:inkscape="http://www.inkscape.org/namespaces/inkscape"
   id="svg2"
   viewBox="0 0 3400.1079 2373.7251"
   version="1.1"
   width="959.586mm"
   height="669.918mm"
   inkscape:version="1.0 (4035a4f, 2020-05-01)"
   sodipodi:docname="background-text.svg">
  <sodipodi:namedview
     pagecolor="#ffffff"
     bordercolor="#666666"
     borderopacity="1"
     objecttolerance="10"
     gridtolerance="10"
     guidetolerance="10"
     inkscape:pageopacity="0"
     inkscape:pageshadow="2"
     inkscape:window-width="1680"
     inkscape:window-height="1005"
     id="namedview13"
     showgrid="false"
     inkscape:zoom="0.62983337"
     inkscape:cx="1762.1436"
     inkscape:cy="1346.3613"
     inkscape:window-x="0"
     inkscape:window-y="23"
     inkscape:window-maximized="1"
     inkscape:current-layer="text3344"
     inkscape:document-rotation="0" />
  <metadata
     id="metadata16">
    <rdf:RDF>
      <cc:Work
         rdf:about="">
        <dc:format>image/svg+xml</dc:format>
        <dc:type
           rdf:resource="http://purl.org/dc/dcmitype/StillImage" />
        <dc:title />
      </cc:Work>
    </rdf:RDF>
  </metadata>
  <defs
     id="defs14" />
  <g
     id="g4"
     transform="matrix(0.82991486,0.07260814,-0.07260814,0.82991486,658.53783,520.24574)">
    <g
       id="g6"
       transform="matrix(1.25,0,0,-1.25,-604.7666,2049.652)">
      <path
         id="path8"
         style="fill:#2e3440;fill-opacity:1"
         d="m 947.977,1897.941 2.23,-2.41 c 1.664,-1.809 369.219,-526.312 386.848,-552.031 3.101,-4.528 4.234,-8.91 2.3,-8.91 -0.886,0 -19.535,3.171 -51.812,8.804 -8.461,1.477 -20.91,3.641 -27.68,4.805 -22.843,3.941 -43.871,7.578 -56.238,9.734 -6.77,1.184 -24.969,4.328 -40.434,6.989 -15.468,2.664 -33.668,5.828 -40.433,7.035 -6.77,1.207 -22.586,3.953 -35.156,6.101 -20.469,3.5 -104.262,17.989 -122.153,21.118 -3.867,0.679 -12.765,2.23 -19.773,3.449 -7.012,1.219 -22.043,3.832 -33.403,5.812 -11.355,1.985 -29.742,5.157 -40.859,7.051 -39.562,6.738 -45.352,7.887 -48.762,9.629 -1.902,0.969 -4.312,1.754 -5.355,1.754 -1.047,0 -12.703,-7.547 -25.895,-16.77 -27.082,-18.937 -27.293,-19.156 -24.32,-26.074 0.984,-2.297 4.356,-12.277 7.477,-22.187 4.695,-14.907 27.527,-86.5 50.457,-158.192 2.707,-8.461 7.187,-22.504 9.949,-31.203 2.758,-8.699 8.879,-27.871 13.594,-42.613 4.714,-14.746 10.449,-32.742 12.738,-39.992 2.293,-7.25 12.762,-40.079 23.285,-72.95 10.523,-32.867 21.406,-66.886 24.168,-75.586 10.613,-33.414 16.777,-52.781 25.07,-78.652 4.723,-14.746 10.278,-32.141 12.328,-38.664 2.051,-6.527 7.946,-25.051 13.106,-41.168 8.156,-25.469 9.226,-29.531 8.223,-30.988 C 966.844,750.91 883.668,692.308 782.645,621.594 139.312,171.254 5.395,77.344 2.449,74.508 0.637,72.761 -0.828,70.523 -0.801,69.531 -0.77,68.543 6.645,57.258 15.68,44.449 28.945,25.64 32.535,21.113 34.309,20.906 c 1.3,-0.152 4.175,0.938 7.035,2.672 2.656,1.609 87.871,61.086 189.379,132.16 101.507,71.078 300.05,210.082 441.195,308.91 1025.359,717.973 1013.09,709.41 1014.508,708.516 0.801,-0.508 3.867,-8.688 7.219,-19.258 10.14,-31.961 27.48,-86.309 38.097,-119.437 3.254,-10.153 11.453,-35.856 18.219,-57.125 21.562,-67.79 31.496,-98.961 35.887,-112.497 2.351,-7.25 8.101,-25.246 12.769,-39.992 4.668,-14.742 10.598,-33.324 13.184,-41.301 5.226,-16.125 44.945,-140.707 53.707,-168.46 3.078,-9.758 5.601,-18.301 5.601,-18.997 0,-3.601 -1.539,-3.488 -38.375,2.914 -19.742,3.43 -40.441,7.016 -46.004,7.981 -5.558,0.961 -14.457,2.508 -19.773,3.43 -5.316,0.925 -24.687,4.281 -43.055,7.461 -18.371,3.183 -37.757,6.55 -43.074,7.476 -23.484,4.102 -101.555,17.578 -106.332,18.356 -2.898,0.472 -12,2.05 -20.219,3.511 -8.215,1.461 -23.246,4.082 -33.398,5.828 -19.977,3.43 -41.184,7.129 -60.633,10.575 -6.769,1.195 -22.988,4.004 -36.039,6.238 -13.051,2.234 -25.504,4.375 -27.68,4.762 -7.98,1.41 -46.382,7.976 -54.058,9.246 -4.348,0.719 -10.129,2.121 -12.86,3.113 -4.297,1.555 -5.261,1.641 -7.113,0.625 -1.176,-0.644 -12.48,-8.426 -25.129,-17.289 -18.058,-12.652 -22.992,-16.508 -22.992,-18.004 0,-1.047 1.324,-4.125 2.961,-6.836 1.633,-2.707 59.312,-85.355 128.164,-183.672 C 1693.184,51.019 1727.852,1.406 1727.852,0.535 c 0,-0.613 26.867,-0.563 40.418,-0.363 l 39.242,0.578 -2.395,3.511 c -1.777,2.614 -100.156,143.079 -218.644,312.34 -151.418,216.305 -215.442,308.418 -215.442,310.012 0,1.246 0.422,2.273 0.934,2.273 0.859,0 14.512,-2.332 51.371,-8.746 15.523,-2.699 39.57,-6.851 56.242,-9.718 5.317,-0.914 16.777,-2.907 25.481,-4.422 8.699,-1.52 28.289,-4.922 43.515,-7.555 15.227,-2.633 33.02,-5.719 39.547,-6.867 6.527,-1.145 22.344,-3.883 35.152,-6.086 31.622,-5.438 82,-14.176 97.547,-16.906 7.008,-1.231 17.094,-2.977 22.41,-3.891 12.129,-2.082 39.95,-6.894 60.637,-10.496 26.832,-4.672 40.996,-7.109 48.778,-8.395 22.468,-3.703 32.933,-5.867 36.027,-7.445 1.898,-0.969 4.297,-1.754 5.324,-1.754 1.027,0 12.684,7.563 25.906,16.813 27.082,18.953 27.27,19.164 24.336,26.031 -0.98,2.297 -5.996,17.422 -11.152,33.613 -17.887,56.164 -22.578,70.821 -27.25,85.246 -2.582,7.977 -8.137,25.371 -12.344,38.664 -4.207,13.293 -9.754,30.704 -12.328,38.676 -4.168,12.914 -42.465,132.942 -54.394,170.492 -2.536,7.977 -7.883,24.786 -11.903,37.352 -4.019,12.566 -9.762,30.566 -12.754,39.992 -9.867,31.082 -27.863,87.43 -48.504,151.906 l -11.918,37.231 2.09,2.027 c 1.149,1.121 12.766,9.512 25.817,18.645 75.328,52.718 734.629,514.336 830.394,581.418 62.766,43.965 115.262,80.519 116.66,81.215 1.399,0.699 2.547,1.425 2.547,1.632 0,0.207 -25.894,0.383 -57.535,0.383 -54.562,0 -57.605,-0.078 -59.094,-1.601 -0.867,-0.883 -63.675,-45.075 -139.566,-98.184 -75.887,-53.113 -249.297,-174.516 -385.367,-269.789 -136.067,-95.277 -403.219,-282.328 -593.664,-415.672 -190.45,-133.34 -371.27,-259.973 -401.832,-281.398 -30.563,-21.43 -56.36,-38.953 -57.325,-38.953 -1.492,0 -2.402,2.109 -6.226,14.281 -2.465,7.851 -6.809,21.402 -9.641,30.101 -2.832,8.703 -8.969,27.887 -13.625,42.633 -4.656,14.742 -10.187,32.137 -12.297,38.66 -2.113,6.528 -5.226,16.215 -6.914,21.532 -1.687,5.316 -8.867,27.855 -15.957,50.089 -7.094,22.235 -14.261,44.789 -15.929,50.11 -4.219,13.426 -14.418,45.246 -20.555,64.14 -2.824,8.704 -6.309,19.579 -7.75,24.172 -1.442,4.59 -8.352,26.34 -15.363,48.336 -7.012,21.992 -14,43.946 -15.52,48.778 -1.519,4.835 -4.48,14.132 -6.59,20.66 -2.109,6.527 -7.844,24.523 -12.758,39.992 -4.91,15.465 -11.234,35.242 -14.05,43.941 -7.989,24.68 -11.43,35.942 -11.43,37.473 0,3.719 1.469,3.641 33.098,-1.891 16.839,-2.945 37.339,-6.5 45.558,-7.906 8.215,-1.402 19.492,-3.348 25.055,-4.316 5.558,-0.969 23.941,-4.164 40.859,-7.094 16.918,-2.934 36.305,-6.285 43.071,-7.461 6.769,-1.176 34.25,-5.91 61.078,-10.516 26.828,-4.601 50.758,-8.761 53.175,-9.246 2.415,-0.48 11.5,-2.09 20.2,-3.57 8.703,-1.477 21.554,-3.688 28.562,-4.91 7.012,-1.223 19.278,-3.356 27.25,-4.731 7.977,-1.379 19.055,-3.308 24.613,-4.289 14.649,-2.586 34.297,-5.996 51.403,-8.91 8.219,-1.398 18.305,-3.129 22.414,-3.859 4.109,-0.731 15.773,-2.754 25.922,-4.485 31.058,-5.297 36.785,-6.422 40.312,-7.906 1.867,-0.785 4.02,-1.187 4.778,-0.898 0.753,0.289 12.179,8.082 25.386,17.316 18.543,12.965 24,17.215 24,18.645 0,1.019 -1.316,4.023 -2.929,6.683 -1.614,2.66 -93.09,133.574 -203.278,290.922 -110.191,157.348 -200.613,286.758 -200.933,287.594 -0.539,1.41 -3.524,1.527 -41.211,1.527 z"
         inkscape:connector-curvature="0" />
      <path
         id="path10"
         style="fill:#1b1b1b;fill-opacity:1"
         d="m 470.98755,2612.6201 -30.8345,1.9703 c 3.887,-4.168 899.69895,-1273.7194 901.35095,-1277.4734 2.051,-4.652 35.531,-52.969 40.23,-58.063 1.774,-1.921 3.832,-3.496 4.567,-3.496 1.472,0 5.117,2.442 31.742,21.114 13.762,9.656 18.195,13.191 18.195,14.582 0,1.007 -2.086,5.097 -4.625,9.082 -2.539,3.984 -94.051,134.894 -203.363,290.922 -109.309,156.027 -695.598,999.8465 -695.598,999.8465 l -31.966,3.466 z m 3171.59695,-5.8988 -16.2266,1.8701 -15.2646,0.7161 c 0,0 -1197.4563,-846.9055 -1358.7613,-959.8505 -400.238,-280.246 -786.707,-550.86 -1026.094,-718.485 -109.941,-76.984 -200.652,-139.957 -201.578,-139.957 -2.273,0 -2.445,0.422 -9.098,21.543 -5.539,17.575 -11.429,36.063 -24.671,77.391 -6.207,19.367 -41.536,130.195 -46.813,146.855 -1.683,5.321 -4.785,15.016 -6.898,21.543 -2.118,6.532 -8.055,25.125 -13.192,41.329 -5.14,16.203 -11.48,35.992 -14.078,43.972 -4.73,14.524 -38.851,121.594 -64.062,201.008 -3.696,11.648 -6.731,22.531 -6.731,24.184 -0.004,1.656 -2.629,11.324 -5.847,21.484 -3.223,10.156 -6.106,20.504 -6.415,22.992 -0.308,2.488 -1.121,5.254 -1.8,6.153 -3.477,4.574 -5.774,6.476 -7.864,6.472 -1.496,0 -9.66,-5.211 -24.246,-15.449 -12.09,-8.492 -23.066,-16.469 -24.394,-17.742 -2.715,-2.594 -2.992,-4.489 -1.176,-8 0.684,-1.321 4.5,-12.676 8.488,-25.239 3.989,-12.558 9.512,-29.949 12.274,-38.656 8.629,-27.203 49.113,-154.051 54.031,-169.285 5.215,-16.148 12.785,-39.906 25.512,-80.031 4.679,-14.754 10.629,-33.348 13.222,-41.328 2.594,-7.981 5.7,-17.676 6.903,-21.543 1.199,-3.871 6.988,-22.078 12.855,-40.461 5.867,-18.379 13.238,-41.535 16.395,-51.449 3.156,-9.914 7.859,-24.555 10.445,-32.536 2.586,-7.98 8.32,-25.988 12.746,-40.015 4.43,-14.028 10.168,-32.02 12.75,-40 14.84,-45.883 16.348,-51.012 15.434,-52.719 -0.496,-0.93 -13.282,-10.344 -28.399,-20.918 C 924.918,719.996 740.809,591.094 530.895,444.109 320.984,297.125 116.777,154.152 77.117,126.394 37.457,98.633 3.727,74.679 2.156,73.172 0.582,71.664 -311.11466,-141.1371 -311.11466,-142.0551 c 0,-1.485 3.17649,-28.9956 3.17649,-28.9956 6.614,-9.367 0.88333,-39.92129 6.51633,-37.05029 1.852,0.945 401.69484,272.88199 472.73784,322.63199 71.043,49.75 269.262,188.547 440.481,308.434 303.508,212.507 512.641,358.949 887.176,621.214 101.007,70.731 184.609,129.036 185.789,129.575 1.316,0.597 2.472,0.664 2.965,0.168 0.441,-0.446 4.402,-12.094 8.808,-25.879 4.406,-13.785 11.117,-34.762 14.914,-46.61 3.801,-11.851 10.735,-33.617 15.406,-48.367 4.672,-14.754 10.442,-32.746 12.809,-40 2.367,-7.258 13.039,-40.707 23.727,-74.324 10.687,-33.613 22.351,-70.219 25.91,-81.344 16.746,-52.383 26.34,-82.492 28.73,-90.14 1.438,-4.594 4.742,-14.875 7.344,-22.856 20.004,-61.312 47.039,-148.004 47.039,-150.824 0,-1.859 2.785,-11.969 6.168,-22.477 3.387,-10.504 6.152,-20.675 6.152,-22.593 0,-2.829 0.676,-4.25 3.59,-7.559 2.614,-2.969 4.235,-4.086 5.938,-4.059 2.769,0.032 46.871,30.633 49.726,34.504 1.617,2.192 1.684,2.727 0.625,5.282 -1.004,2.433 -31.211,96.07 -45.312,140.46 -2.535,7.981 -7.903,24.797 -11.922,37.375 -4.02,12.575 -9.375,29.395 -11.895,37.375 -2.519,7.981 -8.379,26.391 -13.023,40.899 -4.645,14.512 -16.59,51.906 -26.551,83.101 -9.957,31.2 -20.328,63.645 -23.039,72.11 -2.707,8.465 -7.176,22.515 -9.937,31.223 -2.762,8.703 -8.891,27.89 -13.618,42.64 -4.73,14.754 -10.468,32.762 -12.75,40.016 -2.281,7.254 -10.98,34.57 -19.328,60.687 -8.351,26.121 -15.191,48.403 -15.191,49.528 0,1.125 0.355,2.367 0.777,2.75 0.426,0.382 73.387,51.519 162.141,113.648 88.754,62.133 307.305,215.148 485.672,340.039 178.367,124.887 1332.4207,927.9284 1332.4207,927.9284 l -9.54,9.5365 -42.4604,0.423 z M 1325.461,686.984 c -0.457,0.106 -0.867,0.078 -1.285,-0.031 -0.477,-0.129 -0.961,-0.371 -1.496,-0.656 -1.149,-0.614 -12.168,-8.192 -24.504,-16.856 -16.235,-11.406 -22.504,-16.281 -22.688,-17.664 -0.14,-1.051 1.063,-4.09 2.672,-6.75 1.613,-2.66 98.266,-140.965 214.781,-307.348 251.079,-358.527 490.3487,-700.06298 490.3487,-700.06298 0,0 6.2801,-6.2401 7.0141,-6.7551 l 5.0926,-20.33452 c 0.515,0.402 22.5771,5.54914 22.5771,5.54914 0,0 42.6925,11.49881 41.1885,12.84981 -1.031,0.836 -269.572,395.96465 -289.373,424.26165 -19.805,28.293 -117.723,168.192 -217.609,310.875 -99.883,142.684 -182.059,260.75 -182.614,262.371 -0.554,1.621 -7.437,12.102 -15.281,23.297 -20.531,29.305 -25.637,36.512 -28.824,37.254 z"
         inkscape:connector-curvature="0"
         sodipodi:nodetypes="ccccscscsccccccsssccccccccccccccccscccccccccccsccsccscsccscccscccscsccccccccccccccscccccccccccccccccccccccc" />
    </g>
  </g>
  <g
     transform="matrix(0.72147277,-0.41654249,0.41654249,0.72147277,125.28841,218.38867)"
     style="font-style:normal;font-weight:normal;font-size:49.0559px;line-height:125%;font-family:sans-serif;letter-spacing:0px;word-spacing:0px;fill:#000000;fill-opacity:1;stroke:none;stroke-width:1px;stroke-linecap:butt;stroke-linejoin:miter;stroke-opacity:1"
     id="text3344">
    <text
       xml:space="preserve"
       style="font-style:normal;font-weight:normal;font-size:135.04px;line-height:1.25;font-family:sans-serif;fill:#000000;fill-opacity:1;stroke:none;stroke-width:1.12534px"
       x="372.62445"
       y="1849.3344"
       id="text188"
       transform="rotate(-0.00900943)"><tspan
         sodipodi:role="line"
         id="tspan186"
         x="372.62445"
         y="1849.3344"
         style="font-style:normal;font-variant:normal;font-weight:bold;font-stretch:normal;font-family:'Victor Mono';-inkscape-font-specification:'Victor Mono Bold';stroke-width:1.12534px">Jade Michael Thornton</tspan></text>
    <text
       xml:space="preserve"
       style="font-style:normal;font-weight:normal;font-size:84.025px;line-height:1.25;font-family:sans-serif;fill:#000000;fill-opacity:1;stroke:none;stroke-width:1.12534px"
       x="377.01907"
       y="2060.5874"
       id="text192"
       transform="rotate(0.14657434)"><tspan
         sodipodi:role="line"
         id="tspan190"
         x="377.01907"
         y="2060.5874"
         style="font-style:normal;font-variant:normal;font-weight:bold;font-stretch:normal;font-size:84.025px;font-family:'Victor Mono';-inkscape-font-specification:'Victor Mono Bold';stroke-width:1.12534px">software engineer</tspan></text>
  </g>
</svg>
