<?xml version="1.0" encoding="UTF-8"?>
<svg width="959.59mm" height="669.92mm" version="1.1" viewBox="0 0 3400.1 2373.7" xmlns="http://www.w3.org/2000/svg"><g transform="matrix(.82991 .072608 -.072608 .82991 658.54 520.25)"><g transform="matrix(1.25 0 0 -1.25 -604.77 2049.7)"><path d="m947.98 1897.9 2.23-2.41c1.664-1.809 369.22-526.31 386.85-552.03 3.101-4.528 4.234-8.91 2.3-8.91-0.886 0-19.535 3.171-51.812 8.804-8.461 1.477-20.91 3.641-27.68 4.805-22.843 3.941-43.871 7.578-56.238 9.734-6.77 1.184-24.969 4.328-40.434 6.989-15.468 2.664-33.668 5.828-40.433 7.035-6.77 1.207-22.586 3.953-35.156 6.101-20.469 3.5-104.26 17.989-122.15 21.118-3.867 0.679-12.765 2.23-19.773 3.449-7.012 1.219-22.043 3.832-33.403 5.812-11.355 1.985-29.742 5.157-40.859 7.051-39.562 6.738-45.352 7.887-48.762 9.629-1.902 0.969-4.312 1.754-5.355 1.754-1.047 0-12.703-7.547-25.895-16.77-27.082-18.937-27.293-19.156-24.32-26.074 0.984-2.297 4.356-12.277 7.477-22.187 4.695-14.907 27.527-86.5 50.457-158.19 2.707-8.461 7.187-22.504 9.949-31.203 2.758-8.699 8.879-27.871 13.594-42.613 4.714-14.746 10.449-32.742 12.738-39.992 2.293-7.25 12.762-40.079 23.285-72.95 10.523-32.867 21.406-66.886 24.168-75.586 10.613-33.414 16.777-52.781 25.07-78.652 4.723-14.746 10.278-32.141 12.328-38.664 2.051-6.527 7.946-25.051 13.106-41.168 8.156-25.469 9.226-29.531 8.223-30.988-0.633-0.922-83.809-59.524-184.83-130.24-643.33-450.34-777.25-544.25-780.2-547.09-1.812-1.747-3.277-3.985-3.25-4.977 0.031-0.988 7.446-12.273 16.481-25.082 13.265-18.809 16.855-23.336 18.629-23.543 1.3-0.152 4.175 0.938 7.035 2.672 2.656 1.609 87.871 61.086 189.38 132.16 101.51 71.078 300.05 210.08 441.2 308.91 1025.4 717.97 1013.1 709.41 1014.5 708.52 0.801-0.508 3.867-8.688 7.219-19.258 10.14-31.961 27.48-86.309 38.097-119.44 3.254-10.153 11.453-35.856 18.219-57.125 21.562-67.79 31.496-98.961 35.887-112.5 2.351-7.25 8.101-25.246 12.769-39.992 4.668-14.742 10.598-33.324 13.184-41.301 5.226-16.125 44.945-140.71 53.707-168.46 3.078-9.758 5.601-18.301 5.601-18.997 0-3.601-1.539-3.488-38.375 2.914-19.742 3.43-40.441 7.016-46.004 7.981-5.558 0.961-14.457 2.508-19.773 3.43-5.316 0.925-24.687 4.281-43.055 7.461-18.371 3.183-37.757 6.55-43.074 7.476-23.484 4.102-101.56 17.578-106.33 18.356-2.898 0.472-12 2.05-20.219 3.511-8.215 1.461-23.246 4.082-33.398 5.828-19.977 3.43-41.184 7.129-60.633 10.575-6.769 1.195-22.988 4.004-36.039 6.238s-25.504 4.375-27.68 4.762c-7.98 1.41-46.382 7.976-54.058 9.246-4.348 0.719-10.129 2.121-12.86 3.113-4.297 1.555-5.261 1.641-7.113 0.625-1.176-0.644-12.48-8.426-25.129-17.289-18.058-12.652-22.992-16.508-22.992-18.004 0-1.047 1.324-4.125 2.961-6.836 1.633-2.707 59.312-85.355 128.16-183.67 287.68-410.79 322.35-460.41 322.35-461.28 0-0.613 26.867-0.563 40.418-0.363l39.242 0.578-2.395 3.511c-1.777 2.614-100.16 143.08-218.64 312.34-151.42 216.3-215.44 308.42-215.44 310.01 0 1.246 0.422 2.273 0.934 2.273 0.859 0 14.512-2.332 51.371-8.746 15.523-2.699 39.57-6.851 56.242-9.718 5.317-0.914 16.777-2.907 25.481-4.422 8.699-1.52 28.289-4.922 43.515-7.555 15.227-2.633 33.02-5.719 39.547-6.867 6.527-1.145 22.344-3.883 35.152-6.086 31.622-5.438 82-14.176 97.547-16.906 7.008-1.231 17.094-2.977 22.41-3.891 12.129-2.082 39.95-6.894 60.637-10.496 26.832-4.672 40.996-7.109 48.778-8.395 22.468-3.703 32.933-5.867 36.027-7.445 1.898-0.969 4.297-1.754 5.324-1.754s12.684 7.563 25.906 16.813c27.082 18.953 27.27 19.164 24.336 26.031-0.98 2.297-5.996 17.422-11.152 33.613-17.887 56.164-22.578 70.821-27.25 85.246-2.582 7.977-8.137 25.371-12.344 38.664s-9.754 30.704-12.328 38.676c-4.168 12.914-42.465 132.94-54.394 170.49-2.536 7.977-7.883 24.786-11.903 37.352-4.019 12.566-9.762 30.566-12.754 39.992-9.867 31.082-27.863 87.43-48.504 151.91l-11.918 37.231 2.09 2.027c1.149 1.121 12.766 9.512 25.817 18.645 75.328 52.718 734.63 514.34 830.39 581.42 62.766 43.965 115.26 80.519 116.66 81.215 1.399 0.699 2.547 1.425 2.547 1.632s-25.894 0.383-57.535 0.383c-54.562 0-57.605-0.078-59.094-1.601-0.867-0.883-63.675-45.075-139.57-98.184-75.887-53.113-249.3-174.52-385.37-269.79-136.07-95.277-403.22-282.33-593.66-415.67-190.45-133.34-371.27-259.97-401.83-281.4-30.563-21.43-56.36-38.953-57.325-38.953-1.492 0-2.402 2.109-6.226 14.281-2.465 7.851-6.809 21.402-9.641 30.101-2.832 8.703-8.969 27.887-13.625 42.633-4.656 14.742-10.187 32.137-12.297 38.66-2.113 6.528-5.226 16.215-6.914 21.532-1.687 5.316-8.867 27.855-15.957 50.089-7.094 22.235-14.261 44.789-15.929 50.11-4.219 13.426-14.418 45.246-20.555 64.14-2.824 8.704-6.309 19.579-7.75 24.172-1.442 4.59-8.352 26.34-15.363 48.336-7.012 21.992-14 43.946-15.52 48.778-1.519 4.835-4.48 14.132-6.59 20.66-2.109 6.527-7.844 24.523-12.758 39.992-4.91 15.465-11.234 35.242-14.05 43.941-7.989 24.68-11.43 35.942-11.43 37.473 0 3.719 1.469 3.641 33.098-1.891 16.839-2.945 37.339-6.5 45.558-7.906 8.215-1.402 19.492-3.348 25.055-4.316 5.558-0.969 23.941-4.164 40.859-7.094 16.918-2.934 36.305-6.285 43.071-7.461 6.769-1.176 34.25-5.91 61.078-10.516 26.828-4.601 50.758-8.761 53.175-9.246 2.415-0.48 11.5-2.09 20.2-3.57 8.703-1.477 21.554-3.688 28.562-4.91 7.012-1.223 19.278-3.356 27.25-4.731 7.977-1.379 19.055-3.308 24.613-4.289 14.649-2.586 34.297-5.996 51.403-8.91 8.219-1.398 18.305-3.129 22.414-3.859 4.109-0.731 15.773-2.754 25.922-4.485 31.058-5.297 36.785-6.422 40.312-7.906 1.867-0.785 4.02-1.187 4.778-0.898 0.753 0.289 12.179 8.082 25.386 17.316 18.543 12.965 24 17.215 24 18.645 0 1.019-1.316 4.023-2.929 6.683-1.614 2.66-93.09 133.57-203.28 290.92-110.19 157.35-200.61 286.76-200.93 287.59-0.539 1.41-3.524 1.527-41.211 1.527z" fill="#2e3440"/><path d="m470.99 2612.6-30.834 1.9703c3.887-4.168 899.7-1273.7 901.35-1277.5 2.051-4.652 35.531-52.969 40.23-58.063 1.774-1.921 3.832-3.496 4.567-3.496 1.472 0 5.117 2.442 31.742 21.114 13.762 9.656 18.195 13.191 18.195 14.582 0 1.007-2.086 5.097-4.625 9.082-2.539 3.984-94.051 134.89-203.36 290.92-109.31 156.03-695.6 999.85-695.6 999.85l-31.966 3.466zm3171.6-5.8988-16.227 1.8701-15.265 0.7161s-1197.5-846.91-1358.8-959.85c-400.24-280.25-786.71-550.86-1026.1-718.48-109.94-76.984-200.65-139.96-201.58-139.96-2.273 0-2.445 0.422-9.098 21.543-5.539 17.575-11.429 36.063-24.671 77.391-6.207 19.367-41.536 130.2-46.813 146.86-1.683 5.321-4.785 15.016-6.898 21.543-2.118 6.532-8.055 25.125-13.192 41.329-5.14 16.203-11.48 35.992-14.078 43.972-4.73 14.524-38.851 121.59-64.062 201.01-3.696 11.648-6.731 22.531-6.731 24.184-4e-3 1.656-2.629 11.324-5.847 21.484-3.223 10.156-6.106 20.504-6.415 22.992-0.308 2.488-1.121 5.254-1.8 6.153-3.477 4.574-5.774 6.476-7.864 6.472-1.496 0-9.66-5.211-24.246-15.449-12.09-8.492-23.066-16.469-24.394-17.742-2.715-2.594-2.992-4.489-1.176-8 0.684-1.321 4.5-12.676 8.488-25.239 3.989-12.558 9.512-29.949 12.274-38.656 8.629-27.203 49.113-154.05 54.031-169.28 5.215-16.148 12.785-39.906 25.512-80.031 4.679-14.754 10.629-33.348 13.222-41.328 2.594-7.981 5.7-17.676 6.903-21.543 1.199-3.871 6.988-22.078 12.855-40.461 5.867-18.379 13.238-41.535 16.395-51.449 3.156-9.914 7.859-24.555 10.445-32.536 2.586-7.98 8.32-25.988 12.746-40.015 4.43-14.028 10.168-32.02 12.75-40 14.84-45.883 16.348-51.012 15.434-52.719-0.496-0.93-13.282-10.344-28.399-20.918-15.113-10.574-199.22-139.48-409.14-286.46-209.91-146.98-414.12-289.96-453.78-317.72-39.66-27.761-73.39-51.715-74.961-53.222-1.574-1.508-313.27-214.31-313.27-215.23 0-1.485 3.1765-28.996 3.1765-28.996 6.614-9.367 0.88333-39.921 6.5163-37.05 1.852 0.945 401.69 272.88 472.74 322.63s269.26 188.55 440.48 308.43c303.51 212.51 512.64 358.95 887.18 621.21 101.01 70.731 184.61 129.04 185.79 129.58 1.316 0.597 2.472 0.664 2.965 0.168 0.441-0.446 4.402-12.094 8.808-25.879s11.117-34.762 14.914-46.61c3.801-11.851 10.735-33.617 15.406-48.367 4.672-14.754 10.442-32.746 12.809-40 2.367-7.258 13.039-40.707 23.727-74.324 10.687-33.613 22.351-70.219 25.91-81.344 16.746-52.383 26.34-82.492 28.73-90.14 1.438-4.594 4.742-14.875 7.344-22.856 20.004-61.312 47.039-148 47.039-150.82 0-1.859 2.785-11.969 6.168-22.477 3.387-10.504 6.152-20.675 6.152-22.593 0-2.829 0.676-4.25 3.59-7.559 2.614-2.969 4.235-4.086 5.938-4.059 2.769 0.032 46.871 30.633 49.726 34.504 1.617 2.192 1.684 2.727 0.625 5.282-1.004 2.433-31.211 96.07-45.312 140.46-2.535 7.981-7.903 24.797-11.922 37.375-4.02 12.575-9.375 29.395-11.895 37.375-2.519 7.981-8.379 26.391-13.023 40.899-4.645 14.512-16.59 51.906-26.551 83.101-9.957 31.2-20.328 63.645-23.039 72.11-2.707 8.465-7.176 22.515-9.937 31.223-2.762 8.703-8.891 27.89-13.618 42.64-4.73 14.754-10.468 32.762-12.75 40.016-2.281 7.254-10.98 34.57-19.328 60.687-8.351 26.121-15.191 48.403-15.191 49.528s0.355 2.367 0.777 2.75c0.426 0.382 73.387 51.519 162.14 113.65 88.754 62.133 307.3 215.15 485.67 340.04 178.37 124.89 1332.4 927.93 1332.4 927.93l-9.54 9.5365-42.46 0.423zm-2317.1-1919.7c-0.457 0.106-0.867 0.078-1.285-0.031-0.477-0.129-0.961-0.371-1.496-0.656-1.149-0.614-12.168-8.192-24.504-16.856-16.235-11.406-22.504-16.281-22.688-17.664-0.14-1.051 1.063-4.09 2.672-6.75 1.613-2.66 98.266-140.96 214.78-307.35 251.08-358.53 490.35-700.06 490.35-700.06s6.2801-6.2401 7.0141-6.7551l5.0926-20.335c0.515 0.402 22.577 5.5491 22.577 5.5491s42.692 11.499 41.188 12.85c-1.031 0.836-269.57 395.96-289.37 424.26-19.805 28.293-117.72 168.19-217.61 310.88-99.883 142.68-182.06 260.75-182.61 262.37-0.554 1.621-7.437 12.102-15.281 23.297-20.531 29.305-25.637 36.512-28.824 37.254z" fill="#1b1b1b"/></g></g><g transform="matrix(.72147 -.41654 .41654 .72147 125.29 218.39)" stroke-width="1.1253px"><g transform="rotate(-.0090094)" aria-label="Jade Michael Thornton"><path d="m405.03 1851.1c25.044 0 33.514-12.645 33.514-48.123v-51.806h-30.2v13.013h16.082v38.793c0 27.745-4.5422 35.11-19.397 35.11-10.558 0-13.504-3.1919-17.187-16.45l-13.258 3.6829c5.1561 19.151 12.522 25.78 30.445 25.78z"/><path d="m479.85 1851.1c9.5756 0 15.837-1.8414 20.379-6.6292 3.3146 4.0512 9.33 5.4016 18.783 4.7878v-13.013c-8.1024 0.6139-9.5756 0.7366-9.5756-7.9796v-28.727c0-18.292-7.7341-27.745-29.586-27.745-17.187 0-24.184 7.4886-28.358 24.307l13.504 3.3147c2.578-10.558 4.7878-13.013 14.854-13.013 12.399 0 15.468 3.0691 15.468 13.136v2.7008h-15.468c-21.606 0-29.463 5.1561-29.463 24.798 0 17.187 7.8569 24.062 29.463 24.062zm0-13.013c-12.645 0-15.345-2.4553-15.345-11.049 0-11.172 2.8236-11.785 15.345-11.785h15.468v6.0154c0 13.136-3.0691 16.819-15.468 16.819z"/><path d="m556.01 1851.1c6.752 0 12.031-0.9821 16.45-2.578v0.8594h14.118v-98.211h-14.118v23.571c-4.5422-1.7187-9.8211-2.9464-16.45-2.9464-22.711 0-30.323 11.54-30.323 39.776 0 28.113 7.6114 39.53 30.323 39.53zm0-13.013c-12.522 0-16.205-6.1382-16.205-26.517 0-20.502 3.6829-26.762 16.205-26.762 11.908 0 16.45 5.6471 16.45 17.187v28.972c0 4.174-4.5422 7.1203-16.45 7.1203z"/><path d="m630.58 1771.7c-24.184 0-32.41 11.54-32.41 39.653s8.2252 39.653 32.41 39.653c14.609 0 22.343-4.4194 30.568-16.941l-11.294-7.4886c-6.6292 9.2073-9.8211 11.417-19.274 11.417-13.013 0-17.555-5.5244-18.169-22.834h48.737c0.36829-31.182-6.8748-43.458-30.568-43.458zm-17.923 30.445c1.1049-13.258 5.8926-17.432 17.923-17.432 10.926 0 14.732 4.2967 16.082 17.432z"/><path d="m758.11 1849.3 1.1049-61.627 12.276 33.146h11.785l12.276-33.146 1.2276 61.627h14.118l-1.7187-98.211h-13.136l-18.66 46.036-18.66-46.036h-13.013l-1.8415 98.211z"/><path d="m851.95 1762.4c8.2252 0 10.803-2.4553 10.803-10.067 0-7.6114-2.578-10.067-10.803-10.067-8.2252 0-10.68 2.4552-10.68 10.067 0 7.6113 2.4553 10.067 10.68 10.067zm9.33 11.049h-29.586v13.013h15.468v49.842h-21.484v13.013h57.085v-13.013h-21.484z"/><path d="m926.77 1851.1c14.486 0 21.729-4.5422 29.832-17.432l-11.663-7.1203c-6.1382 9.2073-9.4528 11.54-18.169 11.54-14.609 0-18.66-6.1382-18.66-26.64s4.174-26.64 19.151-26.64c8.9617 0 11.785 2.087 17.555 11.294l11.785-6.9975c-7.8569-12.89-14.977-17.31-29.341-17.31-24.921 0-33.269 11.294-33.269 39.653s8.2252 39.653 32.778 39.653z"/><path d="m984.27 1849.3v-47.141c0-14.609 2.4553-17.432 15.1-17.432 11.785 0 15.345 5.7699 15.345 28.481v36.093h14.118v-36.093c0-30.445-7.4886-41.494-29.463-41.494-6.1382 0-11.049 0.8594-15.1 2.2098v-22.834h-14.118v98.211z"/><path d="m1068.5 1851.1c9.5755 0 15.836-1.8414 20.379-6.6292 3.3147 4.0512 9.3301 5.4016 18.783 4.7878v-13.013c-8.1024 0.6139-9.5756 0.7366-9.5756-7.9796v-28.727c0-18.292-7.7341-27.745-29.586-27.745-17.187 0-24.184 7.4886-28.358 24.307l13.504 3.3147c2.578-10.558 4.7878-13.013 14.854-13.013 12.399 0 15.468 3.0691 15.468 13.136v2.7008h-15.468c-21.606 0-29.463 5.1561-29.463 24.798 0 17.187 7.8569 24.062 29.463 24.062zm0-13.013c-12.645 0-15.346-2.4553-15.346-11.049 0-11.172 2.8236-11.785 15.346-11.785h15.468v6.0154c0 13.136-3.0691 16.819-15.468 16.819z"/><path d="m1145.7 1771.7c-24.184 0-32.41 11.54-32.41 39.653s8.2251 39.653 32.41 39.653c14.609 0 22.343-4.4194 30.568-16.941l-11.294-7.4886c-6.6292 9.2073-9.821 11.417-19.274 11.417-13.013 0-17.555-5.5244-18.169-22.834h48.737c0.3683-31.182-6.8748-43.458-30.568-43.458zm-17.924 30.445c1.1048-13.258 5.8926-17.432 17.924-17.432 10.926 0 14.732 4.2967 16.082 17.432z"/><path d="m1231.5 1851.1c7.6113 0 12.399-1.8414 19.642-7.7341l-7.8568-12.031c-6.0154 5.1561-8.839 6.752-11.785 6.752-6.0155 0-7.9797-3.6829-7.9797-15.1v-71.817h-29.586v13.013h15.468v58.804c0 21.361 5.2788 28.113 22.098 28.113z"/><path d="m1403 1751.1h-73.904v13.013h29.954v85.198h14.118v-85.198h29.832z"/><path d="m1425.8 1849.3v-47.141c0-14.609 2.4553-17.432 15.1-17.432 11.785 0 15.345 5.7699 15.345 28.481v36.093h14.118v-36.093c0-30.445-7.4885-41.494-29.463-41.494-6.1382 0-11.049 0.8594-15.1 2.2098v-22.834h-14.118v98.211z"/><path d="m1513.2 1851.1c22.711 0 30.445-11.54 30.445-39.653s-7.7341-39.653-30.445-39.653c-22.711 0-30.323 11.54-30.323 39.653s7.6114 39.653 30.323 39.653zm0-13.013c-12.522 0-16.205-6.1382-16.205-26.64s3.683-26.64 16.205-26.64c12.522 0 16.328 6.1382 16.328 26.64s-3.8057 26.64-16.328 26.64z"/><path d="m1575.5 1849.3v-38.916c0-15.591 4.1739-25.658 17.678-25.658 7.9797 0 9.9439 2.3325 13.258 12.522l12.645-5.7699c-5.4016-14.609-11.908-19.765-25.903-19.765-7.9796 0-14.486 4.5423-17.678 7.9797v-6.261h-14.118v75.868z"/><path d="m1645.8 1849.3v-47.141c0-14.118 2.4553-17.432 18.046-17.432 9.5755 0 12.522 4.4195 12.522 18.783v45.791h14.241v-45.791c0-24.307-6.3838-31.796-26.762-31.796-7.8569 0-13.75 1.596-18.046 3.5602v-1.8415h-14.118v75.868z"/><path d="m1742 1851.1c15.223 0 21.238-4.2967 24.921-16.819l-13.258-4.5422c-2.087 6.9975-2.7008 8.3479-11.663 8.3479-7.9796 0-10.68-3.6829-10.68-17.432v-35.602h25.412v-13.013h-25.412v-20.87h-14.118v20.87h-15.223v13.013h15.223v35.602c0 21.729 6.9975 30.445 24.798 30.445z"/><path d="m1807.6 1851.1c22.711 0 30.445-11.54 30.445-39.653s-7.7341-39.653-30.445-39.653-30.323 11.54-30.323 39.653 7.6113 39.653 30.323 39.653zm0-13.013c-12.522 0-16.205-6.1382-16.205-26.64s3.6829-26.64 16.205-26.64 16.328 6.1382 16.328 26.64-3.8057 26.64-16.328 26.64z"/><path d="m1866.6 1849.3v-47.141c0-14.118 2.4553-17.432 18.046-17.432 9.5755 0 12.522 4.4195 12.522 18.783v45.791h14.24v-45.791c0-24.307-6.3837-31.796-26.762-31.796-7.8569 0-13.75 1.596-18.046 3.5602v-1.8415h-14.118v75.868z"/></g><g transform="rotate(.14657)" aria-label="software engineer"><path d="m398.03 2061.7c15.659 0 21.465-4.2012 21.465-14.819 0-10.236-4.9651-13.215-18.867-15.201-6.722-0.9167-9.3191-1.4514-9.3191-5.1179 0-4.736 1.9097-6.1109 10.541-6.1109 6.3401 0 7.7914 1.3749 10.847 7.1803l6.4164-6.2637c-4.0485-6.722-8.2497-9.0136-17.263-9.0136-14.131 0-19.326 4.0485-19.326 14.208 0 8.7844 5.729 11.916 17.492 13.368 8.7844 1.1458 10.618 1.6805 10.618 6.9512 0 5.1178-2.2152 6.722-12.604 6.722-5.5762 0-6.9512-1.5278-9.7774-8.0206l-6.9512 5.729c3.9721 7.6386 8.1733 10.388 16.729 10.388z"/><path d="m445.72 2061.7c14.131 0 18.944-7.1803 18.944-24.673s-4.8123-24.673-18.944-24.673c-14.131 0-18.867 7.1803-18.867 24.673s4.736 24.673 18.867 24.673zm0-8.0969c-7.7914 0-10.083-3.8194-10.083-16.576s2.2916-16.576 10.083-16.576 10.159 3.8193 10.159 16.576-2.368 16.576-10.159 16.576z"/><path d="m497.77 1998.4c-12.451 0-16.958 4.8123-16.958 17.874v4.4304h-9.4719v8.097h9.4719v31.777h8.7844v-31.777h13.597v-8.097h-13.597v-4.4304c0-8.0206 1.6041-9.7774 8.1733-9.7774 6.2637 0 6.8748 0.9166 8.0206 5.1942l8.2497-2.8263c-2.1388-7.7914-6.1873-10.465-16.27-10.465z"/><path d="m542.26 2061.7c9.4719 0 13.215-2.6735 15.506-10.465l-8.2497-2.8263c-1.2986 4.354-1.6805 5.1943-7.2567 5.1943-4.9651 0-6.6456-2.2916-6.6456-10.847v-22.152h15.812v-8.0969h-15.812v-12.986h-8.7844v12.986h-9.4719v8.0969h9.4719v22.152c0 13.52 4.354 18.944 15.43 18.944z"/><path d="m576.9 2060.6 6.1873-17.874 6.1109 17.874h7.7914l8.9372-47.207h-8.8608l-5.2707 28.95-4.8887-15.965h-7.6386l-4.9651 16.118-5.1943-29.103h-8.8608l8.8608 47.207z"/><path d="m626.88 2061.7c5.9581 0 9.8538-1.1458 12.68-4.1249 2.0624 2.5208 5.8054 3.361 11.687 2.9791v-8.0969c-5.0415 0.3819-5.9581 0.4583-5.9581-4.9652v-17.874c0-11.382-4.8123-17.263-18.409-17.263-10.694 0-15.048 4.6596-17.645 15.124l8.4025 2.0625c1.6041-6.5693 2.9791-8.097 9.2428-8.097 7.715 0 9.6247 1.9097 9.6247 8.1733v1.6805h-9.6247c-13.444 0-18.333 3.2083-18.333 15.43 0 10.694 4.8887 14.972 18.333 14.972zm0-8.0969c-7.8678 0-9.5483-1.5278-9.5483-6.8748 0-6.9512 1.7569-7.3331 9.5483-7.3331h9.6247v3.7429c0 8.1734-1.9097 10.465-9.6247 10.465z"/><path d="m667.63 2060.6v-24.214c0-9.701 2.5971-15.965 11-15.965 4.9651 0 6.1873 1.4513 8.2497 7.7914l7.8678-3.5902c-3.361-9.09-7.4095-12.298-16.118-12.298-4.9651 0-9.0136 2.8263-11 4.9651v-3.8957h-8.7844v47.207z"/><path d="m720.67 2012.3c-15.048 0-20.166 7.1803-20.166 24.673s5.1179 24.673 20.166 24.673c9.09 0 13.902-2.7499 19.02-10.541l-7.0276-4.6596c-4.1249 5.729-6.1109 7.104-11.993 7.104-8.097 0-10.923-3.4374-11.305-14.208h30.325c0.22916-19.402-4.2776-27.041-19.02-27.041zm-11.152 18.944c0.68748-8.2497 3.6666-10.847 11.152-10.847 6.7984 0 9.1664 2.6735 10.007 10.847z"/><path d="m812.25 2012.3c-15.048 0-20.166 7.1803-20.166 24.673s5.1179 24.673 20.166 24.673c9.09 0 13.902-2.7499 19.02-10.541l-7.0275-4.6596c-4.1249 5.729-6.1109 7.104-11.993 7.104-8.097 0-10.923-3.4374-11.305-14.208h30.325c0.22916-19.402-4.2776-27.041-19.02-27.041zm-11.152 18.944c0.68748-8.2497 3.6665-10.847 11.152-10.847 6.7984 0 9.1664 2.6735 10.007 10.847z"/><path d="m848.72 2060.6v-29.332c0-8.7844 1.5277-10.847 11.229-10.847 5.9581 0 7.7914 2.7499 7.7914 11.687v28.492h8.8608v-28.492c0-15.124-3.9721-19.784-16.652-19.784-4.8887 0-8.5553 0.993-11.229 2.2152v-1.1458h-8.7844v47.207z"/><path d="m903.44 2075.6c13.673 0 18.486-5.4998 18.486-19.86v-42.318h-8.7844v0.4583c-2.7499-0.9166-6.0345-1.5277-10.236-1.5277-13.902 0-18.944 5.8818-18.944 20.013 0 18.562 4.8123 25.742 18.944 25.742 4.1249 0 7.4095-0.7639 10.236-1.8333v0.1528c0 8.7844-2.0624 11.076-9.7011 11.076-4.5068 0-5.6526-0.7639-8.4025-4.0485l-6.4164 5.4998c4.1249 4.9651 7.6386 6.6456 14.819 6.6456zm-0.5347-25.589c-7.7914 0-10.083-3.8957-10.083-17.645 0-9.0899 2.1388-11.916 10.083-11.916 7.4095 0 10.236 1.8332 10.236 4.4304v14.437c0 7.1803-2.8263 10.694-10.236 10.694z"/><path d="m949.99 2006.5c5.1179 0 6.722-1.5278 6.722-6.2637 0-4.736-1.6041-6.2637-6.722-6.2637-5.1179 0-6.6456 1.5277-6.6456 6.2637 0 4.7359 1.5277 6.2637 6.6456 6.2637zm5.8054 6.8747h-18.409v8.097h9.6247v31.013h-13.368v8.097h35.52v-8.097h-13.368z"/><path d="m986.08 2060.6v-29.332c0-8.7844 1.5277-10.847 11.229-10.847 5.9582 0 7.7914 2.7499 7.7914 11.687v28.492h8.8608v-28.492c0-15.124-3.9721-19.784-16.652-19.784-4.8887 0-8.5553 0.993-11.229 2.2152v-1.1458h-8.7844v47.207z"/><path d="m1041.2 2012.3c-15.048 0-20.166 7.1803-20.166 24.673s5.1179 24.673 20.166 24.673c9.09 0 13.902-2.7499 19.02-10.541l-7.0275-4.6596c-4.1249 5.729-6.1109 7.104-11.993 7.104-8.097 0-10.923-3.4374-11.305-14.208h30.325c0.2292-19.402-4.2776-27.041-19.02-27.041zm-11.152 18.944c0.6875-8.2497 3.6665-10.847 11.152-10.847 6.7984 0 9.1664 2.6735 10.007 10.847z"/><path d="m1087 2012.3c-15.048 0-20.166 7.1803-20.166 24.673s5.1179 24.673 20.166 24.673c9.0899 0 13.902-2.7499 19.02-10.541l-7.0276-4.6596c-4.1249 5.729-6.1109 7.104-11.993 7.104-8.097 0-10.923-3.4374-11.305-14.208h30.325c0.2291-19.402-4.2777-27.041-19.02-27.041zm-11.152 18.944c0.6875-8.2497 3.6666-10.847 11.152-10.847 6.7983 0 9.1663 2.6735 10.007 10.847z"/><path d="m1125.5 2060.6v-24.214c0-9.701 2.5971-15.965 11-15.965 4.9651 0 6.1873 1.4513 8.2498 7.7914l7.8678-3.5902c-3.361-9.09-7.4095-12.298-16.118-12.298-4.9651 0-9.0136 2.8263-11 4.9651v-3.8957h-8.7844v47.207z"/></g></g></svg>
